<svg width="78" height="111" viewBox="0 0 78 111" fill="none" xmlns="http://www.w3.org/2000/svg">
<path d="M1.2498 88.45C10.9498 80.85 18.8998 74.3 25.0998 68.8C31.2998 63.3 36.4998 57.65 40.6998 51.85C44.8998 45.95 46.9998 40.35 46.9998 35.05C46.9998 31.85 46.2498 29.35 44.7498 27.55C43.3498 25.75 41.2498 24.85 38.4498 24.85C35.5498 24.85 33.2998 26.1 31.6998 28.6C30.0998 31 29.3498 34.55 29.4498 39.25H0.949805C1.2498 30.35 3.1998 23 6.7998 17.2C10.3998 11.3 15.0998 6.99999 20.8998 4.29999C26.6998 1.49999 33.1498 0.0999923 40.2498 0.0999923C52.5498 0.0999923 61.6998 3.14999 67.6998 9.24999C73.6998 15.35 76.6998 23.25 76.6998 32.95C76.6998 43.35 73.1998 53.1 66.1998 62.2C59.2998 71.3 50.6498 79.45 40.2498 86.65H77.7498V110.5H1.2498V88.45Z" fill="#F9CEBD"/>
</svg>
