<svg width="78" height="114" viewBox="0 0 78 114" fill="none" xmlns="http://www.w3.org/2000/svg">
<path d="M1.42363 36.05C1.82363 24.75 5.32363 16.1 11.9236 10.1C18.5236 3.99999 27.7236 0.949994 39.5236 0.949994C47.2236 0.949994 53.7736 2.29999 59.1736 5C64.6736 7.6 68.8236 11.2 71.6236 15.8C74.4236 20.3 75.8236 25.4 75.8236 31.1C75.8236 37.9 74.1736 43.35 70.8736 47.45C67.5736 51.45 63.8236 54.15 59.6236 55.55V56.15C71.7236 60.65 77.7736 69.25 77.7736 81.95C77.7736 88.25 76.3236 93.8 73.4236 98.6C70.5236 103.4 66.3236 107.15 60.8236 109.85C55.3236 112.55 48.7736 113.9 41.1736 113.9C28.6736 113.9 18.7736 110.9 11.4736 104.9C4.27363 98.8 0.523633 89.5 0.223633 77H28.8736C28.6736 81 29.5236 84.1 31.4236 86.3C33.3236 88.5 36.1736 89.6 39.9736 89.6C42.8736 89.6 45.1236 88.7 46.7236 86.9C48.4236 85.1 49.2736 82.7 49.2736 79.7C49.2736 75.9 48.0236 73.1 45.5236 71.3C43.1236 69.5 39.1736 68.6 33.6736 68.6H28.4236V44.75H33.5236C37.3236 44.85 40.5236 44.25 43.1236 42.95C45.8236 41.55 47.1736 38.8 47.1736 34.7C47.1736 31.6 46.4236 29.3 44.9236 27.8C43.4236 26.2 41.3736 25.4 38.7736 25.4C35.8736 25.4 33.7236 26.45 32.3236 28.55C31.0236 30.55 30.2736 33.05 30.0736 36.05H1.42363Z" fill="#F9CEBD"/>
</svg>
