<svg width="28" height="28" viewBox="0 0 28 28" fill="none" xmlns="http://www.w3.org/2000/svg">
<mask id="mask0_765_126611" style="mask-type:alpha" maskUnits="userSpaceOnUse" x="0" y="0" width="28" height="28">
<rect width="28" height="28" fill="#D9D9D9"/>
</mask>
<g mask="url(#mask0_765_126611)">
<path d="M11.1063 18.2184C9.11396 18.2184 7.42679 17.5274 6.04476 16.1453C4.66271 14.7633 3.97168 13.0761 3.97168 11.0838C3.97168 9.0915 4.66271 7.40432 6.04476 6.02227C7.42679 4.64024 9.11396 3.94922 11.1063 3.94922C13.0986 3.94922 14.7857 4.64024 16.1678 6.02227C17.5498 7.40432 18.2409 9.0915 18.2409 11.0838C18.2409 11.9169 18.101 12.7126 17.8213 13.471C17.5416 14.2293 17.1684 14.8889 16.7017 15.4498L23.4146 22.1626C23.5761 22.3242 23.6587 22.5272 23.6625 22.7718C23.6662 23.0163 23.5836 23.2231 23.4146 23.3921C23.2456 23.5611 23.0406 23.6456 22.7998 23.6456C22.559 23.6456 22.3541 23.5611 22.1851 23.3921L15.4723 16.6793C14.8889 17.1609 14.2181 17.5378 13.4598 17.81C12.7014 18.0823 11.9169 18.2184 11.1063 18.2184ZM11.1063 16.4684C12.6095 16.4684 13.8827 15.9468 14.926 14.9035C15.9693 13.8602 16.4909 12.587 16.4909 11.0838C16.4909 9.58058 15.9693 8.30734 14.926 7.26407C13.8827 6.2208 12.6095 5.69916 11.1063 5.69916C9.60304 5.69916 8.3298 6.2208 7.28653 7.26407C6.24328 8.30734 5.72165 9.58058 5.72165 11.0838C5.72165 12.587 6.24328 13.8602 7.28653 14.9035C8.3298 15.9468 9.60304 16.4684 11.1063 16.4684Z" fill="white"/>
</g>
</svg>
