<svg width="30" height="30" viewBox="0 0 30 30" fill="none" xmlns="http://www.w3.org/2000/svg">
<mask id="mask0_765_127088" style="mask-type:alpha" maskUnits="userSpaceOnUse" x="0" y="0" width="30" height="30">
<rect width="30" height="30" fill="#D9D9D9"/>
</mask>
<g mask="url(#mask0_765_127088)">
<path d="M20.6875 28.125L16.25 23.6875L18 21.9375L20.6563 24.5938L25.9688 19.2812L27.7188 21.0625L20.6875 28.125ZM9.25 21.25L7.5 19.5L9.5 17.5L7.5 15.5L9.25 13.75L11.25 15.75L13.25 13.75L15 15.5L13 17.5L15 19.5L13.25 21.25L11.25 19.25L9.25 21.25ZM6.25 27.5C5.5625 27.5 4.97396 27.2552 4.48438 26.7656C3.99479 26.276 3.75 25.6875 3.75 25V7.5C3.75 6.8125 3.99479 6.22396 4.48438 5.73438C4.97396 5.24479 5.5625 5 6.25 5H7.5V2.5H10V5H20V2.5H22.5V5H23.75C24.4375 5 25.026 5.24479 25.5156 5.73438C26.0052 6.22396 26.25 6.8125 26.25 7.5V15.4375L23.75 17.9688V12.5H6.25V25H14.0625L16.5313 27.5H6.25Z" fill="#E95F29"/>
</g>
</svg>
