<svg width="30" height="30" viewBox="0 0 30 30" fill="none" xmlns="http://www.w3.org/2000/svg">
<g id="payments">
<mask id="mask0_765_126600" style="mask-type:alpha" maskUnits="userSpaceOnUse" x="0" y="0" width="30" height="30">
<rect id="Bounding box" width="30" height="30" fill="#D9D9D9"/>
</mask>
<g mask="url(#mask0_765_126600)">
<path id="payments_2" d="M4.56428 24.1348C3.94289 24.1348 3.41094 23.9136 2.96844 23.471C2.52594 23.0285 2.30469 22.4966 2.30469 21.8752V9.4955H4.17963V21.8752C4.17963 21.9714 4.2197 22.0595 4.29984 22.1397C4.37997 22.2198 4.46811 22.2598 4.56428 22.2598H23.9632V24.1348H4.56428ZM8.93922 19.7598C8.31784 19.7598 7.7859 19.5386 7.34338 19.0961C6.90088 18.6536 6.67963 18.1216 6.67963 17.5002V8.02913C6.67963 7.40775 6.90088 6.8758 7.34338 6.43328C7.7859 5.99078 8.31784 5.76953 8.93922 5.76953H25.4295C26.0509 5.76953 26.5829 5.99078 27.0254 6.43328C27.4679 6.8758 27.6891 7.40775 27.6891 8.02913V17.5002C27.6891 18.1216 27.4679 18.6536 27.0254 19.0961C26.5829 19.5386 26.0509 19.7598 25.4295 19.7598H8.93922ZM10.8142 17.8849C10.8142 17.2615 10.5929 16.7291 10.1504 16.2876C9.70792 15.846 9.17597 15.6253 8.55459 15.6253V17.5002C8.55459 17.6044 8.59266 17.6946 8.66878 17.7707C8.74491 17.8468 8.83505 17.8849 8.93922 17.8849H10.8142ZM23.5546 17.8849H25.4295C25.5337 17.8849 25.6239 17.8468 25.7 17.7707C25.7761 17.6946 25.8142 17.6044 25.8142 17.5002V15.6253C25.1908 15.6253 24.6583 15.8465 24.2168 16.2891C23.7753 16.7316 23.5546 17.2635 23.5546 17.8849ZM17.1844 15.8897C18.0578 15.8897 18.7969 15.5872 19.4019 14.9822C20.0069 14.3773 20.3093 13.6381 20.3093 12.7647C20.3093 11.8913 20.0069 11.1521 19.4019 10.5472C18.7969 9.94223 18.0578 9.63975 17.1844 9.63975C16.311 9.63975 15.5718 9.94223 14.9669 10.5472C14.3619 11.1521 14.0594 11.8913 14.0594 12.7647C14.0594 13.6381 14.3619 14.3773 14.9669 14.9822C15.5718 15.5872 16.311 15.8897 17.1844 15.8897ZM8.55459 9.90409C9.17799 9.90409 9.71044 9.68284 10.1519 9.24034C10.5934 8.79782 10.8142 8.26588 10.8142 7.6445H8.93922C8.83505 7.6445 8.74491 7.68256 8.66878 7.75869C8.59266 7.83481 8.55459 7.92496 8.55459 8.02913V9.90409ZM25.8142 9.90409V8.02913C25.8142 7.92496 25.7761 7.83481 25.7 7.75869C25.6239 7.68256 25.5337 7.6445 25.4295 7.6445H23.5546C23.5546 8.2679 23.7758 8.80034 24.2183 9.24184C24.6608 9.68334 25.1928 9.90409 25.8142 9.90409Z" fill="#E95F29"/>
</g>
</g>
</svg>
