<svg width="30" height="30" viewBox="0 0 30 30" fill="none" xmlns="http://www.w3.org/2000/svg">
<g id="today">
<mask id="mask0_765_127078" style="mask-type:alpha" maskUnits="userSpaceOnUse" x="0" y="0" width="30" height="30">
<rect id="Bounding box" width="30" height="30" fill="#D9D9D9"/>
</mask>
<g mask="url(#mask0_765_127078)">
<path id="today_2" d="M11.25 20.625C10.375 20.625 9.63542 20.3229 9.03125 19.7188C8.42708 19.1146 8.125 18.375 8.125 17.5C8.125 16.625 8.42708 15.8854 9.03125 15.2812C9.63542 14.6771 10.375 14.375 11.25 14.375C12.125 14.375 12.8646 14.6771 13.4688 15.2812C14.0729 15.8854 14.375 16.625 14.375 17.5C14.375 18.375 14.0729 19.1146 13.4688 19.7188C12.8646 20.3229 12.125 20.625 11.25 20.625ZM6.25 27.5C5.5625 27.5 4.97396 27.2552 4.48438 26.7656C3.99479 26.276 3.75 25.6875 3.75 25V7.5C3.75 6.8125 3.99479 6.22396 4.48438 5.73438C4.97396 5.24479 5.5625 5 6.25 5H7.5V2.5H10V5H20V2.5H22.5V5H23.75C24.4375 5 25.026 5.24479 25.5156 5.73438C26.0052 6.22396 26.25 6.8125 26.25 7.5V25C26.25 25.6875 26.0052 26.276 25.5156 26.7656C25.026 27.2552 24.4375 27.5 23.75 27.5H6.25ZM6.25 25H23.75V12.5H6.25V25Z" fill="#E95F29"/>
</g>
</g>
</svg>
