<svg width="30" height="30" viewBox="0 0 30 30" fill="none" xmlns="http://www.w3.org/2000/svg">
<g id="groups_2">
<mask id="mask0_765_127098" style="mask-type:alpha" maskUnits="userSpaceOnUse" x="0" y="0" width="30" height="30">
<rect id="Bounding box" width="30" height="30" fill="#D9D9D9"/>
</mask>
<g mask="url(#mask0_765_127098)">
<path id="groups_2_2" d="M12.8438 15C12.2604 15 11.7812 14.7812 11.4062 14.3438C11.0312 13.9062 10.8958 13.3958 11 12.8125L11.375 10.5625C11.5417 9.66667 11.9635 8.93229 12.6406 8.35938C13.3177 7.78646 14.1042 7.5 15 7.5C15.9167 7.5 16.7135 7.78646 17.3906 8.35938C18.0677 8.93229 18.4896 9.66667 18.6562 10.5625L19.0312 12.8125C19.1354 13.3958 19 13.9062 18.625 14.3438C18.25 14.7812 17.7708 15 17.1875 15H12.8438ZM3.875 16.2188C3.39583 16.2396 2.98438 16.1458 2.64062 15.9375C2.29688 15.7292 2.07292 15.4062 1.96875 14.9688C1.92708 14.7812 1.91667 14.5938 1.9375 14.4062C1.95833 14.2188 2.01042 14.0417 2.09375 13.875C2.09375 13.8958 2.08333 13.8542 2.0625 13.75C2.02083 13.7083 1.91667 13.4583 1.75 13C1.70833 12.75 1.73958 12.5104 1.84375 12.2812C1.94792 12.0521 2.08333 11.8542 2.25 11.6875L2.3125 11.625C2.35417 11.2292 2.51562 10.8958 2.79688 10.625C3.07812 10.3542 3.42708 10.2188 3.84375 10.2188C3.90625 10.2188 4.10417 10.2604 4.4375 10.3438L4.53125 10.3125C4.63542 10.2083 4.77083 10.1302 4.9375 10.0781C5.10417 10.026 5.28125 10 5.46875 10C5.69792 10 5.90104 10.0365 6.07812 10.1094C6.25521 10.1823 6.39583 10.2917 6.5 10.4375C6.52083 10.4375 6.53646 10.4427 6.54688 10.4531C6.55729 10.4635 6.57292 10.4688 6.59375 10.4688C6.88542 10.4896 7.14063 10.5781 7.35938 10.7344C7.57813 10.8906 7.73958 11.1042 7.84375 11.375C7.88542 11.5208 7.90104 11.6615 7.89062 11.7969C7.88021 11.9323 7.85417 12.0625 7.8125 12.1875C7.8125 12.2083 7.82292 12.25 7.84375 12.3125C7.98958 12.4583 8.10417 12.6198 8.1875 12.7969C8.27083 12.974 8.3125 13.1562 8.3125 13.3438C8.3125 13.4271 8.25 13.6458 8.125 14C8.10417 14.0417 8.10417 14.0833 8.125 14.125L8.1875 14.625C8.1875 15.0625 8.00521 15.4375 7.64062 15.75C7.27604 16.0625 6.83333 16.2188 6.3125 16.2188H3.875ZM25 16.25C24.3125 16.25 23.724 16.0052 23.2344 15.5156C22.7448 15.026 22.5 14.4375 22.5 13.75C22.5 13.5 22.5365 13.2656 22.6094 13.0469C22.6823 12.8281 22.7812 12.6146 22.9062 12.4062L22.0312 11.625C21.8229 11.4583 21.7865 11.25 21.9219 11C22.0573 10.75 22.25 10.625 22.5 10.625H25C25.6875 10.625 26.276 10.8698 26.7656 11.3594C27.2552 11.849 27.5 12.4375 27.5 13.125V13.75C27.5 14.4375 27.2552 15.026 26.7656 15.5156C26.276 16.0052 25.6875 16.25 25 16.25ZM0 22.5V20.5312C0 19.6146 0.463542 18.8802 1.39063 18.3281C2.31771 17.776 3.52083 17.5 5 17.5C5.27083 17.5 5.53125 17.5052 5.78125 17.5156C6.03125 17.526 6.27083 17.5521 6.5 17.5938C6.20833 18.0104 5.98958 18.4583 5.84375 18.9375C5.69792 19.4167 5.625 19.9271 5.625 20.4688V22.5H0ZM7.5 22.5V20.4688C7.5 19.1146 8.19271 18.0208 9.57812 17.1875C10.9635 16.3542 12.7708 15.9375 15 15.9375C17.25 15.9375 19.0625 16.3542 20.4375 17.1875C21.8125 18.0208 22.5 19.1146 22.5 20.4688V22.5H7.5ZM25 17.5C26.5 17.5 27.7083 17.776 28.625 18.3281C29.5417 18.8802 30 19.6146 30 20.5312V22.5H24.375V20.4688C24.375 19.9271 24.3073 19.4167 24.1719 18.9375C24.0365 18.4583 23.8333 18.0104 23.5625 17.5938C23.7917 17.5521 24.026 17.526 24.2656 17.5156C24.5052 17.5052 24.75 17.5 25 17.5Z" fill="#E95F29"/>
</g>
</g>
</svg>
