<svg width="16" height="16" viewBox="0 0 16 16" fill="none" xmlns="http://www.w3.org/2000/svg">
<g id="Frame">
<path id="Vector" d="M6.91406 2.83594H9.08106V3.83594H6.91406V2.83594ZM3.41406 2.83594H5.58106V3.83594H3.41406V2.83594ZM12.5811 2.83594H10.4141V3.83594H12.5811V2.83594Z" fill="#262626"/>
<path id="Vector_2" fill-rule="evenodd" clip-rule="evenodd" d="M3.41406 6.24756C3.41406 6.11495 3.46674 5.98778 3.56051 5.89401C3.65428 5.80024 3.78145 5.74756 3.91406 5.74756H7.41406C7.54667 5.74756 7.67385 5.80024 7.76762 5.89401C7.86138 5.98778 7.91406 6.11495 7.91406 6.24756V8.58106C7.91394 9.0909 7.74075 9.58559 7.42283 9.98417C7.10492 10.3827 6.66111 10.6616 6.16406 10.7751V12.1641H7.41406V13.1641H3.91406V12.1641H5.16406V10.7751C4.66701 10.6616 4.22321 10.3827 3.90529 9.98417C3.58738 9.58559 3.41418 9.0909 3.41406 8.58106V6.24756ZM4.41406 6.74756V8.58106C4.41406 8.91258 4.54576 9.23053 4.78018 9.46495C5.0146 9.69937 5.33254 9.83106 5.66406 9.83106C5.99558 9.83106 6.31353 9.69937 6.54795 9.46495C6.78237 9.23053 6.91406 8.91258 6.91406 8.58106V6.74756H4.41406ZM9.24756 13.2476H10.2476V12.5811H10.3311C10.9278 12.5811 11.5001 12.344 11.9221 11.9221C12.344 11.5001 12.5811 10.9278 12.5811 10.3311V8.58106C12.5811 7.98433 12.344 7.41203 11.9221 6.99007C11.5001 6.56812 10.9278 6.33106 10.3311 6.33106H10.2476V5.66406H9.24756V13.2476ZM10.2476 7.33106V11.5811H10.3311C10.6626 11.5811 10.9805 11.4494 11.2149 11.2149C11.4494 10.9805 11.5811 10.6626 11.5811 10.3311V8.58106C11.5811 8.24954 11.4494 7.9316 11.2149 7.69718C10.9805 7.46276 10.6626 7.33106 10.3311 7.33106H10.2476Z" fill="#262626"/>
<path id="Vector_3" fill-rule="evenodd" clip-rule="evenodd" d="M2.278 0.5C1.93905 0.5 1.61399 0.634646 1.37432 0.874318C1.13465 1.11399 1 1.43905 1 1.778V14.222C1 14.5609 1.13465 14.886 1.37432 15.1257C1.61399 15.3654 1.93905 15.5 2.278 15.5H13.722C14.0609 15.5 14.386 15.3654 14.6257 15.1257C14.8654 14.886 15 14.5609 15 14.222V1.778C15 1.43905 14.8654 1.11399 14.6257 0.874318C14.386 0.634646 14.0609 0.5 13.722 0.5H2.278ZM2 1.778C2 1.6245 2.1245 1.5 2.278 1.5H13.722C13.8755 1.5 14 1.6245 14 1.778V14.222C14 14.2585 13.9928 14.2947 13.9788 14.3284C13.9649 14.3621 13.9444 14.3928 13.9186 14.4186C13.8928 14.4444 13.8621 14.4649 13.8284 14.4788C13.7947 14.4928 13.7585 14.5 13.722 14.5H2.278C2.20427 14.5 2.13356 14.4707 2.08142 14.4186C2.02929 14.3664 2 14.2957 2 14.222V1.778Z" fill="#262626"/>
</g>
</svg>
