<svg width="14" height="15" viewBox="0 0 14 15" fill="none" xmlns="http://www.w3.org/2000/svg">
<g id="arrow-up-arrow-down-light">
<g id="Vector">
<path d="M10.4998 2.7491C10.4998 2.42693 10.2387 2.16577 9.9165 2.16577C9.59434 2.16578 9.33317 2.42695 9.33318 2.74911L9.33328 10.6743L7.99565 9.33663C7.76784 9.10883 7.3985 9.10883 7.17069 9.33663C6.94289 9.56444 6.94289 9.93379 7.17069 10.1616L9.50402 12.4949C9.576 12.5669 9.66211 12.6161 9.75341 12.6426C9.7868 12.6523 9.82143 12.6591 9.85699 12.6628C9.8766 12.6648 9.8965 12.6658 9.91664 12.6658C9.92701 12.6658 9.93733 12.6655 9.94757 12.665C10.0998 12.657 10.2367 12.5907 10.336 12.4879L12.6623 10.1616C12.8901 9.93379 12.8901 9.56444 12.6623 9.33663C12.4345 9.10883 12.0652 9.10883 11.8374 9.33663L10.4999 10.674L10.4998 2.7491Z" fill="#E95F29"/>
<path d="M4.66651 12.0824L4.6665 4.1574L6.00402 5.49492C6.23183 5.72273 6.60118 5.72273 6.82898 5.49492C7.05679 5.26712 7.05679 4.89777 6.82898 4.66997L4.49565 2.33663C4.26784 2.10883 3.8985 2.10883 3.67069 2.33663L1.33736 4.66997C1.10955 4.89777 1.10955 5.26712 1.33736 5.49492C1.56516 5.72273 1.93451 5.72273 2.16232 5.49492L3.49984 4.1574L3.49984 12.0824C3.49984 12.4046 3.76101 12.6658 4.08317 12.6658C4.40534 12.6658 4.66651 12.4046 4.66651 12.0824Z" fill="#E95F29"/>
</g>
</g>
</svg>
