<svg width="26" height="26" viewBox="0 0 26 26" fill="none" xmlns="http://www.w3.org/2000/svg">
<g id="Facebook - Original" clip-path="url(#clip0_765_127573)">
<path id="Vector" d="M25.4425 12.69C25.4425 5.74407 19.8117 0.113281 12.8658 0.113281C5.91985 0.113281 0.289062 5.74407 0.289062 12.69C0.289062 18.9673 4.88816 24.1704 10.9007 25.1139V16.3255H7.70736V12.69H10.9007V9.91919C10.9007 6.76715 12.7783 5.02606 15.6511 5.02606C17.0267 5.02606 18.4664 5.2717 18.4664 5.2717V8.36675H16.8805C15.3182 8.36675 14.8309 9.33629 14.8309 10.3319V12.69H18.319L17.7614 16.3255H14.8309V25.1139C20.8434 24.1704 25.4425 18.9673 25.4425 12.69Z" fill="#1877F2"/>
<path id="Vector_2" d="M17.761 16.3254L18.3186 12.6899H14.8306V10.3318C14.8306 9.33721 15.3179 8.36669 16.8802 8.36669H18.466V5.27164C18.466 5.27164 17.0268 5.026 15.6508 5.026C12.778 5.026 10.9003 6.76709 10.9003 9.91913V12.6899H7.70703V16.3254H10.9003V25.1139C12.2025 25.3176 13.5284 25.3176 14.8306 25.1139V16.3254H17.761Z" fill="white"/>
</g>
<defs>
<clipPath id="clip0_765_127573">
<rect width="25.1534" height="25.1534" fill="white" transform="translate(0.289062 0.113281)"/>
</clipPath>
</defs>
</svg>
