<svg width="60" height="60" viewBox="0 0 60 60" fill="none" xmlns="http://www.w3.org/2000/svg">
<circle cx="30" cy="30" r="30" fill="#E95F29"/>
<mask id="mask0_3060_7721" style="mask-type:alpha" maskUnits="userSpaceOnUse" x="11" y="11" width="38" height="38">
<rect x="11" y="11" width="38" height="38" fill="#D9D9D9"/>
</mask>
<g mask="url(#mask0_3060_7721)">
<path d="M17.3307 30.0007H42.6641V23.6673H17.3307V30.0007ZM41.0807 45.834V41.084H36.3307V37.9173H41.0807V33.1673H44.2474V37.9173H48.9974V41.084H44.2474V45.834H41.0807ZM17.3307 42.6673C16.4599 42.6673 15.7144 42.3573 15.0943 41.7371C14.4741 41.117 14.1641 40.3715 14.1641 39.5007V20.5007C14.1641 19.6298 14.4741 18.8843 15.0943 18.2642C15.7144 17.6441 16.4599 17.334 17.3307 17.334H42.6641C43.5349 17.334 44.2804 17.6441 44.9005 18.2642C45.5207 18.8843 45.8307 19.6298 45.8307 20.5007V30.0007H41.0807C38.8904 30.0007 37.0234 30.7725 35.4797 32.3163C33.9359 33.86 33.1641 35.727 33.1641 37.9173V42.6673H17.3307Z" fill="white"/>
</g>
</svg>
