<svg width="17" height="16" viewBox="0 0 17 16" fill="none" xmlns="http://www.w3.org/2000/svg">
<path id="Vector" fill-rule="evenodd" clip-rule="evenodd" d="M0.442595 2.66298C-0.554144 1.63114 0.241876 0 1.74216 0H15.2578C16.7581 0 17.5541 1.63114 16.5574 2.66298L11.1081 8.30416V15.2C11.1081 15.4773 10.9521 15.7348 10.6958 15.8805C10.4395 16.0263 10.1195 16.0395 9.84996 15.9155L6.37244 14.3155C6.07791 14.18 5.89186 13.903 5.89186 13.6V8.30416L0.442595 2.66298ZM15.2578 1.6H1.74216L7.41102 7.46851C7.55248 7.61495 7.63062 7.80407 7.63062 8V13.1056L9.36938 13.9056V8C9.36938 7.80407 9.44752 7.61495 9.58898 7.46851L15.2578 1.6Z" fill="#E95F29"/>
</svg>
