<svg width="45" height="45" viewBox="0 0 45 45" fill="none" xmlns="http://www.w3.org/2000/svg">
<g id="Group 1000006132">
<circle id="Ellipse 366" cx="22.5" cy="22.5" r="22.5" fill="#E95F29"/>
<path id="Vector" fill-rule="evenodd" clip-rule="evenodd" d="M9.66389 14.4945C8.16878 12.9467 9.36281 10.5 11.6132 10.5H31.8868C34.1372 10.5 35.3312 12.9467 33.8361 14.4945L25.6622 22.9562V33.3C25.6622 33.7159 25.4282 34.1021 25.0437 34.3208C24.6593 34.5394 24.1792 34.5593 23.7749 34.3733L18.5587 31.9733C18.1169 31.77 17.8378 31.3545 17.8378 30.9V22.9562L9.66389 14.4945ZM31.8868 12.9H11.6132L20.1165 21.7028C20.3287 21.9224 20.4459 22.2061 20.4459 22.5V30.1584L23.0541 31.3584V22.5C23.0541 22.2061 23.1713 21.9224 23.3835 21.7028L31.8868 12.9Z" fill="white"/>
</g>
</svg>
