<svg width="16" height="16" viewBox="0 0 16 16" fill="none" xmlns="http://www.w3.org/2000/svg">
<g id="Frame">
<path id="Vector" fill-rule="evenodd" clip-rule="evenodd" d="M8.46187 1.18992C8.50097 1.09471 8.50973 0.989758 8.48696 0.889386C8.46419 0.789014 8.411 0.698114 8.33465 0.629094C8.2583 0.560074 8.16251 0.516296 8.06036 0.503737C7.95821 0.491178 7.85467 0.510449 7.76388 0.55892C5.56188 1.73292 4.32088 2.97992 3.63788 4.18892C2.95338 5.39992 2.85938 6.52192 2.85938 7.37992C2.85938 8.65792 3.36137 9.80892 4.27237 10.6364C5.18137 11.4619 6.46738 11.9399 7.99938 11.9399C9.53138 11.9399 10.8174 11.4619 11.7264 10.6364C12.6374 9.80892 13.1394 8.65792 13.1394 7.37992C13.1394 5.57242 12.1764 3.85092 10.5764 2.89142C10.4987 2.84479 10.4097 2.82017 10.3191 2.82017C10.2285 2.82017 10.1396 2.84479 10.0619 2.89142C8.96688 3.54842 8.35388 4.58792 7.96688 5.48242C7.71688 4.45942 7.74187 2.94542 8.46187 1.18992ZM3.85938 7.37992C3.85938 6.60642 3.94387 5.68042 4.50837 4.68042C4.96187 3.87842 5.74338 2.99592 7.10338 2.10742C6.54288 4.27492 6.88538 6.12092 7.59538 7.09442C7.64877 7.16759 7.72103 7.22489 7.80445 7.26018C7.88787 7.29548 7.97931 7.30745 8.069 7.29482C8.1587 7.28219 8.24328 7.24543 8.31371 7.18847C8.38414 7.13151 8.43777 7.05649 8.46887 6.97142L8.52888 6.80642C8.86688 5.87142 9.30388 4.66442 10.3224 3.91792C11.4654 4.72042 12.1394 6.02492 12.1394 7.37992C12.1394 8.38592 11.7494 9.26492 11.0544 9.89642C10.3569 10.5294 9.32288 10.9399 7.99938 10.9399C6.67588 10.9399 5.64188 10.5299 4.94438 9.89642C4.24938 9.26492 3.85938 8.38592 3.85938 7.37992Z" fill="#262626"/>
<path id="Vector_2" d="M3.31825 13.1254C1.94375 12.5034 0.81125 11.7574 0.15625 11.2539L0.76625 10.4609C1.36775 10.9239 2.43475 11.6279 3.73025 12.2144C5.02925 12.8019 6.52725 13.2574 8.00125 13.2574C9.47525 13.2574 10.9733 12.8024 12.2718 12.2144C13.5678 11.6279 14.6348 10.9244 15.2368 10.4609L15.8463 11.2539C15.1913 11.7574 14.0588 12.5039 12.6842 13.1254C12.2782 13.3089 11.8482 13.4834 11.4012 13.6374V15.4974H10.4012V13.9374C9.62625 14.1354 8.81625 14.2574 8.00125 14.2574C7.18625 14.2574 6.37625 14.1354 5.60125 13.9374V15.4974H4.60125V13.6374C4.16588 13.4867 3.73776 13.3159 3.31825 13.1254Z" fill="#262626"/>
</g>
</svg>
