<svg width="30" height="30" viewBox="0 0 30 30" fill="none" xmlns="http://www.w3.org/2000/svg">
<rect width="30" height="30" rx="15" fill="white"/>
<mask id="mask0_4121_3666" style="mask-type:alpha" maskUnits="userSpaceOnUse" x="5" y="5" width="21" height="20">
<rect x="5.10999" y="5" width="20" height="20" fill="#D9D9D9"/>
</mask>
<g mask="url(#mask0_4121_3666)">
<path d="M6.77661 20.8307V15.8307C6.77661 15.4557 6.853 15.1155 7.00578 14.8099C7.15856 14.5043 7.35994 14.2335 7.60994 13.9974V11.6641C7.60994 10.9696 7.853 10.3793 8.33911 9.89323C8.82522 9.40712 9.4155 9.16406 10.1099 9.16406H13.4433C13.7627 9.16406 14.0613 9.22309 14.3391 9.34115C14.6169 9.4592 14.8738 9.6224 15.1099 9.83073C15.3461 9.6224 15.603 9.4592 15.8808 9.34115C16.1586 9.22309 16.4572 9.16406 16.7766 9.16406H20.1099C20.8044 9.16406 21.3947 9.40712 21.8808 9.89323C22.3669 10.3793 22.6099 10.9696 22.6099 11.6641V13.9974C22.8599 14.2335 23.0613 14.5043 23.2141 14.8099C23.3669 15.1155 23.4433 15.4557 23.4433 15.8307V20.8307H21.7766V19.1641H8.44328V20.8307H6.77661ZM15.9433 13.3307H20.9433V11.6641C20.9433 11.428 20.8634 11.23 20.7037 11.0703C20.544 10.9106 20.3461 10.8307 20.1099 10.8307H16.7766C16.5405 10.8307 16.3426 10.9106 16.1829 11.0703C16.0231 11.23 15.9433 11.428 15.9433 11.6641V13.3307ZM9.27661 13.3307H14.2766V11.6641C14.2766 11.428 14.1968 11.23 14.037 11.0703C13.8773 10.9106 13.6794 10.8307 13.4433 10.8307H10.1099C9.87383 10.8307 9.67592 10.9106 9.51619 11.0703C9.35647 11.23 9.27661 11.428 9.27661 11.6641V13.3307ZM8.44328 17.4974H21.7766V15.8307C21.7766 15.5946 21.6967 15.3967 21.537 15.237C21.3773 15.0773 21.1794 14.9974 20.9433 14.9974H9.27661C9.0405 14.9974 8.84258 15.0773 8.68286 15.237C8.52314 15.3967 8.44328 15.5946 8.44328 15.8307V17.4974Z" fill="#F6841E"/>
</g>
</svg>
