<svg width="78" height="78" viewBox="0 0 78 78" fill="none" xmlns="http://www.w3.org/2000/svg">
<g filter="url(#filter0_d_765_122654)">
<rect x="24" y="20" width="30" height="30" rx="15" fill="white" shape-rendering="crispEdges"/>
<mask id="mask0_765_122654" style="mask-type:alpha" maskUnits="userSpaceOnUse" x="29" y="25" width="21" height="20">
<rect x="29.1094" y="25" width="20" height="20" fill="#D9D9D9"/>
</mask>
<g mask="url(#mask0_765_122654)">
<path d="M30.7734 40.8307V35.8307C30.7734 35.4557 30.8498 35.1155 31.0026 34.8099C31.1554 34.5043 31.3568 34.2335 31.6068 33.9974V31.6641C31.6068 30.9696 31.8498 30.3793 32.3359 29.8932C32.822 29.4071 33.4123 29.1641 34.1068 29.1641H37.4401C37.7595 29.1641 38.0582 29.2231 38.3359 29.3411C38.6137 29.4592 38.8707 29.6224 39.1068 29.8307C39.3429 29.6224 39.5998 29.4592 39.8776 29.3411C40.1554 29.2231 40.454 29.1641 40.7734 29.1641H44.1068C44.8012 29.1641 45.3915 29.4071 45.8776 29.8932C46.3637 30.3793 46.6068 30.9696 46.6068 31.6641V33.9974C46.8568 34.2335 47.0582 34.5043 47.2109 34.8099C47.3637 35.1155 47.4401 35.4557 47.4401 35.8307V40.8307H45.7734V39.1641H32.4401V40.8307H30.7734ZM39.9401 33.3307H44.9401V31.6641C44.9401 31.428 44.8602 31.23 44.7005 31.0703C44.5408 30.9106 44.3429 30.8307 44.1068 30.8307H40.7734C40.5373 30.8307 40.3394 30.9106 40.1797 31.0703C40.02 31.23 39.9401 31.428 39.9401 31.6641V33.3307ZM33.2734 33.3307H38.2734V31.6641C38.2734 31.428 38.1936 31.23 38.0339 31.0703C37.8741 30.9106 37.6762 30.8307 37.4401 30.8307H34.1068C33.8707 30.8307 33.6727 30.9106 33.513 31.0703C33.3533 31.23 33.2734 31.428 33.2734 31.6641V33.3307ZM32.4401 37.4974H45.7734V35.8307C45.7734 35.5946 45.6936 35.3967 45.5339 35.237C45.3741 35.0773 45.1762 34.9974 44.9401 34.9974H33.2734C33.0373 34.9974 32.8394 35.0773 32.6797 35.237C32.52 35.3967 32.4401 35.5946 32.4401 35.8307V37.4974Z" fill="#F6841E"/>
</g>
</g>
<defs>
<filter id="filter0_d_765_122654" x="0" y="0" width="78" height="78" filterUnits="userSpaceOnUse" color-interpolation-filters="sRGB">
<feFlood flood-opacity="0" result="BackgroundImageFix"/>
<feColorMatrix in="SourceAlpha" type="matrix" values="0 0 0 0 0 0 0 0 0 0 0 0 0 0 0 0 0 0 127 0" result="hardAlpha"/>
<feOffset dy="4"/>
<feGaussianBlur stdDeviation="12"/>
<feComposite in2="hardAlpha" operator="out"/>
<feColorMatrix type="matrix" values="0 0 0 0 0 0 0 0 0 0 0 0 0 0 0 0 0 0 0.14 0"/>
<feBlend mode="normal" in2="BackgroundImageFix" result="effect1_dropShadow_765_122654"/>
<feBlend mode="normal" in="SourceGraphic" in2="effect1_dropShadow_765_122654" result="shape"/>
</filter>
</defs>
</svg>
