<svg width="20" height="20" viewBox="0 0 20 20" fill="none" xmlns="http://www.w3.org/2000/svg">
<g id="Group 1000004393">
<circle id="Ellipse 20" cx="10" cy="10" r="10" fill="#E95F29" fill-opacity="0.2"/>
<g id="Group 1000004392">
<mask id="mask0_765_119385" style="mask-type:alpha" maskUnits="userSpaceOnUse" x="4" y="4" width="12" height="12">
<rect id="Bounding box" x="4" y="4" width="12" height="12" rx="6.00002" fill="#D9D9D9"/>
</mask>
<g mask="url(#mask0_765_119385)">
<g id="bed">
<mask id="mask1_765_119385" style="mask-type:alpha" maskUnits="userSpaceOnUse" x="4" y="4" width="12" height="12">
<rect id="Bounding box_2" x="4" y="4" width="12" height="12" fill="#D9D9D9"/>
</mask>
<g mask="url(#mask1_765_119385)">
<path id="bed_2" d="M5.525 13.5C5.38333 13.5 5.26042 13.4479 5.15625 13.3437C5.05208 13.2396 5 13.118 5 12.9789V10.525C5 10.3167 5.04583 10.1178 5.1375 9.92849C5.22917 9.73914 5.35 9.57131 5.5 9.425V8.025C5.5 7.60139 5.64948 7.24132 5.94844 6.94479C6.2474 6.64826 6.61042 6.5 7.0375 6.5H8.9875C9.18221 6.5 9.36422 6.53542 9.53354 6.60625C9.70285 6.67708 9.85833 6.77083 10 6.8875C10.1417 6.77083 10.3 6.67708 10.475 6.60625C10.65 6.53542 10.8333 6.5 11.025 6.5H12.95C13.375 6.5 13.7396 6.64826 14.0438 6.94479C14.3479 7.24132 14.5 7.60139 14.5 8.025V9.425C14.65 9.57131 14.7708 9.73914 14.8625 9.92849C14.9542 10.1178 15 10.3167 15 10.525V12.9789C15 13.118 14.9479 13.2396 14.8438 13.3437C14.7396 13.4479 14.6167 13.5 14.475 13.5C14.3333 13.5 14.2104 13.4479 14.1063 13.3437C14.0021 13.2396 13.95 13.1167 13.95 12.975V12.5375H6.05V12.975C6.05 13.1167 5.99792 13.2396 5.89375 13.3437C5.78958 13.4479 5.66667 13.5 5.525 13.5ZM10.525 8.9875H13.45V8.02916C13.45 7.8934 13.4021 7.7796 13.3063 7.68776C13.2104 7.59592 13.0917 7.55 12.95 7.55H11.025C10.8833 7.55 10.7646 7.59592 10.6688 7.68776C10.5729 7.7796 10.525 7.8934 10.525 8.02916V8.9875ZM6.55 8.9875H9.475V8.02874C9.475 7.89291 9.42819 7.77917 9.33456 7.6875C9.24094 7.59583 9.12493 7.55 8.98653 7.55H7.0326C6.8942 7.55 6.77917 7.59592 6.6875 7.68776C6.59583 7.7796 6.55 7.8934 6.55 8.02916V8.9875ZM6.05 11.4875H13.95V10.525C13.95 10.3869 13.9033 10.2711 13.8098 10.1776C13.7164 10.0842 13.6006 10.0375 13.4625 10.0375H6.54416C6.40415 10.0375 6.28679 10.0838 6.19208 10.1765C6.09736 10.2691 6.05 10.3839 6.05 10.5208V11.4875Z" fill="#1C1B1F"/>
</g>
</g>
</g>
</g>
</g>
</svg>
