<svg width="468" height="296" viewBox="0 0 468 296" fill="none" xmlns="http://www.w3.org/2000/svg">
<g clip-path="url(#clip0_765_127430)">
<path d="M341.482 71.8894C341.482 100.211 297.213 183.732 271.83 229.292C270.109 232.384 267.593 234.959 264.542 236.752C261.491 238.545 258.017 239.49 254.479 239.49C250.941 239.49 247.467 238.545 244.416 236.752C241.365 234.959 238.849 232.384 237.128 229.292C211.746 183.732 167.477 100.211 167.477 71.8894C167.477 32.186 206.429 0 254.479 0C302.529 0 341.482 32.186 341.482 71.8894Z" fill="#E95F29"/>
<path d="M254.889 118.455C281.058 118.455 302.271 97.2412 302.271 71.073C302.271 44.9049 281.058 23.6914 254.889 23.6914C228.721 23.6914 207.508 44.9049 207.508 71.073C207.508 97.2412 228.721 118.455 254.889 118.455Z" fill="white"/>
<path d="M57.1687 113.945C72.8424 113.945 85.5484 101.239 85.5484 85.5652C85.5484 69.8916 72.8424 57.1855 57.1687 57.1855C41.4951 57.1855 28.7891 69.8916 28.7891 85.5652C28.7891 101.239 41.4951 113.945 57.1687 113.945Z" fill="#FF6584"/>
<path d="M254.478 295.194C292.418 295.194 323.175 292.82 323.175 289.891C323.175 286.962 292.418 284.588 254.478 284.588C216.538 284.588 185.781 286.962 185.781 289.891C185.781 292.82 216.538 295.194 254.478 295.194Z" fill="#E95F29"/>
<path opacity="0.4" d="M51.3946 110.802C52.8389 101.901 46.7944 93.5148 37.8937 92.0704C28.9929 90.626 20.6066 96.6706 19.1622 105.571C17.7178 114.472 23.7623 122.858 32.6631 124.303C41.5638 125.747 49.9502 119.703 51.3946 110.802Z" fill="#E95F29"/>
<path d="M417.263 192.411C288.687 144.213 131.87 191.202 41.3301 287.321C40.8155 287.861 40.3008 288.408 39.8025 288.955H38.4219C38.8957 288.408 39.3858 287.861 39.8678 287.321C132.287 183.891 287.02 142.669 417.263 192.411Z" fill="#3F3D56"/>
<path d="M452.394 208.397C441.029 202.336 429.294 196.997 417.258 192.41C429.325 196.921 441.065 202.263 452.394 208.397Z" fill="#3F3D56"/>
<path opacity="0.4" d="M382.024 160.31C391.914 160.31 399.931 152.293 399.931 142.403C399.931 132.513 391.914 124.496 382.024 124.496C372.134 124.496 364.117 132.513 364.117 142.403C364.117 152.293 372.134 160.31 382.024 160.31Z" fill="#E95F29"/>
<path d="M384.019 280.142C385.403 285.257 390.143 288.425 390.143 288.425C390.143 288.425 392.639 283.299 391.256 278.184C389.872 273.069 385.132 269.9 385.132 269.9C385.132 269.9 382.636 275.026 384.019 280.142Z" fill="#3F3D56"/>
<path d="M386.052 279.04C389.85 282.737 390.314 288.419 390.314 288.419C390.314 288.419 384.621 288.108 380.824 284.412C377.026 280.716 376.562 275.033 376.562 275.033C376.562 275.033 382.255 275.344 386.052 279.04Z" fill="#E95F29"/>
<path d="M2.7437 209.015V216.907L2.35156 217.332V208.934C2.48227 208.958 2.61301 208.991 2.7437 209.015Z" fill="#3F3D56"/>
<path d="M27.8886 287.316C27.7743 287.504 27.6517 287.692 27.5292 287.88H2.35156V209.406L2.7437 209.014L6.08491 212.813V207.258H16.7049V224.887L27.4312 237.067L27.5292 237.182C27.6599 237.59 27.7824 237.999 27.905 238.407C27.9058 238.413 27.9087 238.419 27.9131 238.424C29.5218 243.571 30.8418 248.805 31.8671 254.1C34.2034 266.591 33.8522 278.044 27.8886 287.316Z" fill="#CCCCCC"/>
<path d="M11.1893 252.391H4.42969V258.024H11.1893V252.391Z" fill="#3F3D56"/>
<path d="M11.1893 262.531H4.42969V268.164H11.1893V262.531Z" fill="#3F3D56"/>
<path d="M219.419 241.688L216.039 236.055L247.584 209.016C270.905 197.791 299.016 201.03 328.7 209.016V216.902L299.408 248.448L265.609 255.207L219.419 241.688Z" fill="#3F3D56"/>
<path d="M342.657 224.885C348.258 218.654 349.037 212.729 342.657 207.258H332.037V212.816L328.694 209.017L301.655 236.056L297.148 240.562L291.516 263.095L301.655 287.879H353.479V237.183L342.657 224.885Z" fill="#CCCCCC"/>
<path d="M216.036 236.055H301.657V287.878H216.036C205.677 276.671 211.058 256.245 216.036 236.055Z" fill="#F2F2F2"/>
<path d="M289.83 252.391H271.805V268.163H289.83V252.391Z" fill="#3F3D56"/>
<path d="M264.483 251.828H248.711V287.879H264.483V251.828Z" fill="#CCCCCC"/>
<path d="M230.681 257.461V251.828H223.922V257.461H230.117H230.681Z" fill="#3F3D56"/>
<path d="M230.117 261.967H223.922V267.6H230.681V261.967H230.117Z" fill="#3F3D56"/>
<path d="M241.947 251.828H235.188V257.461H241.947V251.828Z" fill="#3F3D56"/>
<path d="M241.947 261.967H235.188V267.6H241.947V261.967Z" fill="#3F3D56"/>
<path d="M325.877 258.024V252.391H319.117V258.024H325.314H325.877Z" fill="#3F3D56"/>
<path d="M325.314 262.531H319.117V268.164H325.877V262.531H325.314Z" fill="#3F3D56"/>
<path d="M337.142 252.391H330.383V258.024H337.142V252.391Z" fill="#3F3D56"/>
<path d="M337.142 262.531H330.383V268.164H337.142V262.531Z" fill="#3F3D56"/>
<path d="M66.9608 147.055L61.3281 142.548L92.8729 114.383H172.861V139.168L121.038 174.093L66.9608 147.055Z" fill="#3F3D56"/>
<path d="M187.442 130.182V114.946H176.822V118.677L172.859 114.383L146.947 142.548L136.808 149.308L121.086 264.17L144.796 287.88H199.897C208.34 245.41 215.035 201.78 199.897 143.674L187.442 130.182Z" fill="#CCCCCC"/>
<path d="M61.3257 142.547H146.947V287.878H61.3257C51.9563 231.418 47.3803 179.06 61.3257 142.547Z" fill="#F2F2F2"/>
<path d="M110.335 252.391H94.5625V287.879H110.335V252.391Z" fill="#CCCCCC"/>
<path d="M77.6655 262.531V256.898H70.9062V262.531H77.1026H77.6655Z" fill="#3F3D56"/>
<path d="M77.1026 267.037H70.9062V272.671H77.6655V267.037H77.1026Z" fill="#3F3D56"/>
<path d="M88.9315 256.898H82.1719V262.531H88.9315V256.898Z" fill="#3F3D56"/>
<path d="M123.29 267.037H117.094V272.671H123.853V267.037H123.29Z" fill="#3F3D56"/>
<path d="M135.119 256.898H128.359V262.531H135.119V256.898Z" fill="#3F3D56"/>
<path d="M135.119 267.037H128.359V272.67H135.119V267.037Z" fill="#3F3D56"/>
<path d="M171.173 149.871V144.238H164.414V149.871H170.61H171.173Z" fill="#3F3D56"/>
<path d="M170.61 154.377H164.414V160.01H171.173V154.377H170.61Z" fill="#3F3D56"/>
<path d="M182.439 144.238H175.68V149.871H182.439V144.238Z" fill="#3F3D56"/>
<path d="M182.439 154.377H175.68V160.01H182.439V154.377Z" fill="#3F3D56"/>
<path d="M171.173 181.417V175.783H164.414V181.417H170.61H171.173Z" fill="#3F3D56"/>
<path d="M170.61 185.922H164.414V191.555H171.173V185.922H170.61Z" fill="#3F3D56"/>
<path d="M182.439 175.783H175.68V181.416H182.439V175.783Z" fill="#3F3D56"/>
<path d="M182.439 185.922H175.68V191.555H182.439V185.922Z" fill="#3F3D56"/>
<path d="M171.173 212.962V207.328H164.414V212.962H170.61H171.173Z" fill="#3F3D56"/>
<path d="M170.61 217.467H164.414V223.099H171.173V217.467H170.61Z" fill="#3F3D56"/>
<path d="M182.439 207.328H175.68V212.961H182.439V207.328Z" fill="#3F3D56"/>
<path d="M182.439 217.467H175.68V223.1H182.439V217.467Z" fill="#3F3D56"/>
<path d="M171.173 244.505V238.871H164.414V244.505H170.61H171.173Z" fill="#3F3D56"/>
<path d="M170.61 249.012H164.414V254.644H171.173V249.012H170.61Z" fill="#3F3D56"/>
<path d="M182.439 238.873H175.68V244.506H182.439V238.873Z" fill="#3F3D56"/>
<path d="M182.439 249.012H175.68V254.645H182.439V249.012Z" fill="#3F3D56"/>
<path d="M70.9062 149.871H136.249V163.39C115.305 157.61 93.4638 158.025 70.9062 163.39V149.871Z" fill="#3F3D56"/>
<path d="M70.9062 176.908C91.3005 182.917 113.081 182.917 136.249 176.908V190.427H70.9062V176.908Z" fill="#3F3D56"/>
<path d="M70.9062 203.947H136.249V217.467C113.98 210.356 92.1765 210.021 70.9062 217.467V203.947Z" fill="#3F3D56"/>
<path d="M70.9062 230.986C92.2166 239.199 114.017 238.858 136.249 230.986V244.506H70.9062V230.986Z" fill="#3F3D56"/>
<path d="M422.088 207.498H467.999V229.62L463.899 230.903L450.256 235.161L428.852 230.203L407.474 225.249L396.184 222.633L390.547 220.548C395.236 214.114 403.765 209.054 422.088 207.498Z" fill="#3F3D56"/>
<path d="M468.003 220.549V287.881H390.55C390.526 287.839 390.509 287.801 390.485 287.759V287.756C390.466 287.709 390.445 287.663 390.419 287.619C389.21 285.186 388.127 282.758 387.168 280.337C379.04 259.85 379.922 239.904 390.55 220.549H468.003Z" fill="#F2F2F2"/>
<path d="M439.554 252.391H423.781V287.879H439.554V252.391Z" fill="#CCCCCC"/>
<path d="M406.884 262.531V256.898H400.125V262.531H406.321H406.884Z" fill="#3F3D56"/>
<path d="M406.321 267.037H400.125V272.671H406.884V267.037H406.321Z" fill="#3F3D56"/>
<path d="M418.15 256.898H411.391V262.531H418.15V256.898Z" fill="#3F3D56"/>
<path d="M418.15 267.037H411.391V272.67H418.15V267.037Z" fill="#3F3D56"/>
<path d="M453.072 262.531V256.898H446.312V262.531H452.509H453.072Z" fill="#3F3D56"/>
<path d="M452.509 267.037H446.312V272.671H453.072V267.037H452.509Z" fill="#3F3D56"/>
<path d="M464.338 256.898H457.578V262.531H464.338V256.898Z" fill="#3F3D56"/>
<path d="M464.338 267.037H457.578V272.67H464.338V267.037Z" fill="#3F3D56"/>
<path d="M407.477 181.357H417.186C426.763 181.357 435.948 185.162 442.72 191.934C449.491 198.705 453.296 207.89 453.296 217.467H407.477V181.357Z" fill="#3F3D56"/>
<path d="M113.383 83.3262H123.093C132.669 83.3262 141.854 87.1305 148.626 93.9023C155.398 100.674 159.202 109.859 159.202 119.436H113.383V83.3262Z" fill="#3F3D56"/>
<path d="M268.602 174.006H278.311C287.888 174.006 297.073 177.81 303.845 184.582C310.616 191.354 314.421 200.538 314.421 210.115H268.602V174.006Z" fill="#3F3D56"/>
<path d="M453.296 230.986H407.477V244.506H453.296V230.986Z" fill="#3F3D56"/>
<path d="M467.999 287.32H2.35156V288.954H467.999V287.32Z" fill="#3F3D56"/>
<path d="M45.2979 222.779H43.6641V287.316H45.2979V222.779Z" fill="#3F3D56"/>
<path d="M60.3804 231.004C60.4844 253.571 44.6074 271.939 44.6074 271.939C44.6074 271.939 24.2747 253.328 28.4576 231.152C32.6645 208.849 45.7756 190.311 44.2307 190.217C44.2307 190.217 60.2764 208.437 60.3804 231.004Z" fill="#E95F29"/>
<path d="M208.681 222.779H207.047V287.316H208.681V222.779Z" fill="#3F3D56"/>
<path d="M223.759 231.004C225.232 253.524 207.986 271.939 207.986 271.939C207.986 271.939 191.94 253.719 191.836 231.152C191.732 208.585 207.61 190.217 207.61 190.217C206.062 196.403 222.568 212.784 223.759 231.004Z" fill="#E95F29"/>
<path d="M102.531 117.872L173.501 114.4L203.272 139.25L198.009 144.002L150.865 142.941L102.531 117.872Z" fill="#3F3D56"/>
<path d="M31.7212 233.197L27.898 236.652L27.4323 237.069L26.4602 237.951L2.35275 237.412V208.934C1.5685 208.762 0.784248 208.599 0 208.444L1.95246 208.346L2.35275 208.681L6.0861 211.793L16.7061 220.665L28.5679 230.566L31.7212 233.197Z" fill="#3F3D56"/>
<path d="M257.75 211.82L328.72 208.348L358.491 233.198L353.227 237.95L306.083 236.889L257.75 211.82Z" fill="#3F3D56"/>
</g>
<defs>
<clipPath id="clip0_765_127430">
<rect width="468" height="295.194" fill="white"/>
</clipPath>
</defs>
</svg>
