<svg width="468" height="359" viewBox="0 0 468 359" fill="none" xmlns="http://www.w3.org/2000/svg">
<g clip-path="url(#clip0_765_127367)">
<path d="M317.631 357.854C317.175 358.244 316.704 358.623 316.229 358.998H258.475C258.144 358.623 257.812 358.244 257.486 357.854C254.819 354.654 252.472 351.201 250.477 347.544C245.735 338.998 244.102 327.794 244.102 316.384C244.102 315.687 244.106 314.99 244.121 314.293C244.174 311.092 244.352 307.886 244.616 304.733C244.664 304.185 244.712 303.642 244.765 303.099C245.192 298.576 245.793 294.173 246.475 290.059C246.561 289.535 246.648 289.016 246.739 288.501C248.129 280.33 249.993 272.246 252.321 264.291C252.321 264.291 252.398 264.31 252.547 264.349C252.975 264.469 253.998 264.752 255.502 265.199C259.643 266.43 267.42 268.91 276.389 272.597C276.879 272.794 277.374 273 277.874 273.212C285.462 276.342 292.806 280.032 299.847 284.252C300.284 284.517 300.717 284.786 301.149 285.055V285.094L300.203 315.745L308.658 290.227C310.382 291.539 312.03 292.899 313.601 294.308C314.033 294.692 314.466 295.086 314.884 295.495C318.453 298.768 321.498 302.569 323.915 306.766C336.564 329.582 331.256 346.357 317.631 357.854Z" fill="#F9CEBD"/>
<path d="M309.486 358.998H307.949C307.94 358.619 307.925 358.239 307.901 357.854C307.282 346.324 302.338 333.591 295.608 321.301C295.368 320.854 295.123 320.397 294.863 319.95C291.596 314.106 287.955 308.386 284.194 302.95C283.905 302.527 283.607 302.099 283.309 301.676C278.304 294.529 273.135 287.915 268.465 282.268C268.138 281.864 267.802 281.47 267.471 281.08C260.548 272.775 254.836 266.723 252.545 264.349C252.204 263.998 251.94 263.729 251.757 263.541C251.589 263.359 251.488 263.263 251.469 263.243L252.007 262.705L252.012 262.691L252.559 262.152C252.578 262.176 252.91 262.494 253.496 263.104C253.991 263.609 254.668 264.315 255.499 265.2C258.401 268.276 263.2 273.51 268.753 280.148C269.075 280.532 269.407 280.931 269.738 281.33C273.529 285.911 277.636 291.102 281.705 296.682C282.728 298.086 283.721 299.478 284.684 300.859C284.986 301.282 285.284 301.705 285.572 302.128C289.641 308.002 293.195 313.651 296.232 319.076L296.991 320.436C304.735 334.567 308.905 347.083 309.443 357.854C309.462 358.239 309.477 358.619 309.486 358.998Z" fill="white"/>
<path d="M277.235 271.471C276.961 271.85 276.682 272.225 276.389 272.595C274.186 275.436 271.62 277.975 268.756 280.146C268.338 280.454 267.91 280.771 267.473 281.079C266.281 281.911 265.046 282.681 263.774 283.386C258.533 286.306 252.721 288.051 246.739 288.5C246.547 288.519 246.35 288.534 246.158 288.543C246.071 289.058 245.99 289.572 245.898 290.096C246.091 290.086 246.283 290.077 246.475 290.057C252.811 289.645 258.976 287.827 264.523 284.737C265.881 283.983 267.197 283.159 268.468 282.266C268.9 281.963 269.323 281.646 269.741 281.329C272.804 279.001 275.54 276.27 277.874 273.211C278.152 272.841 278.426 272.466 278.695 272.091C278.196 271.879 277.711 271.673 277.235 271.471Z" fill="white"/>
<path d="M300.371 283.166C300.203 283.531 300.025 283.892 299.847 284.252C296.422 291.081 291.175 296.829 284.686 300.859C284.235 301.142 283.778 301.416 283.312 301.676C283.173 301.758 283.024 301.844 282.885 301.921C277.084 305.141 270.598 306.929 263.968 307.133C257.337 307.338 250.753 305.955 244.765 303.099C244.621 303.031 244.482 302.964 244.342 302.897C244.289 303.445 244.241 303.993 244.203 304.545C244.338 304.608 244.477 304.675 244.616 304.733C250.776 307.574 257.519 308.922 264.297 308.668C271.076 308.415 277.699 306.566 283.629 303.272C283.821 303.166 284.009 303.06 284.196 302.95C284.662 302.68 285.123 302.406 285.575 302.128C292.225 297.98 297.611 292.089 301.149 285.093C301.337 284.733 301.515 284.368 301.687 283.998C301.25 283.719 300.813 283.44 300.371 283.166Z" fill="white"/>
<path d="M313.855 293.215C313.773 293.58 313.691 293.945 313.6 294.306C311.129 304.452 304.928 313.295 296.234 319.074C295.787 319.377 295.326 319.665 294.865 319.949C294.37 320.247 293.875 320.545 293.366 320.823C285.541 325.157 276.532 326.861 267.666 325.685C258.8 324.509 250.546 320.515 244.12 314.291C244.009 314.19 243.904 314.085 243.798 313.979C243.798 314.695 243.793 315.402 243.803 316.113C243.899 316.204 244 316.296 244.101 316.382C250.791 322.447 259.211 326.266 268.179 327.305C277.148 328.343 286.216 326.549 294.115 322.174C294.624 321.895 295.124 321.607 295.609 321.299C296.08 321.02 296.536 320.732 296.993 320.434C305.811 314.597 312.178 305.72 314.883 295.493C314.974 295.147 315.065 294.801 315.147 294.45C314.729 294.027 314.292 293.628 313.855 293.215Z" fill="white"/>
<path d="M273.579 214.947H0V9.58398H273.579V214.947Z" fill="white"/>
<path d="M66.2961 52.4453C72.3104 52.4453 77.1859 47.5672 77.1859 41.5498C77.1859 35.5324 72.3104 30.6543 66.2961 30.6543C60.2818 30.6543 55.4062 35.5324 55.4062 41.5498C55.4062 47.5672 60.2818 52.4453 66.2961 52.4453Z" fill="#E6E6E6"/>
<path d="M91.4445 34.2852C90.9637 34.286 90.5029 34.4777 90.1633 34.8182C89.8236 35.1586 89.6328 35.62 89.6328 36.1011C89.6328 36.5821 89.8236 37.0435 90.1633 37.384C90.5029 37.7244 90.9637 37.9161 91.4445 37.917H223.959C224.439 37.9161 224.9 37.7244 225.24 37.384C225.58 37.0435 225.77 36.5821 225.77 36.1011C225.77 35.62 225.58 35.1586 225.24 34.8182C224.9 34.4777 224.439 34.286 223.959 34.2852H91.4445Z" fill="#E6E6E6"/>
<path d="M91.4438 45.1816C90.9624 45.1806 90.5004 45.371 90.1593 45.7108C89.8182 46.0506 89.626 46.5121 89.625 46.9937C89.624 47.4753 89.8142 47.9376 90.1539 48.2789C90.4935 48.6202 90.9548 48.8125 91.4362 48.8135H175.213C175.452 48.8139 175.688 48.7673 175.908 48.6762C176.129 48.5851 176.329 48.4514 176.498 48.2828C176.667 48.1141 176.801 47.9138 176.893 47.6932C176.984 47.4727 177.031 47.2363 177.031 46.9976C177.031 46.7588 176.984 46.5224 176.893 46.3019C176.801 46.0814 176.667 45.881 176.498 45.7124C176.329 45.5437 176.129 45.41 175.908 45.3189C175.688 45.2279 175.452 45.1812 175.213 45.1816H91.4438Z" fill="#E6E6E6"/>
<path d="M273.579 214.947H0V9.58398H273.579V214.947ZM3.06203 211.883H270.517V12.6476H3.06203V211.883Z" fill="#E6E6E6"/>
<path d="M15.2891 72.2109V194.357H258.285V72.2109H15.2891ZM257.117 102.455H197.828V73.3798H257.117V102.455ZM137.371 102.455V73.3798H196.66V102.455H137.371ZM196.66 103.624V132.7H137.371V103.624H196.66ZM136.203 102.455H76.9144V73.3798H136.203V102.455ZM136.203 103.624V132.7H76.9144V103.624H136.203ZM75.7461 132.7H16.4573V103.624H75.7461V132.7ZM75.7461 133.868V162.944H16.4573V133.868H75.7461ZM76.9144 133.868H136.203V162.944H76.9144V133.868ZM136.203 164.113V193.188H76.9144V164.113H136.203ZM137.371 164.113H196.66V193.188H137.371V164.113ZM137.371 162.944V133.868H196.66V162.944H137.371ZM197.828 133.868H257.117V162.944H197.828V133.868ZM197.828 132.7V103.624H257.117V132.7H197.828ZM75.7461 73.3798V102.455H16.4573V73.3798H75.7461ZM16.4573 164.113H75.7461V193.188H16.4573V164.113ZM197.828 193.188V164.113H257.117V193.188H197.828Z" fill="#E4E4E4"/>
<path d="M115.045 105.072L90.8663 104.525C88.4479 95.1513 89.5367 86.2263 91.4666 78.002L115.645 78.5497C113.199 87.1965 112.993 96.3238 115.045 105.072Z" fill="#E95F29"/>
<path d="M95.6094 83.8638L95.6222 82.9434L108.149 83.391L108.135 84.3115L95.6094 83.8638Z" fill="white"/>
<path d="M95.5547 87.5455L95.5675 86.625L108.094 87.0733L108.081 87.9937L95.5547 87.5455Z" fill="white"/>
<path d="M95.5 91.2271L95.5134 90.3066L108.039 90.7549L108.027 91.6754L95.5 91.2271Z" fill="white"/>
<path d="M95.4453 94.9088L95.4582 93.9883L107.985 94.4365L107.971 95.357L95.4453 94.9088Z" fill="white"/>
<path d="M95.3984 98.5904L95.4113 97.6699L107.938 98.1182L107.924 99.0387L95.3984 98.5904Z" fill="white"/>
<path d="M62.4746 172.865L38.296 172.318C35.8775 162.944 36.9664 154.019 38.8963 145.795L63.0748 146.343C60.6292 154.989 60.4226 164.117 62.4746 172.865Z" fill="#F0F0F0"/>
<path d="M43.0391 151.657L43.0519 150.736L55.5785 151.184L55.5651 152.104L43.0391 151.657Z" fill="white"/>
<path d="M42.9844 155.34L42.9972 154.42L55.5232 154.868L55.5104 155.789L42.9844 155.34Z" fill="white"/>
<path d="M42.9297 159.022L42.9431 158.102L55.4691 158.55L55.4563 159.47L42.9297 159.022Z" fill="white"/>
<path d="M42.875 162.704L42.8879 161.783L55.4144 162.231L55.401 163.152L42.875 162.704Z" fill="white"/>
<path d="M42.8281 166.385L42.841 165.465L55.3676 165.913L55.3541 166.834L42.8281 166.385Z" fill="white"/>
<path d="M188.646 141.891L164.468 141.343C162.049 131.97 163.138 123.045 165.068 114.82L189.247 115.368C186.801 124.015 186.595 133.142 188.646 141.891Z" fill="#F0F0F0"/>
<path d="M169.211 120.682L169.224 119.762L181.75 120.209L181.737 121.13L169.211 120.682Z" fill="white"/>
<path d="M169.156 124.364L169.169 123.443L181.695 123.892L181.682 124.812L169.156 124.364Z" fill="white"/>
<path d="M169.102 128.047L169.115 127.127L181.641 127.575L181.628 128.496L169.102 128.047Z" fill="white"/>
<path d="M169.047 131.729L169.06 130.809L181.586 131.257L181.573 132.177L169.047 131.729Z" fill="white"/>
<path d="M169 135.411L169.013 134.49L181.539 134.938L181.526 135.859L169 135.411Z" fill="white"/>
<path d="M178.131 136.047L153.952 135.499C151.534 126.126 152.623 117.201 154.553 108.977L178.731 109.524C176.285 118.171 176.079 127.298 178.131 136.047Z" fill="#E95F29"/>
<path d="M158.695 114.838L158.708 113.918L171.235 114.366L171.221 115.286L158.695 114.838Z" fill="white"/>
<path d="M158.641 118.52L158.653 117.6L171.179 118.048L171.167 118.968L158.641 118.52Z" fill="white"/>
<path d="M158.586 122.202L158.599 121.281L171.125 121.73L171.113 122.65L158.586 122.202Z" fill="white"/>
<path d="M158.531 125.883L158.544 124.963L171.071 125.411L171.057 126.332L158.531 125.883Z" fill="white"/>
<path d="M158.484 129.567L158.497 128.646L171.024 129.095L171.01 130.015L158.484 129.567Z" fill="white"/>
<path d="M267.303 189.434L243.124 188.886C240.706 179.513 241.795 170.588 243.724 162.363L267.903 162.911C265.457 171.558 265.251 180.685 267.303 189.434Z" fill="#E95F29"/>
<path d="M247.867 168.225L247.881 167.305L260.407 167.753L260.393 168.673L247.867 168.225Z" fill="white"/>
<path d="M247.82 171.907L247.833 170.986L260.36 171.435L260.346 172.355L247.82 171.907Z" fill="white"/>
<path d="M247.766 175.59L247.779 174.67L260.305 175.118L260.292 176.038L247.766 175.59Z" fill="white"/>
<path d="M247.711 179.272L247.724 178.352L260.25 178.799L260.237 179.72L247.711 179.272Z" fill="white"/>
<path d="M247.656 182.954L247.669 182.033L260.196 182.481L260.182 183.402L247.656 182.954Z" fill="white"/>
<path d="M241.217 109.748L217.038 109.201C214.62 99.827 215.709 90.9021 217.639 82.6777L241.817 83.2254C239.371 91.8723 239.165 101 241.217 109.748Z" fill="#F0F0F0"/>
<path d="M221.781 88.5396L221.794 87.6191L234.321 88.0668L234.307 88.9873L221.781 88.5396Z" fill="white"/>
<path d="M221.727 92.2213L221.739 91.3008L234.265 91.749L234.253 92.6695L221.727 92.2213Z" fill="white"/>
<path d="M221.672 95.9029L221.685 94.9824L234.211 95.4307L234.198 96.3512L221.672 95.9029Z" fill="white"/>
<path d="M221.617 99.5845L221.63 98.6641L234.157 99.1123L234.143 100.033L221.617 99.5845Z" fill="white"/>
<path d="M221.57 103.266L221.583 102.346L234.11 102.794L234.096 103.714L221.57 103.266Z" fill="white"/>
<path d="M266.003 169.888C266.837 169.682 267.616 169.296 268.284 168.757C268.953 168.218 269.495 167.539 269.873 166.767C270.251 165.996 270.455 165.151 270.472 164.292C270.488 163.433 270.316 162.581 269.967 161.796L285.212 147.53L274.665 144.994L261.805 158.93C260.526 159.603 259.537 160.723 259.028 162.076C258.518 163.43 258.522 164.923 259.04 166.274C259.557 167.625 260.552 168.739 261.835 169.405C263.119 170.071 264.602 170.242 266.003 169.888Z" fill="#FFB6B6"/>
<path d="M273.875 158.397L266.766 148.367L293.471 120.732L299.672 77.1708C299.978 75.0176 300.755 72.9584 301.946 71.1392C303.138 69.3201 304.715 67.7857 306.566 66.6449C308.416 65.5042 310.496 64.7851 312.655 64.5387C314.815 64.2924 317.003 64.5247 319.063 65.2193C322.782 66.4781 325.85 69.1616 327.594 72.6811C329.338 76.2006 329.616 80.2686 328.366 83.9925L312.545 130.956L273.875 158.397Z" fill="#E4E4E4"/>
<path d="M324.022 344.006L316.13 344.006L312.375 313.547L324.024 313.547L324.022 344.006Z" fill="#FFB6B6"/>
<path d="M328.267 359H322.667L321.667 353.71L319.107 359H304.253C303.541 359 302.848 358.772 302.274 358.35C301.701 357.928 301.277 357.333 301.065 356.653C300.853 355.973 300.864 355.243 301.097 354.57C301.329 353.896 301.77 353.315 302.356 352.91L314.218 344.714V339.365L326.694 340.11L328.267 359Z" fill="#2F2E41"/>
<path d="M372.712 335.97L365.779 339.744L347.93 314.785L358.162 309.215L372.712 335.97Z" fill="#FFB6B6"/>
<path d="M383.607 347.109L378.687 349.788L375.282 345.619L375.56 351.49L362.513 358.593C361.888 358.934 361.17 359.065 360.465 358.969C359.759 358.872 359.103 358.553 358.592 358.057C358.081 357.561 357.742 356.914 357.624 356.212C357.506 355.509 357.616 354.787 357.937 354.152L364.441 341.279L361.886 336.582L373.201 331.27L383.607 347.109Z" fill="#2F2E41"/>
<path d="M327.341 333.16H311.03V275.047L300.932 237.161C293.685 210.067 291.759 181.824 295.261 153.996L295.275 153.882L295.362 153.808C295.622 153.59 321.466 132.209 337.814 148.565C348.833 159.59 338.479 199.233 337.9 201.409V269.749L327.341 333.16Z" fill="#2F2E41"/>
<path d="M290.297 164.55L295.554 111.952C294.871 110.517 285.04 101.432 295.319 85.4579L306.423 59.3819L327.216 59.0586L327.303 59.1462C332.195 64.0299 335.803 70.0488 337.805 76.6662C339.808 83.2836 340.143 90.2939 338.78 97.0723L332.653 127.724L337.962 148.97L290.297 164.55Z" fill="#E4E4E4"/>
<path d="M317.617 275.348L351.125 322.504L363.979 313.36L335.994 255.822L317.617 275.348Z" fill="#2F2E41"/>
<path d="M314.88 54.0826C325.484 54.0826 334.08 45.4819 334.08 34.8724C334.08 24.2628 325.484 15.6621 314.88 15.6621C304.276 15.6621 295.68 24.2628 295.68 34.8724C295.68 45.4819 304.276 54.0826 314.88 54.0826Z" fill="#FFB6B6"/>
<path opacity="0.1" d="M310.155 104.355L315.412 135.915L310.155 162.214H299.641L304.42 135.915L310.155 104.355Z" fill="black"/>
<path d="M315.177 189.31C315.816 188.736 316.321 188.029 316.657 187.239C316.993 186.448 317.152 185.593 317.123 184.735C317.093 183.876 316.875 183.034 316.486 182.269C316.096 181.503 315.543 180.833 314.866 180.304L321.602 160.537L311.104 163.268L306.317 181.621C305.504 182.817 305.159 184.271 305.347 185.705C305.534 187.139 306.241 188.455 307.333 189.403C308.425 190.351 309.827 190.865 311.272 190.848C312.718 190.831 314.107 190.284 315.177 189.31Z" fill="#FFB6B6"/>
<path d="M316.71 175.463L305.717 169.964L316.272 133.003L301.243 91.6512C300.5 89.6072 300.216 87.4247 300.411 85.2586C300.606 83.0924 301.276 80.9958 302.372 79.1175C303.468 77.2392 304.963 75.6254 306.753 74.3906C308.542 73.1558 310.582 72.3303 312.726 71.9727C316.599 71.3311 320.569 72.2531 323.764 74.5364C326.959 76.8198 329.118 80.2779 329.768 84.1521L337.911 133.037L316.71 175.463Z" fill="#E4E4E4"/>
<path d="M467.997 358.303C467.997 358.394 467.979 358.485 467.944 358.569C467.91 358.654 467.858 358.731 467.794 358.795C467.729 358.86 467.652 358.911 467.568 358.946C467.484 358.981 467.393 358.999 467.302 358.998H89.2029C89.0186 358.998 88.8418 358.925 88.7114 358.795C88.581 358.664 88.5078 358.487 88.5078 358.303C88.5078 358.118 88.581 357.942 88.7114 357.811C88.8418 357.681 89.0186 357.607 89.2029 357.607H467.302C467.486 357.608 467.662 357.681 467.793 357.812C467.923 357.942 467.996 358.119 467.997 358.303Z" fill="#CACACA"/>
<path d="M389.551 33.9328C387.129 37.8672 381.998 39.6017 377.447 38.8139C372.896 38.0261 368.941 35.0872 366.02 31.5076C363.099 27.928 361.079 23.7145 359.091 19.5436C357.103 15.3727 355.091 11.156 352.185 7.56456C349.279 3.97307 345.345 1.01156 340.801 0.186693C338.328 -0.262221 335.526 0.0341537 333.722 1.78478C332.478 3.09693 331.798 4.8455 331.83 6.65386C331.044 6.37681 330.201 6.29757 329.377 6.42316C328.552 6.54875 327.772 6.87529 327.103 7.37401C326.435 7.87273 325.899 8.52831 325.544 9.28297C325.188 10.0376 325.024 10.8682 325.065 11.7015C324.997 11.7002 324.931 11.6957 324.864 11.6957C316.396 6.87904 303.544 9.67713 303.544 14.937C298.897 14.937 293.219 19.5279 293.219 26.4992C302.827 26.4992 308.481 38.8159 302.872 47.6472C301.424 49.8998 299.828 52.0534 298.094 54.0939H310.109C311.117 52.6468 311.725 50.9591 311.872 49.2014C312.313 50.7983 312.577 52.4391 312.658 54.0939C312.658 54.0939 345.477 58.325 337.006 25.5953C337.567 25.5673 338.112 25.402 338.594 25.1139C339.873 24.3426 340.57 22.7113 340.692 21.056C341.008 21.1407 341.324 21.2252 341.639 21.3095C343.897 21.9193 346.242 22.7096 347.792 24.4621C350.411 27.4241 349.86 31.9199 350.811 35.7587C351.958 40.388 355.39 44.1324 359.201 46.9964C363.297 50.0735 368.081 52.4113 373.18 52.8965C378.278 53.3818 383.704 51.8305 387.236 48.1205C390.769 44.4104 391.999 38.4337 389.551 33.9328Z" fill="#2F2E41"/>
</g>
<defs>
<clipPath id="clip0_765_127367">
<rect width="468" height="359" fill="white"/>
</clipPath>
</defs>
</svg>
