<svg width="468" height="345" viewBox="0 0 468 345" fill="none" xmlns="http://www.w3.org/2000/svg">
<g clip-path="url(#clip0_765_127258)">
<path d="M240.056 39.5926C229.124 39.5926 220.261 30.7299 220.261 19.7973C220.261 8.86462 229.124 0.00195312 240.056 0.00195312C250.989 0.00195312 259.852 8.86462 259.852 19.7973C259.852 30.7299 250.989 39.5926 240.056 39.5926Z" fill="#FF6884"/>
<path d="M259.604 145.328L281.973 145.636L290.941 45.6394C291.158 43.2123 290.374 40.7582 288.79 38.9068L266.794 13.2099C263.715 9.61299 258.48 8.96401 254.616 11.7017L227.067 31.2207C224.819 32.813 223.427 35.3026 223.246 38.0511L218.293 113.393L205.833 128.141L205.807 128.173L202.619 144.541L259.604 145.328Z" fill="#E6E6E6"/>
<path d="M264.289 36.4604L264.649 31.8192C264.745 30.5941 263.825 29.52 262.6 29.4249L256.079 28.9189C254.854 28.8238 253.78 29.7432 253.685 30.9682L253.325 35.6095C253.23 36.8346 254.149 37.9086 255.374 38.0037L261.895 38.5098C263.12 38.6048 264.194 37.6855 264.289 36.4604Z" fill="#E95F29"/>
<path d="M275.278 73.5566L276.61 56.3845C276.706 55.1595 275.786 54.0854 274.561 53.9903L264.907 53.2411C263.682 53.1461 262.608 54.0654 262.513 55.2905L261.181 72.4625C261.086 73.6876 262.005 74.7616 263.23 74.8567L272.884 75.6059C274.109 75.701 275.183 74.7816 275.278 73.5566Z" fill="#3F3D56"/>
<path d="M250.339 112.06C251.509 112.11 252.523 111.236 252.648 110.071L254.424 93.5117C254.5 92.8048 254.245 92.1227 253.723 91.6393C253.202 91.1563 252.502 90.9542 251.803 91.0828L251.304 91.1752C250.313 91.359 249.567 92.189 249.489 93.1939L248.211 109.661C248.163 110.27 248.36 110.856 248.765 111.313C249.152 111.749 249.679 112.01 250.258 112.055C250.285 112.057 250.312 112.059 250.339 112.06Z" fill="#3F3D56"/>
<path d="M270.766 111.342L272.102 94.12C272.197 92.9043 271.32 91.8548 270.107 91.7305L261.35 90.8357C260.135 90.7245 259.037 91.5996 258.907 92.8159L257.049 110.212C256.984 110.816 257.162 111.406 257.551 111.874C257.939 112.341 258.486 112.624 259.092 112.671L268.372 113.391C269.597 113.486 270.671 112.567 270.766 111.342Z" fill="#3F3D56"/>
<path d="M217.991 119.084L210.165 130.777L208.309 144.465L202.806 144.387L205.949 128.243L218.443 113.455C219.28 115.283 219.109 117.414 217.991 119.084Z" fill="#CCCCCC"/>
<path d="M208.836 140.547L231.133 142.584L231.104 142.897L208.808 140.86L208.836 140.547Z" fill="#3F3D56"/>
<path d="M210.405 137.888L231.555 139.695L231.528 140.008L210.378 138.201L210.405 137.888Z" fill="#3F3D56"/>
<path d="M211.725 135.147L231.938 137.113L231.907 137.426L211.694 135.46L211.725 135.147Z" fill="#3F3D56"/>
<path d="M212.571 132.387L231.961 134.541L231.926 134.853L212.536 132.699L212.571 132.387Z" fill="#3F3D56"/>
<path d="M213.701 129.956L232.328 132.062L232.293 132.375L213.666 130.269L213.701 129.956Z" fill="#3F3D56"/>
<path d="M215.121 127.852L233.312 129.264L233.288 129.577L215.096 128.165L215.121 127.852Z" fill="#3F3D56"/>
<path d="M216.235 125.727L233.898 127.307L233.87 127.62L216.207 126.04L216.235 125.727Z" fill="#3F3D56"/>
<path d="M217.35 123.609L234.438 125.508L234.403 125.82L217.316 123.922L217.35 123.609Z" fill="#3F3D56"/>
<path d="M218.137 121.476L235.031 123.086L235.001 123.399L218.108 121.789L218.137 121.476Z" fill="#3F3D56"/>
<path d="M219.568 119.403L235.727 121.166L235.692 121.479L219.534 119.715L219.568 119.403Z" fill="#3F3D56"/>
<path d="M220.34 117.541L236.383 118.943L236.355 119.256L220.313 117.854L220.34 117.541Z" fill="#3F3D56"/>
<path d="M238.063 112.428L239.712 91.1833C239.807 89.9581 238.888 88.884 237.663 88.789L227.382 87.9911C226.157 87.8961 225.083 88.8154 224.988 90.0407L223.34 111.285C223.245 112.51 224.164 113.584 225.389 113.679L235.669 114.477C236.894 114.572 237.968 113.653 238.063 112.428Z" fill="#E95F29"/>
<path d="M259.602 145.328L277.89 145.581L278.038 145.583L279.131 131.499C279.269 129.718 277.932 128.156 276.151 128.018L258.177 126.623C256.395 126.485 254.834 127.822 254.696 129.603L253.512 144.855L253.669 144.867L259.602 145.328Z" fill="#CCCCCC"/>
<path d="M239.804 73.7986L241.064 57.5663C241.159 56.3412 240.239 55.2671 239.014 55.1721L235.626 54.9091C234.401 54.814 233.327 55.7334 233.232 56.9585L231.972 73.1908C231.877 74.4158 232.796 75.4898 234.021 75.5849L237.41 75.8478C238.635 75.9429 239.709 75.0236 239.804 73.7986Z" fill="#3F3D56"/>
<path d="M230.837 144.671L232.846 130.96L236.687 118.021L237.75 114.479C239.444 113.51 241.517 114.895 241.269 116.832L241.073 118.362L237.232 131.3L235.223 145.011" fill="#CCCCCC"/>
<path d="M337.995 146.369L360.363 146.677L369.331 46.6805C369.549 44.2533 368.765 41.7993 367.18 39.9479L345.185 14.2509C342.106 10.6536 336.87 10.0053 333.007 12.7428L305.458 32.2617C303.21 33.8541 301.817 36.3437 301.637 39.0922L296.684 114.434L284.224 129.183L284.198 129.214L281.01 145.583L337.995 146.369Z" fill="#E6E6E6"/>
<path d="M342.68 37.5034L343.04 32.8621C343.135 31.6371 342.216 30.563 340.991 30.4679L334.47 29.9618C333.245 29.8668 332.171 30.7861 332.076 32.0112L331.715 36.6524C331.62 37.8775 332.54 38.9516 333.765 39.0467L340.286 39.5527C341.511 39.6478 342.585 38.7284 342.68 37.5034Z" fill="#E95F29"/>
<path d="M353.668 74.5976L355.001 57.4256C355.096 56.2005 354.177 55.1264 352.952 55.0313L343.298 54.2821C342.073 54.1871 340.999 55.1064 340.904 56.3315L339.571 73.5035C339.476 74.7286 340.396 75.8027 341.62 75.8977L351.274 76.6469C352.499 76.742 353.573 75.8227 353.668 74.5976Z" fill="#3F3D56"/>
<path d="M331.902 92.9112C332.35 93.326 332.57 93.9125 332.504 94.5195L330.728 111.079C330.621 112.079 329.749 112.83 328.744 112.787C328.216 112.768 327.741 112.537 327.393 112.145C327.045 111.753 326.876 111.25 326.916 110.727L328.194 94.2595C328.261 93.3962 328.903 92.6833 329.754 92.5257L330.253 92.4332C330.421 92.402 330.59 92.3933 330.756 92.4061C331.179 92.439 331.58 92.6129 331.902 92.9112Z" fill="#3F3D56"/>
<path d="M358.381 114.775C358.852 114.387 359.137 113.838 359.184 113.229L360.462 96.762C360.54 95.757 359.93 94.8218 358.979 94.4873L358.501 94.3191C357.831 94.0843 357.108 94.1759 356.518 94.5727C355.928 94.9698 355.57 95.6046 355.536 96.3145L354.736 112.95C354.68 114.12 355.547 115.139 356.711 115.271C356.738 115.274 356.765 115.277 356.792 115.279C357.37 115.324 357.932 115.146 358.381 114.775Z" fill="#3F3D56"/>
<path d="M296.389 120.125L288.564 131.818L286.707 145.506L281.204 145.428L284.348 129.284L296.841 114.496C297.679 116.324 297.508 118.455 296.389 120.125Z" fill="#CCCCCC"/>
<path d="M287.227 141.588L309.523 143.625L309.495 143.938L287.199 141.901L287.227 141.588Z" fill="#3F3D56"/>
<path d="M288.795 138.929L309.945 140.736L309.919 141.049L288.769 139.242L288.795 138.929Z" fill="#3F3D56"/>
<path d="M290.115 136.188L310.328 138.154L310.298 138.467L290.085 136.501L290.115 136.188Z" fill="#3F3D56"/>
<path d="M290.962 133.428L310.352 135.582L310.317 135.895L290.927 133.74L290.962 133.428Z" fill="#3F3D56"/>
<path d="M292.1 130.999L310.727 133.105L310.691 133.418L292.064 131.312L292.1 130.999Z" fill="#3F3D56"/>
<path d="M293.519 128.893L311.711 130.305L311.687 130.618L293.495 129.206L293.519 128.893Z" fill="#3F3D56"/>
<path d="M294.625 126.768L312.289 128.348L312.261 128.661L294.597 127.081L294.625 126.768Z" fill="#3F3D56"/>
<path d="M295.741 124.65L312.828 126.549L312.793 126.861L295.706 124.963L295.741 124.65Z" fill="#3F3D56"/>
<path d="M296.536 122.517L313.43 124.127L313.4 124.44L296.506 122.83L296.536 122.517Z" fill="#3F3D56"/>
<path d="M297.959 120.446L314.117 122.209L314.083 122.521L297.924 120.758L297.959 120.446Z" fill="#3F3D56"/>
<path d="M298.731 118.584L314.773 119.986L314.746 120.299L298.703 118.897L298.731 118.584Z" fill="#3F3D56"/>
<path d="M316.462 113.469L318.11 92.2243C318.206 90.9991 317.286 89.925 316.061 89.83L305.781 89.0321C304.556 88.9371 303.482 89.8564 303.387 91.0817L301.738 112.326C301.643 113.551 302.562 114.625 303.787 114.72L314.067 115.518C315.293 115.613 316.367 114.694 316.462 113.469Z" fill="#E95F29"/>
<path d="M337.993 146.369L356.281 146.622L356.428 146.624L357.521 132.54C357.66 130.759 356.323 129.197 354.542 129.059L336.567 127.664C334.786 127.526 333.225 128.863 333.086 130.644L331.903 145.896L332.059 145.909L337.993 146.369Z" fill="#CCCCCC"/>
<path d="M318.194 74.8395L319.454 58.6073C319.549 57.3822 318.63 56.3081 317.405 56.2131L314.017 55.9501C312.791 55.855 311.718 56.7744 311.622 57.9995L310.363 74.2317C310.268 75.4568 311.187 76.5308 312.412 76.6259L315.8 76.8889C317.025 76.9839 318.099 76.0646 318.194 74.8395Z" fill="#3F3D56"/>
<path d="M309.228 145.714L311.237 132.003L315.078 119.064L316.14 115.522C317.835 114.553 319.907 115.938 319.659 117.875L319.463 119.405L315.623 132.343L313.613 146.054" fill="#CCCCCC"/>
<path d="M416.393 147.412L438.762 147.72L447.73 47.7233C447.948 45.2962 447.164 42.8422 445.579 40.9907L423.583 15.2938C420.504 11.6966 415.269 11.0482 411.405 13.7857L383.856 33.3046C381.608 34.8969 380.216 37.3866 380.035 40.1351L375.082 115.477L362.622 130.225L362.596 130.257L359.409 146.625L416.393 147.412Z" fill="#E6E6E6"/>
<path d="M421.078 38.5444L421.439 33.9032C421.534 32.6781 420.614 31.604 419.389 31.5089L412.868 31.0029C411.643 30.9078 410.569 31.8271 410.474 33.0522L410.114 37.6935C410.019 38.9185 410.938 39.9926 412.163 40.0877L418.684 40.5937C419.909 40.6888 420.983 39.7695 421.078 38.5444Z" fill="#E95F29"/>
<path d="M432.059 75.6405L433.392 58.4685C433.487 57.2435 432.567 56.1694 431.342 56.0743L421.689 55.3251C420.464 55.2301 419.39 56.1494 419.295 57.3745L417.962 74.5465C417.867 75.7716 418.786 76.8456 420.011 76.9407L429.665 77.6899C430.89 77.785 431.964 76.8656 432.059 75.6405Z" fill="#3F3D56"/>
<path d="M437.319 95.6774L436.841 95.5093C435.533 95.0496 434.151 95.9793 434.085 97.364L433.285 113.999C433.232 115.09 434.035 116.034 435.12 116.157C436.286 116.289 437.328 115.428 437.419 114.259L438.697 97.7918C438.769 96.8562 438.204 95.9886 437.319 95.6774Z" fill="#3F3D56"/>
<path d="M427.555 113.424L428.891 96.2026C428.986 94.9868 428.11 93.9373 426.896 93.813L418.139 92.9182C416.918 92.8038 415.826 93.6821 415.696 94.8984L413.838 112.295C413.773 112.899 413.951 113.489 414.34 113.956C414.728 114.423 415.275 114.706 415.881 114.753L425.161 115.474C426.386 115.569 427.46 114.649 427.555 113.424Z" fill="#3F3D56"/>
<path d="M374.78 121.166L366.954 132.859L365.098 146.547L359.595 146.469L362.739 130.325L375.232 115.537C376.069 117.365 375.898 119.496 374.78 121.166Z" fill="#CCCCCC"/>
<path d="M365.626 142.629L387.922 144.666L387.893 144.979L365.597 142.942L365.626 142.629Z" fill="#3F3D56"/>
<path d="M367.194 139.97L388.344 141.777L388.317 142.09L367.167 140.283L367.194 139.97Z" fill="#3F3D56"/>
<path d="M368.506 137.229L388.719 139.195L388.688 139.508L368.476 137.542L368.506 137.229Z" fill="#3F3D56"/>
<path d="M369.352 134.469L388.742 136.623L388.707 136.936L369.317 134.781L369.352 134.469Z" fill="#3F3D56"/>
<path d="M370.49 132.04L389.117 134.146L389.082 134.459L370.455 132.353L370.49 132.04Z" fill="#3F3D56"/>
<path d="M371.91 129.934L390.102 131.346L390.077 131.659L371.885 130.247L371.91 129.934Z" fill="#3F3D56"/>
<path d="M373.024 127.809L390.688 129.389L390.66 129.702L372.996 128.122L373.024 127.809Z" fill="#3F3D56"/>
<path d="M374.132 125.692L391.219 127.59L391.184 127.902L374.097 126.004L374.132 125.692Z" fill="#3F3D56"/>
<path d="M374.927 123.56L391.82 125.17L391.79 125.483L374.897 123.873L374.927 123.56Z" fill="#3F3D56"/>
<path d="M376.349 121.487L392.508 123.25L392.474 123.563L376.315 121.799L376.349 121.487Z" fill="#3F3D56"/>
<path d="M377.121 119.625L393.164 121.027L393.137 121.34L377.094 119.938L377.121 119.625Z" fill="#3F3D56"/>
<path d="M394.852 114.51L396.501 93.2654C396.596 92.0401 395.677 90.9661 394.452 90.871L384.171 90.0732C382.947 89.9781 381.872 90.8975 381.777 92.1227L380.129 113.367C380.034 114.592 380.953 115.666 382.178 115.761L392.458 116.559C393.683 116.654 394.757 115.735 394.852 114.51Z" fill="#E95F29"/>
<path d="M416.392 147.412L434.68 147.665L434.827 147.667L435.92 133.583C436.058 131.802 434.721 130.24 432.94 130.102L414.966 128.707C413.184 128.569 411.623 129.906 411.485 131.687L410.301 146.939L410.458 146.951L416.392 147.412Z" fill="#CCCCCC"/>
<path d="M396.593 75.8805L397.853 59.6483C397.948 58.4232 397.028 57.3492 395.803 57.2541L392.415 56.9911C391.19 56.8961 390.116 57.8154 390.021 59.0405L388.761 75.2727C388.666 76.4978 389.585 77.5719 390.81 77.6669L394.199 77.9299C395.424 78.0249 396.498 77.1056 396.593 75.8805Z" fill="#3F3D56"/>
<path d="M387.618 146.755L389.628 133.044L393.468 120.105L394.531 116.563C396.225 115.594 398.298 116.979 398.05 118.916L397.854 120.446L394.013 133.384L392.004 147.095" fill="#CCCCCC"/>
<path d="M181.534 144.122L468 147.836L467.992 148.464L181.526 144.751L181.534 144.122Z" fill="#CCCCCC"/>
<path d="M372.96 275.471C373.602 274.389 376.375 275.547 376.885 274.566C377.393 273.588 374.816 272.098 373.344 268.696C373.078 268.082 371.405 264.215 372.644 263.021C374.992 260.76 385.736 270.094 389.496 267.039C390.321 266.369 390.898 265.031 393.395 262.858C394.389 261.994 394.989 261.603 395.571 261.748C396.396 261.954 396.461 263.059 397.346 265.23C398.673 268.485 399.457 268.289 400.23 270.887C400.804 272.815 400.673 273.936 401.348 274.154C402.304 274.464 403.183 272.418 404.394 272.601C405.63 272.788 406.377 275.17 406.613 276.953C407.056 280.299 405.827 282.507 405.146 284.829C404.406 287.352 403.967 291.189 405.676 296.621L422.594 344.287C418.859 334.506 408.044 307.694 403.5 297.73C402.188 294.854 400.74 291.936 397.766 290.785C394.902 289.676 390.97 290.338 385.956 289.13C385.371 288.989 383.746 288.576 383.542 287.62C383.373 286.83 384.328 286.389 384.181 285.649C383.984 284.657 382.105 284.644 379.796 283.499C378.167 282.692 377.152 281.731 376.28 280.906C376.017 280.657 372.107 276.91 372.96 275.471Z" fill="#F9CEBD"/>
<path d="M439.516 300.565C440.232 300.568 440.464 302.263 441.093 302.23C441.719 302.198 441.707 300.503 442.952 298.798C443.177 298.491 444.592 296.554 445.535 296.818C447.323 297.317 445.842 305.284 448.426 306.248C448.993 306.46 449.816 306.356 451.603 306.955C452.314 307.193 452.679 307.376 452.775 307.703C452.912 308.167 452.389 308.518 451.579 309.579C450.364 311.169 450.686 311.498 449.635 312.627C448.854 313.465 448.266 313.724 448.353 314.118C448.477 314.676 449.735 314.518 449.994 315.165C450.259 315.825 449.306 316.879 448.499 317.51C446.984 318.692 445.546 318.726 444.21 319.062C442.758 319.427 440.748 320.318 438.575 322.724L420.062 344.781C423.785 340.126 433.824 327.082 437.403 321.977C438.436 320.503 439.45 318.95 439.157 317.158C438.875 315.433 437.416 313.694 436.562 310.885C436.462 310.557 436.196 309.64 436.606 309.264C436.945 308.953 437.437 309.295 437.758 309.009C438.189 308.626 437.652 307.7 437.548 306.236C437.474 305.204 437.653 304.429 437.807 303.762C437.853 303.561 438.564 300.561 439.516 300.565Z" fill="#F9CEBD"/>
<path d="M425.241 303.771L425.672 299.922L425.475 299.63C424.563 298.281 424.099 296.963 424.093 295.712C424.092 295.513 424.101 295.314 424.111 295.112C424.148 294.309 424.194 293.311 423.674 292.148C423.382 291.499 422.563 289.997 421.33 290.183C420.999 290.23 420.748 290.382 420.557 290.561C420.529 290.516 420.501 290.471 420.47 290.423C420.086 289.838 419.782 289.587 419.49 289.345C419.265 289.159 419.032 288.968 418.668 288.514C418.508 288.315 418.384 288.141 418.279 287.994C417.96 287.55 417.544 287.02 416.81 287.029C416.025 287.067 415.615 287.715 415.342 288.144C414.856 288.91 414.636 289.462 414.49 289.828C414.437 289.962 414.377 290.113 414.346 290.159C414.094 290.531 412.039 290.183 411.265 290.057C409.526 289.767 408.022 289.516 407.402 290.613C406.958 291.397 407.288 292.434 408.412 293.778C408.763 294.196 409.135 294.513 409.466 294.763C409.192 294.926 408.947 295.177 408.847 295.571C408.613 296.504 409.415 297.439 411.23 298.353C411.68 298.582 412.287 298.886 413.137 299.033C413.538 299.102 413.898 299.119 414.207 299.128C414.213 299.306 414.255 299.5 414.364 299.699C414.683 300.284 415.346 300.563 416.346 300.496C417.446 300.438 418.352 300.228 419.151 300.044C419.849 299.884 420.45 299.749 420.923 299.78C421.798 299.851 422.473 300.552 423.264 301.46L425.241 303.771Z" fill="#F9CEBD"/>
<path d="M423.239 280.854L426.852 282.247L427.185 282.131C428.721 281.591 430.113 281.476 431.325 281.788C431.517 281.837 431.707 281.897 431.901 281.957C432.668 282.197 433.622 282.495 434.879 282.286C435.58 282.169 437.241 281.757 437.374 280.518C437.413 280.185 437.329 279.904 437.205 279.674C437.255 279.659 437.305 279.642 437.36 279.625C438.024 279.402 438.343 279.172 438.651 278.95C438.888 278.779 439.132 278.603 439.663 278.366C439.896 278.262 440.097 278.186 440.265 278.121C440.776 277.926 441.394 277.657 441.571 276.945C441.734 276.177 441.211 275.615 440.864 275.243C440.247 274.578 439.769 274.225 439.452 273.991C439.336 273.906 439.206 273.81 439.168 273.768C438.873 273.429 439.73 271.53 440.049 270.814C440.77 269.205 441.395 267.814 440.491 266.936C439.845 266.308 438.758 266.364 437.173 267.11C436.68 267.343 436.278 267.623 435.953 267.88C435.865 267.573 435.684 267.272 435.328 267.076C434.485 266.613 433.378 267.152 432.033 268.675C431.697 269.053 431.249 269.563 430.891 270.348C430.723 270.718 430.615 271.062 430.528 271.358C430.354 271.319 430.156 271.311 429.936 271.366C429.289 271.525 428.851 272.097 428.662 273.081C428.439 274.159 428.412 275.089 428.388 275.909C428.365 276.624 428.344 277.24 428.194 277.689C427.903 278.518 427.054 278.993 425.975 279.528L423.239 280.854Z" fill="#F9CEBD"/>
<path d="M425.241 269.515L425.672 265.666L425.475 265.374C424.563 264.025 424.099 262.707 424.093 261.456C424.092 261.257 424.101 261.059 424.111 260.856C424.148 260.053 424.194 259.055 423.674 257.892C423.382 257.243 422.563 255.742 421.33 255.927C420.999 255.974 420.748 256.126 420.557 256.305C420.529 256.26 420.501 256.215 420.47 256.167C420.086 255.582 419.782 255.331 419.49 255.089C419.265 254.903 419.032 254.712 418.668 254.258C418.508 254.06 418.384 253.885 418.279 253.738C417.96 253.294 417.544 252.764 416.81 252.774C416.025 252.811 415.615 253.459 415.342 253.889C414.856 254.654 414.636 255.206 414.49 255.572C414.437 255.706 414.377 255.857 414.346 255.903C414.094 256.275 412.039 255.927 411.265 255.801C409.526 255.511 408.022 255.26 407.402 256.357C406.958 257.141 407.288 258.178 408.412 259.522C408.763 259.94 409.135 260.258 409.466 260.507C409.192 260.67 408.947 260.921 408.847 261.315C408.613 262.248 409.415 263.183 411.23 264.097C411.68 264.326 412.287 264.631 413.137 264.777C413.538 264.846 413.898 264.863 414.207 264.872C414.213 265.051 414.255 265.244 414.364 265.443C414.683 266.028 415.346 266.307 416.346 266.24C417.446 266.182 418.352 265.972 419.151 265.788C419.849 265.629 420.45 265.493 420.923 265.525C421.798 265.595 422.473 266.296 423.264 267.205L425.241 269.515Z" fill="#F9CEBD"/>
<path d="M421.305 344.225L422.112 343.72L423.052 343.828C423.067 343.74 423.118 343.54 423.195 343.225C423.616 341.505 424.899 336.267 425.97 328.02C426.717 322.262 427.14 316.343 427.227 310.423C427.314 304.495 427.034 300.007 426.809 296.399C426.639 293.679 426.433 291.088 426.23 288.564C425.691 281.822 425.183 275.453 425.561 268.402C425.645 266.827 425.82 263.551 427.735 260.065C428.845 258.042 430.374 256.247 432.281 254.731L431.096 253.24C428.991 254.917 427.299 256.905 426.066 259.15C423.943 263.016 423.752 266.586 423.66 268.301C423.275 275.477 423.789 281.907 424.334 288.715C424.534 291.229 424.741 293.809 424.91 296.518C425.133 300.092 425.41 304.541 425.324 310.394C425.239 316.242 424.82 322.089 424.084 327.774C423.026 335.918 421.761 341.077 421.346 342.772C421.125 343.677 421.078 343.867 421.305 344.225Z" fill="#F9CEBD"/>
<path d="M435.772 257.754C435.85 257.754 435.929 257.752 436.009 257.747C437.629 257.659 439.13 256.689 440.47 254.864C441.098 254.005 441.42 253.026 442.061 251.073C442.16 250.772 442.643 249.244 442.937 247.142C443.129 245.769 443.105 245.194 442.833 244.687C442.531 244.122 442.042 243.728 441.492 243.462C441.516 243.28 441.497 243.093 441.418 242.901C441.093 242.108 440.231 242.212 439.765 242.262C439.529 242.292 439.234 242.331 438.916 242.314C438.416 242.29 438.148 242.141 437.741 241.918C437.351 241.704 436.867 241.439 436.149 241.292C434.733 240.996 433.546 241.398 433.155 241.53C431.097 242.215 430.082 243.815 428.907 245.668C428.673 246.04 427.869 247.393 427.339 249.248C426.956 250.586 427.01 251.181 427.125 251.623C427.359 252.532 427.912 253.052 429.316 254.201C430.783 255.403 431.519 256.005 432.15 256.371C433.621 257.221 434.545 257.754 435.772 257.754Z" fill="#F9CEBD"/>
<path d="M10.5139 343.359C10.5139 343.711 10.7995 343.997 11.1518 343.997H453.289V342.721H11.1518C10.7995 342.721 10.5139 343.006 10.5139 343.359Z" fill="#E6E6E6"/>
<path d="M138.149 141.707C138.149 141.707 161.949 144.569 157.934 125.752C153.92 106.934 131.158 72.1777 131.158 72.1777L118.241 79.4215L133.071 114.475L126.687 119.511L138.149 141.707Z" fill="#FFB6B6"/>
<path d="M60.1569 118.799L63.5105 146.381L147.547 145.97L130.669 116.637L60.1569 118.799Z" fill="#E95F29"/>
<path d="M110.095 73.6432C104.952 66.4608 104.54 57.9487 109.174 54.6307C113.807 51.3128 121.733 54.4456 126.876 61.6279C132.018 68.8103 132.431 77.3225 127.797 80.6405C123.163 83.9584 115.238 80.8256 110.095 73.6432Z" fill="#FFB6B6"/>
<path d="M63.0825 223.957H68.2422V343.661H63.0825V223.957Z" fill="#3F3D56"/>
<path d="M87.8482 223.957H93.0078V343.661H87.8482V223.957Z" fill="#3F3D56"/>
<path d="M226.637 148.625H231.797V343.66H226.637V148.625Z" fill="#E6E6E6"/>
<path d="M143.567 223.957H148.727V343.661H143.567V223.957Z" fill="#3F3D56"/>
<path d="M163.317 223.957H168.477V343.661H163.317V223.957Z" fill="#3F3D56"/>
<path d="M72.8812 221.377H172.519L191.633 248.488L92.4879 254.399L72.8812 221.377Z" fill="#3F3D56"/>
<path d="M255.322 128.618L254.87 108.957L315.005 113.583L315.312 126.905L255.322 128.618Z" fill="#FFB6B6"/>
<path d="M296.025 111.234L298.901 118.153L303.032 118.285C303.032 118.285 298.196 119.766 296.852 128.555L300.821 129.744C300.821 129.744 304.632 133.3 311.757 132.955L330.861 131.357L330.934 124.698L317.731 123.172C317.731 123.172 314.789 121.236 329.353 113.279C329.353 113.279 334.177 110.329 329.838 95.7602C329.242 93.7579 327.441 92.3197 325.352 92.2745C324.199 92.2495 323.119 92.6636 322.688 94.0955C321.59 97.7401 322.701 101.373 319.684 103.648C316.668 105.924 296.025 111.234 296.025 111.234Z" fill="#2F2E41"/>
<path d="M80.3368 203.785C80.3368 203.785 101.086 239.075 148.036 232.715C159.209 231.202 169.039 224.559 174.639 214.773C185.463 195.859 201.9 162.741 196.571 143.988L275.978 128.833L282.234 109.548L196.296 98.3848C188.694 97.3973 181.248 101.094 177.439 107.746L135.576 180.855L123.096 182.217L80.3368 203.785Z" fill="#2F2E41"/>
<path d="M253.762 136.667L254.893 117.033L314.461 126.482L313.696 139.786L253.762 136.667Z" fill="#FFB6B6"/>
<path d="M295.726 122.613L298.036 129.742L302.143 130.206C302.143 130.206 297.203 131.293 295.157 139.945L299.017 141.45C299.017 141.45 302.53 145.301 309.66 145.53L328.83 145.474L329.439 138.842L316.401 136.259C316.401 136.259 313.624 134.093 328.781 127.333C328.781 127.333 333.827 124.781 330.675 109.91C330.241 107.866 328.561 106.288 326.483 106.075C325.336 105.957 324.226 106.283 323.681 107.676C322.294 111.22 323.108 114.931 319.919 116.956C316.729 118.981 295.726 122.613 295.726 122.613Z" fill="#2F2E41"/>
<path d="M73.2925 197.512C73.2925 197.512 91.135 234.357 138.445 231.795C149.703 231.186 160.036 225.355 166.405 216.052C178.716 198.07 197.763 166.381 193.961 147.261L274.33 138.543L282.117 119.824L197.355 101.783C189.858 100.187 182.138 103.272 177.807 109.596L130.198 179.1L117.649 179.454L73.2925 197.512Z" fill="#2F2E41"/>
<path d="M127.677 41.9258L131.805 45.0216L110.134 74.9475L106.006 73.9156L127.677 41.9258Z" fill="#3F3D56"/>
<path d="M71.338 108.38L47.6036 107.348L37.2843 153.784C37.2843 153.784 58.9548 235.307 84.753 232.211C84.753 232.211 100.748 220.344 100.748 216.216C100.748 212.089 122.418 201.769 122.418 201.769L127.578 184.226L112.099 160.492C112.099 160.492 105.908 141.917 85.269 131.598L71.338 108.38Z" fill="#E95F29"/>
<path d="M207.033 144.498H418.062V149.658H314.87V343.66H309.71V149.658H207.033V144.498Z" fill="#E6E6E6"/>
<path d="M58.9504 104.252C43.5626 104.252 31.0883 91.7773 31.0883 76.3894C31.0883 61.0016 43.5626 48.5273 58.9504 48.5273C74.3382 48.5273 86.8125 61.0016 86.8125 76.3894C86.8125 91.7773 74.3382 104.252 58.9504 104.252Z" fill="#FFB6B6"/>
<path d="M156.102 111.992L175.562 119.732L137.381 170.296L123.966 159.977L156.102 111.992Z" fill="#E6E6E6"/>
<path d="M80.1062 208.992C80.1062 208.992 87.3297 231.849 102.809 220.42C118.288 208.992 140.539 173.906 140.539 173.906L128.607 165.135L102.809 193.119L95.5851 189.385L80.1062 208.992Z" fill="#FFB6B6"/>
<path d="M68.751 128.502L45.0167 142.949L80.1022 219.312L102.805 188.354L68.751 128.502Z" fill="#E95F29"/>
<path d="M131.443 174.343C126.508 171.494 126.087 162.982 130.504 155.332C134.921 147.681 142.503 143.79 147.438 146.639C152.374 149.489 152.794 158.001 148.378 165.651C143.961 173.301 136.379 177.193 131.443 174.343Z" fill="#FFB6B6"/>
<path d="M55.9037 160.749C48.7532 137.307 41.0793 129.888 33.0115 134.533C26.8706 138.068 25.0223 146.116 28.6212 152.219C37.7945 167.778 56.6969 203.426 52.7592 227.053C52.7592 227.053 46.5676 260.075 96.1002 260.075C145.633 260.075 193.102 248.723 193.102 248.723L167.303 244.596L108.635 248.786C95.2308 249.744 83.9336 238.274 85.7243 224.956C85.7834 224.516 85.8535 224.072 85.9353 223.622C88.8767 207.446 55.9037 160.749 55.9037 160.749Z" fill="#3F3D56"/>
<path d="M69.3981 64.8403C71.6742 71.2132 66.673 77.8307 59.9208 77.3806L59.7599 77.3699C55.2209 83.0436 55.0956 91.0696 59.4551 96.8823C59.8133 104.374 58.6397 111.861 56.0061 118.883L48.6066 138.615L37.2152 133.299L31.8092 147.728L0.00331879 131.344L19.2796 87.9719L25.1622 64.4415C29.3474 47.7007 46.424 37.6242 63.1016 42.0542L75.897 45.453C86.0057 48.1381 91.824 58.7217 88.6744 68.6955L69.3981 64.8403Z" fill="#2F2E41"/>
</g>
<defs>
<clipPath id="clip0_765_127258">
<rect width="468" height="344.781" fill="white" transform="matrix(-1 0 0 1 468 0)"/>
</clipPath>
</defs>
</svg>
