<svg width="23" height="23" viewBox="0 0 23 23" fill="none" xmlns="http://www.w3.org/2000/svg">
<ellipse cx="11.5014" cy="11.5" rx="11.5014" ry="11.5" fill="#E95F29"/>
<path d="M11.9958 5.86138C11.9084 5.66674 11.7149 5.5415 11.5015 5.5415C11.2882 5.5415 11.0946 5.66674 11.0073 5.86138L9.48111 9.26114L5.77554 9.66175C5.56339 9.68469 5.38447 9.82999 5.31853 10.0329C5.25259 10.2358 5.31192 10.4585 5.47006 10.6017L8.23242 13.1035L7.46841 16.7509C7.42467 16.9597 7.5076 17.1747 7.68023 17.3001C7.85286 17.4255 8.08303 17.4379 8.26815 17.3318L11.5015 15.4782L14.7349 17.3318C14.92 17.4379 15.1502 17.4255 15.3228 17.3001C15.4955 17.1747 15.5784 16.9597 15.5347 16.7509L14.7707 13.1035L17.533 10.6017C17.6912 10.4585 17.7505 10.2358 17.6845 10.0329C17.6186 9.82999 17.4397 9.68469 17.2275 9.66175L13.522 9.26114L11.9958 5.86138Z" fill="white"/>
</svg>
