<svg width="16" height="16" viewBox="0 0 16 16" fill="none" xmlns="http://www.w3.org/2000/svg">
<path d="M0.855438 6.28022C4.29544 2.84022 9.61794 2.43022 13.5064 5.05072L14.2799 4.36972C9.98494 1.32422 3.99644 1.72572 0.148438 5.57322L0.855438 6.28022Z" fill="#262626"/>
<path d="M2.26562 7.69485C4.88713 5.07285 8.87562 4.65135 11.9376 6.42985L11.1396 7.13285C8.50463 5.76835 5.18313 6.19135 2.97263 8.40185L2.26562 7.69485Z" fill="#262626"/>
<path fill-rule="evenodd" clip-rule="evenodd" d="M15.4617 5.38387L15.2492 5.17188L8.39175 11.2149C8.07618 11.1108 7.73498 11.1144 7.4217 11.2252C7.10843 11.336 6.84081 11.5477 6.66086 11.8271C6.48091 12.1064 6.39882 12.4376 6.42746 12.7687C6.4561 13.0997 6.59386 13.4119 6.81912 13.6562C7.04437 13.9005 7.34437 14.0631 7.67202 14.1184C7.99967 14.1738 8.33643 14.1188 8.62943 13.962C8.92243 13.8053 9.15509 13.5557 9.2909 13.2524C9.4267 12.9491 9.45795 12.6093 9.37975 12.2864L15.4617 5.38387ZM7.92175 12.1394C7.78914 12.1394 7.66196 12.1921 7.56819 12.2858C7.47443 12.3796 7.42175 12.5068 7.42175 12.6394C7.42175 12.772 7.47443 12.8992 7.56819 12.9929C7.66196 13.0867 7.78914 13.1394 7.92175 13.1394C8.05436 13.1394 8.18153 13.0867 8.2753 12.9929C8.36907 12.8992 8.42175 12.772 8.42175 12.6394C8.42175 12.5068 8.36907 12.3796 8.2753 12.2858C8.18153 12.1921 8.05436 12.1394 7.92175 12.1394Z" fill="#262626"/>
<path d="M4.39062 9.80883C5.04376 9.15547 5.86513 8.69584 6.76361 8.48093C7.66209 8.26601 8.60254 8.30423 9.48063 8.59133L8.56763 9.39633C7.94186 9.29426 7.30078 9.3426 6.69739 9.53735C6.09401 9.73211 5.54564 10.0677 5.09763 10.5163L4.39062 9.80883Z" fill="#262626"/>
</svg>
