<svg width="26" height="26" viewBox="0 0 26 26" fill="none" xmlns="http://www.w3.org/2000/svg">
<g id="Group">
<path id="Vector" d="M13.1861 2.37807C16.5464 2.37807 16.9444 2.39281 18.2659 2.45176C19.4941 2.5058 20.1573 2.71214 20.5995 2.88409C21.1841 3.11008 21.6066 3.38519 22.0438 3.82243C22.486 4.26458 22.7562 4.68217 22.9822 5.26679C23.1541 5.70894 23.3604 6.37707 23.4145 7.60036C23.4734 8.92681 23.4882 9.32474 23.4882 12.6802C23.4882 16.0405 23.4734 16.4384 23.4145 17.76C23.3604 18.9882 23.1541 19.6514 22.9822 20.0936C22.7562 20.6782 22.4811 21.1007 22.0438 21.5379C21.6017 21.9801 21.1841 22.2503 20.5995 22.4763C20.1573 22.6482 19.4892 22.8545 18.2659 22.9086C16.9394 22.9675 16.5415 22.9823 13.1861 22.9823C9.82575 22.9823 9.42781 22.9675 8.10627 22.9086C6.87808 22.8545 6.21485 22.6482 5.7727 22.4763C5.18808 22.2503 4.76558 21.9751 4.32835 21.5379C3.8862 21.0958 3.61599 20.6782 3.39001 20.0936C3.21806 19.6514 3.01172 18.9833 2.95768 17.76C2.89873 16.4335 2.88399 16.0356 2.88399 12.6802C2.88399 9.31983 2.89873 8.92189 2.95768 7.60036C3.01172 6.37216 3.21806 5.70894 3.39001 5.26679C3.61599 4.68217 3.89111 4.25967 4.32835 3.82243C4.7705 3.38028 5.18808 3.11008 5.7727 2.88409C6.21485 2.71214 6.88299 2.5058 8.10627 2.45176C9.42781 2.39281 9.82575 2.37807 13.1861 2.37807ZM13.1861 0.113281C9.77171 0.113281 9.34429 0.12802 8.00311 0.186973C6.66683 0.245926 5.74814 0.462088 4.95227 0.771594C4.12201 1.09584 3.41948 1.52325 2.72187 2.22578C2.01934 2.92339 1.59193 3.62592 1.26769 4.45127C0.958182 5.25205 0.74202 6.16582 0.683067 7.5021C0.624113 8.8482 0.609375 9.27561 0.609375 12.69C0.609375 16.1044 0.624113 16.5318 0.683067 17.873C0.74202 19.2093 0.958182 20.1279 1.26769 20.9238C1.59193 21.7541 2.01934 22.4566 2.72187 23.1542C3.41948 23.8518 4.12201 24.2842 4.94736 24.6035C5.74814 24.913 6.66192 25.1292 7.99819 25.1881C9.33938 25.2471 9.76679 25.2618 13.1812 25.2618C16.5956 25.2618 17.023 25.2471 18.3642 25.1881C19.7004 25.1292 20.6191 24.913 21.415 24.6035C22.2403 24.2842 22.9429 23.8518 23.6405 23.1542C24.3381 22.4566 24.7704 21.7541 25.0897 20.9287C25.3993 20.1279 25.6154 19.2142 25.6744 17.8779C25.7333 16.5367 25.7481 16.1093 25.7481 12.6949C25.7481 9.28053 25.7333 8.85312 25.6744 7.51193C25.6154 6.17565 25.3993 5.25696 25.0897 4.46109C24.7802 3.62592 24.3528 2.92339 23.6503 2.22578C22.9527 1.52816 22.2502 1.09584 21.4248 0.776506C20.624 0.467001 19.7103 0.250839 18.374 0.191886C17.0279 0.12802 16.6005 0.113281 13.1861 0.113281Z" fill="#EC3397"/>
<path id="Vector_2" d="M13.1859 6.22974C9.61921 6.22974 6.72559 9.12336 6.72559 12.69C6.72559 16.2567 9.61921 19.1503 13.1859 19.1503C16.7526 19.1503 19.6462 16.2567 19.6462 12.69C19.6462 9.12336 16.7526 6.22974 13.1859 6.22974ZM13.1859 16.8806C10.872 16.8806 8.99529 15.004 8.99529 12.69C8.99529 10.3761 10.872 8.49944 13.1859 8.49944C15.4998 8.49944 17.3765 10.3761 17.3765 12.69C17.3765 15.004 15.4998 16.8806 13.1859 16.8806Z" fill="#EC3397"/>
<path id="Vector_3" d="M21.41 5.97429C21.41 6.80947 20.732 7.48252 19.9018 7.48252C19.0666 7.48252 18.3936 6.80455 18.3936 5.97429C18.3936 5.13912 19.0715 4.46606 19.9018 4.46606C20.732 4.46606 21.41 5.14403 21.41 5.97429Z" fill="#EC3397"/>
</g>
</svg>
