<svg width="26" height="26" viewBox="0 0 26 26" fill="none" xmlns="http://www.w3.org/2000/svg">
<g id="LinkedIn - Original" clip-path="url(#clip0_765_127576)">
<path id="Vector" d="M24.0857 0.113281H2.64588C2.15342 0.113281 1.68113 0.308909 1.33291 0.657129C0.984691 1.00535 0.789062 1.47764 0.789062 1.97009V23.4099C0.789062 23.9024 0.984691 24.3747 1.33291 24.7229C1.68113 25.0711 2.15342 25.2667 2.64588 25.2667H24.0857C24.5781 25.2667 25.0504 25.0711 25.3987 24.7229C25.7469 24.3747 25.9425 23.9024 25.9425 23.4099V1.97009C25.9425 1.47764 25.7469 1.00535 25.3987 0.657129C25.0504 0.308909 24.5781 0.113281 24.0857 0.113281ZM8.28618 21.5409H4.50444V9.52835H8.28618V21.5409ZM6.39269 7.86368C5.96372 7.86127 5.54507 7.73183 5.18959 7.49171C4.83411 7.2516 4.55772 6.91155 4.39531 6.5145C4.2329 6.11746 4.19174 5.6812 4.27704 5.26078C4.36233 4.84036 4.57025 4.45463 4.87456 4.15227C5.17887 3.84991 5.56593 3.64447 5.98688 3.56188C6.40784 3.47929 6.84382 3.52324 7.23982 3.6882C7.63582 3.85315 7.97408 4.13172 8.21191 4.48873C8.44974 4.84575 8.57649 5.26522 8.57615 5.6942C8.58019 5.9814 8.52638 6.26648 8.4179 6.53244C8.30943 6.7984 8.14852 7.0398 7.94477 7.24225C7.74101 7.4447 7.49858 7.60406 7.23193 7.71082C6.96528 7.81759 6.67986 7.86957 6.39269 7.86368ZM22.2254 21.5513H18.4454V14.9887C18.4454 13.0533 17.6227 12.4559 16.5606 12.4559C15.4392 12.4559 14.3387 13.3014 14.3387 15.0377V21.5513H10.557V9.53709H14.1937V11.2018H14.2427C14.6077 10.4629 15.8864 9.19996 17.8375 9.19996C19.9476 9.19996 22.2271 10.4524 22.2271 14.1206L22.2254 21.5513Z" fill="#0A66C2"/>
</g>
<defs>
<clipPath id="clip0_765_127576">
<rect width="25.1534" height="25.1534" fill="white" transform="translate(0.789062 0.113281)"/>
</clipPath>
</defs>
</svg>
