<svg width="19" height="19" viewBox="0 0 19 19" fill="none" xmlns="http://www.w3.org/2000/svg">
<mask id="mask0_765_119237" style="mask-type:alpha" maskUnits="userSpaceOnUse" x="0" y="0" width="19" height="19">
<rect width="19" height="19" fill="#D9D9D9"/>
</mask>
<g mask="url(#mask0_765_119237)">
<path d="M9.50033 9.50065C9.93574 9.50065 10.3085 9.34562 10.6186 9.03555C10.9286 8.72548 11.0837 8.35273 11.0837 7.91732C11.0837 7.4819 10.9286 7.10916 10.6186 6.79909C10.3085 6.48902 9.93574 6.33398 9.50033 6.33398C9.06491 6.33398 8.69217 6.48902 8.3821 6.79909C8.07203 7.10916 7.91699 7.4819 7.91699 7.91732C7.91699 8.35273 8.07203 8.72548 8.3821 9.03555C8.69217 9.34562 9.06491 9.50065 9.50033 9.50065ZM9.50033 15.3194C11.11 13.8416 12.3041 12.4991 13.0826 11.2918C13.8611 10.0845 14.2503 9.01246 14.2503 8.07565C14.2503 6.63746 13.7918 5.45985 12.8748 4.54284C11.9578 3.62582 10.833 3.16732 9.50033 3.16732C8.16769 3.16732 7.04286 3.62582 6.12585 4.54284C5.20883 5.45985 4.75033 6.63746 4.75033 8.07565C4.75033 9.01246 5.13956 10.0845 5.91803 11.2918C6.69651 12.4991 7.8906 13.8416 9.50033 15.3194ZM9.50033 17.4173C7.37602 15.6097 5.78939 13.9307 4.74043 12.3803C3.69147 10.83 3.16699 9.39509 3.16699 8.07565C3.16699 6.09648 3.80362 4.51975 5.07689 3.34544C6.35015 2.17114 7.82463 1.58398 9.50033 1.58398C11.176 1.58398 12.6505 2.17114 13.9238 3.34544C15.197 4.51975 15.8337 6.09648 15.8337 8.07565C15.8337 9.39509 15.3092 10.83 14.2602 12.3803C13.2113 13.9307 11.6246 15.6097 9.50033 17.4173Z" fill="#1B1B1B"/>
</g>
</svg>
