<svg width="12" height="17" viewBox="0 0 12 17" fill="none" xmlns="http://www.w3.org/2000/svg">
<path d="M5.99998 0.0507812C2.69154 0.0507812 0 2.75007 0 6.06794C0 11.4032 5.39888 15.6022 5.62874 15.7784L6.00002 16.0629L6.37106 15.7784C6.60092 15.6021 12 11.4032 12 6.06794C12 2.75003 9.30846 0.0507812 5.99998 0.0507812ZM5.99954 14.496C4.81703 13.4755 1.22249 10.0451 1.22249 6.06794C1.22249 3.42601 3.36536 1.27677 5.99998 1.27677C8.63413 1.27677 10.7775 3.42605 10.7775 6.06794C10.7775 10.0366 7.18154 13.4739 5.99954 14.496Z" fill="white"/>
<path d="M6.10968 9.05787C4.46826 9.05787 3.13281 7.72158 3.13281 6.07899C3.13281 4.43631 4.46821 3.09985 6.10968 3.09985C7.75111 3.09985 9.08652 4.43627 9.08652 6.07899C9.08652 7.72158 7.75111 9.05787 6.10968 9.05787ZM6.10968 4.07687C5.00654 4.07687 4.10905 4.97505 4.10905 6.07903C4.10905 7.18289 5.00654 8.08094 6.10968 8.08094C7.21279 8.08094 8.11028 7.18289 8.11028 6.07903C8.11028 4.97501 7.21283 4.07687 6.10968 4.07687Z" fill="white"/>
</svg>
