<svg width="16" height="16" viewBox="0 0 16 16" fill="none" xmlns="http://www.w3.org/2000/svg">
<g id="Frame">
<path id="Vector" fill-rule="evenodd" clip-rule="evenodd" d="M2.14062 5.98681C2.14062 5.67744 2.26352 5.38073 2.48229 5.16197C2.70105 4.94321 2.99775 4.82031 3.30713 4.82031H9.47363C9.62685 4.82025 9.7786 4.85037 9.92018 4.90896C10.0618 4.96756 10.1904 5.05347 10.2988 5.1618C10.4072 5.27012 10.4931 5.39874 10.5518 5.5403C10.6104 5.68186 10.6406 5.83358 10.6406 5.98681V10.0108C10.6406 10.164 10.6104 10.3158 10.5518 10.4573C10.4931 10.5989 10.4072 10.7275 10.2988 10.8358C10.1904 10.9442 10.0618 11.0301 9.92018 11.0887C9.7786 11.1473 9.62685 11.1774 9.47363 11.1773H3.30763C2.99825 11.1773 2.70155 11.0544 2.48278 10.8357C2.26402 10.6169 2.14113 10.3202 2.14113 10.0108V5.98681H2.14062ZM3.30713 5.82031C3.26297 5.82031 3.22062 5.83785 3.18939 5.86908C3.15817 5.9003 3.14062 5.94265 3.14062 5.98681V10.0108C3.14062 10.1028 3.21513 10.1773 3.30713 10.1773H9.47363C9.56563 10.1773 9.64062 10.1023 9.64062 10.0108V5.98681C9.64062 5.96491 9.6363 5.94321 9.6279 5.92298C9.61951 5.90275 9.6072 5.88437 9.59168 5.8689C9.57617 5.85343 9.55775 5.84118 9.5375 5.83284C9.51724 5.8245 9.49553 5.82025 9.47363 5.82031H3.30713Z" fill="#262626"/>
<path id="Vector_2" d="M13.8528 5.35938H11.7812V6.35938H13.8528V5.35938ZM11.7812 7.50238H13.8528V8.50238H11.7812V7.50238ZM13.8528 9.64488H11.7812V10.6449H13.8528V9.64488Z" fill="#262626"/>
<path id="Vector_3" fill-rule="evenodd" clip-rule="evenodd" d="M14.8335 2.67969C15.1429 2.67969 15.4396 2.80259 15.6583 3.02135C15.8771 3.24011 16 3.53681 16 3.84619V12.1562C16 12.4656 15.8771 12.7623 15.6583 12.981C15.4396 13.1998 15.1429 13.3227 14.8335 13.3227H1.1665C1.01327 13.3227 0.861543 13.2925 0.719984 13.2338C0.578425 13.1752 0.449809 13.0892 0.341483 12.9809C0.233157 12.8725 0.147244 12.7438 0.0886511 12.6022C0.0300584 12.4607 -6.55718e-05 12.3089 1.07168e-07 12.1557V3.84619C1.07168e-07 3.53681 0.122899 3.24011 0.34166 3.02135C0.560421 2.80259 0.857125 2.67969 1.1665 2.67969H14.8335ZM15 3.84619C15 3.80203 14.9825 3.75968 14.9512 3.72845C14.92 3.69723 14.8777 3.67969 14.8335 3.67969H1.1665C1.14463 3.67969 1.12298 3.68399 1.10278 3.69236C1.08258 3.70073 1.06423 3.71299 1.04877 3.72845C1.03331 3.74392 1.02104 3.76227 1.01267 3.78247C1.00431 3.80267 1 3.82432 1 3.84619V12.1562C1 12.2477 1.075 12.3227 1.1665 12.3227H14.8335C14.9255 12.3227 15 12.2477 15 12.1557V3.84619Z" fill="#262626"/>
</g>
</svg>
