<svg width="16" height="16" viewBox="0 0 16 16" fill="none" xmlns="http://www.w3.org/2000/svg">
<g id="Frame">
<path id="Vector" d="M1.14844 1.85544L14.1484 14.8554L14.8554 14.1484L1.85544 1.14844L1.14844 1.85544Z" fill="#262626"/>
<path id="Vector_2" fill-rule="evenodd" clip-rule="evenodd" d="M11.3641 9.60052L11.4791 8.22402L12.1491 7.55402L13.8741 7.98502C13.9742 8.0101 14.0795 8.00362 14.1758 7.96647C14.272 7.92932 14.3544 7.86332 14.4116 7.77752L15.4116 6.27752C15.4481 6.22289 15.4734 6.16162 15.4862 6.0972C15.4989 6.03278 15.4989 5.96648 15.486 5.90208C15.4732 5.83768 15.4477 5.77644 15.4112 5.72187C15.3747 5.6673 15.3278 5.62045 15.2731 5.58402L12.5351 3.75902L12.7406 2.32052C12.7581 2.19813 12.7295 2.07363 12.6605 1.97104C12.5916 1.86846 12.487 1.79506 12.3671 1.76502L11.3671 1.51502C11.2587 1.48782 11.1442 1.49776 11.0421 1.54326C10.9399 1.58876 10.856 1.66719 10.8036 1.76602L8.66262 5.81002L7.76562 6.00252L8.60763 6.84452L9.04013 6.75202L10.4781 8.18952L10.4381 8.67452L11.3641 9.60052ZM10.9956 7.29302L9.69663 5.99402L11.5041 2.58002L11.6871 2.62552L11.5006 3.92952C11.4873 4.02287 11.5007 4.11808 11.5392 4.20416C11.5776 4.29024 11.6397 4.36369 11.7181 4.41602L14.3021 6.13852L13.7751 6.92952L12.1166 6.51452C12.0328 6.49361 11.945 6.49477 11.8617 6.51791C11.7785 6.54104 11.7026 6.58535 11.6416 6.64652L10.9956 7.29302Z" fill="#262626"/>
<path id="Vector_3" d="M11.101 12.8614L10.1745 11.9354L10.0445 13.4974H8.928L8.498 10.9154C8.47858 10.7985 8.41831 10.6924 8.32793 10.6158C8.23756 10.5393 8.12294 10.4973 8.0045 10.4974H5.0045C4.88615 10.4974 4.77165 10.5395 4.68138 10.616C4.59111 10.6925 4.53091 10.7986 4.5115 10.9154L4.081 13.4974H2.966L2.538 8.14438L5.705 7.46588L4.863 6.62337L2.1905 7.19637L0.884 5.67188L0.125 6.32288L1.519 7.94938L2.006 14.0374C2.01606 14.1627 2.07294 14.2796 2.16532 14.3648C2.2577 14.4501 2.3788 14.4974 2.5045 14.4974H4.5045C4.62285 14.4973 4.73735 14.4553 4.82762 14.3787C4.91789 14.3022 4.97809 14.1961 4.9975 14.0794L5.428 11.4974H7.581L8.011 14.0794C8.03042 14.1962 8.09069 14.3024 8.18107 14.3789C8.27145 14.4555 8.38606 14.4974 8.5045 14.4974H10.5045C10.63 14.4974 10.7509 14.4503 10.8432 14.3654C10.9355 14.2805 10.9926 14.1639 11.003 14.0389L11.101 12.8614Z" fill="#262626"/>
</g>
</svg>
