<svg width="16" height="16" viewBox="0 0 16 16" fill="none" xmlns="http://www.w3.org/2000/svg">
<g id="Frame">
<path id="Vector" d="M10.1662 1.63163C10.8012 2.10163 11.1947 2.44362 11.1947 3.07612C11.1947 3.18762 11.1577 3.31212 11.0677 3.46913C10.9747 3.63213 10.8467 3.79562 10.6877 3.99612L10.6772 4.00913C10.5302 4.19413 10.3562 4.41313 10.2222 4.64913C10.0807 4.89613 9.96369 5.19312 9.96369 5.53762C9.96369 6.72412 10.7947 7.33962 11.3902 7.78062L11.3967 7.78562L11.9917 6.98212C11.3572 6.51213 10.9637 6.17013 10.9637 5.53713C10.9637 5.42613 11.0007 5.30212 11.0902 5.14412C11.1832 4.98112 11.3117 4.81813 11.4707 4.61763L11.4812 4.60463C11.6277 4.41963 11.8022 4.20063 11.9362 3.96463C12.0777 3.71763 12.1947 3.42013 12.1947 3.07612C12.1947 1.88962 11.3637 1.27413 10.7682 0.833125L10.7612 0.828125L10.1662 1.63163ZM13.2432 2.86263C13.8782 3.33263 14.2712 3.67412 14.2712 4.30662C14.2712 4.41812 14.2347 4.54263 14.1447 4.70013C14.0517 4.86313 13.9237 5.02663 13.7647 5.22662L13.7537 5.24013C13.6072 5.42463 13.4332 5.64362 13.2987 5.87962C13.1577 6.12663 13.0407 6.42413 13.0407 6.76813C13.0407 7.95463 13.8717 8.57013 14.4672 9.01113L14.4737 9.01612L15.0687 8.21263C14.4342 7.74263 14.0407 7.40112 14.0407 6.76813C14.0407 6.65663 14.0777 6.53262 14.1672 6.37512C14.2602 6.21212 14.3887 6.04862 14.5472 5.84863L14.5582 5.83512C14.7047 5.65062 14.8787 5.43113 15.0132 5.19513C15.1542 4.94863 15.2717 4.65112 15.2717 4.30662C15.2717 3.12063 14.4407 2.50513 13.8447 2.06363L13.8382 2.05862L13.2432 2.86263ZM11.9192 14.0376L9.96419 12.0821V13.0371H1.11719V10.9606H8.84219L7.84219 9.96062H0.617188C0.484579 9.96062 0.357402 10.0133 0.263634 10.1071C0.169866 10.2008 0.117188 10.328 0.117188 10.4606V13.5376C0.117188 13.6702 0.169866 13.7974 0.263634 13.8912C0.357402 13.9849 0.484579 14.0376 0.617188 14.0376H11.9192ZM12.0852 9.96062H15.3867C15.5193 9.96062 15.6465 10.0133 15.7402 10.1071C15.834 10.2008 15.8867 10.328 15.8867 10.4606V13.5376C15.8867 13.6021 15.8744 13.6659 15.8502 13.7256L14.8867 12.7626V10.9606H13.4252V11.3006L12.0852 9.96062ZM1.64869 2.35262L15.1487 15.8526L15.8557 15.1456L2.35569 1.64562L1.64869 2.35262Z" fill="#262626"/>
</g>
</svg>
