<svg width="127" height="127" viewBox="0 0 127 127" fill="none" xmlns="http://www.w3.org/2000/svg">
<mask id="mask0_765_127587" style="mask-type:alpha" maskUnits="userSpaceOnUse" x="0" y="0" width="127" height="127">
<rect width="127" height="127" fill="#D9D9D9"/>
</mask>
<g mask="url(#mask0_765_127587)">
<path d="M34.6578 87.3125L42.3307 74.0833C36.5099 74.0833 31.5269 72.0108 27.3818 67.8656C23.2366 63.7205 21.1641 58.7375 21.1641 52.9167C21.1641 47.0958 23.2366 42.1128 27.3818 37.9677C31.5269 33.8226 36.5099 31.75 42.3307 31.75C48.1516 31.75 53.1346 33.8226 57.2797 37.9677C61.4248 42.1128 63.4974 47.0958 63.4974 52.9167C63.4974 54.9451 63.2549 56.8193 62.7698 58.5391C62.2847 60.2589 61.5571 61.9125 60.587 63.5L43.7859 92.6042C43.345 93.3979 42.7276 94.0373 41.9339 94.5224C41.1401 95.0075 40.2582 95.25 39.288 95.25C37.2596 95.25 35.7382 94.3681 34.724 92.6042C33.7097 90.8403 33.6877 89.0764 34.6578 87.3125ZM82.2828 87.3125L89.9557 74.0833C84.1349 74.0833 79.1519 72.0108 75.0068 67.8656C70.8616 63.7205 68.7891 58.7375 68.7891 52.9167C68.7891 47.0958 70.8616 42.1128 75.0068 37.9677C79.1519 33.8226 84.1349 31.75 89.9557 31.75C95.7766 31.75 100.76 33.8226 104.905 37.9677C109.05 42.1128 111.122 47.0958 111.122 52.9167C111.122 54.9451 110.88 56.8193 110.395 58.5391C109.91 60.2589 109.182 61.9125 108.212 63.5L91.4109 92.6042C90.97 93.3979 90.3526 94.0373 89.5589 94.5224C88.7651 95.0075 87.8832 95.25 86.913 95.25C84.8846 95.25 83.3632 94.3681 82.349 92.6042C81.3347 90.8403 81.3127 89.0764 82.2828 87.3125Z" fill="#E95F29"/>
</g>
</svg>
