<svg width="127" height="127" viewBox="0 0 127 127" fill="none" xmlns="http://www.w3.org/2000/svg">
<rect width="127" height="127" fill="#1E1E1E"/>
<g id="V3">
<path d="M-1974 -6281C-1974 -6282.1 -1973.1 -6283 -1972 -6283H32127C32128.1 -6283 32129 -6282.1 32129 -6281V18775C32129 18776.1 32128.1 18777 32127 18777H-1972C-1973.1 18777 -1974 18776.1 -1974 18775V-6281Z" fill="#E8E8E8"/>
<path d="M-1972 -6282H32127V-6284H-1972V-6282ZM32128 -6281V18775H32130V-6281H32128ZM32127 18776H-1972V18778H32127V18776ZM-1973 18775V-6281H-1975V18775H-1973ZM-1972 18776C-1972.55 18776 -1973 18775.6 -1973 18775H-1975C-1975 18776.7 -1973.66 18778 -1972 18778V18776ZM32128 18775C32128 18775.6 32127.6 18776 32127 18776V18778C32128.7 18778 32130 18776.7 32130 18775H32128ZM32127 -6282C32127.6 -6282 32128 -6281.55 32128 -6281H32130C32130 -6282.66 32128.7 -6284 32127 -6284V-6282ZM-1972 -6284C-1973.66 -6284 -1975 -6282.66 -1975 -6281H-1973C-1973 -6281.55 -1972.55 -6282 -1972 -6282V-6284Z" fill="black" fill-opacity="0.1"/>
<g id="Home Page">
<path d="M-964 -5408C-964 -5409.1 -963.105 -5410 -962 -5410H11257C11258.1 -5410 11259 -5409.1 11259 -5408V6245C11259 6246.1 11258.1 6247 11257 6247H-962C-963.105 6247 -964 6246.1 -964 6245V-5408Z" fill="#F7F7F7"/>
<path d="M-962 -5409H11257V-5411H-962V-5409ZM11258 -5408V6245H11260V-5408H11258ZM11257 6246H-962V6248H11257V6246ZM-963 6245V-5408H-965V6245H-963ZM-962 6246C-962.552 6246 -963 6245.55 -963 6245H-965C-965 6246.66 -963.657 6248 -962 6248V6246ZM11258 6245C11258 6245.55 11257.6 6246 11257 6246V6248C11258.7 6248 11260 6246.66 11260 6245H11258ZM11257 -5409C11257.6 -5409 11258 -5408.55 11258 -5408H11260C11260 -5409.66 11258.7 -5411 11257 -5411V-5409ZM-962 -5411C-963.657 -5411 -965 -5409.66 -965 -5408H-963C-963 -5408.55 -962.553 -5409 -962 -5409V-5411Z" fill="black" fill-opacity="0.1"/>
<g id="Home - Web" clip-path="url(#clip0_753_117273)">
<rect width="1440" height="8058" transform="translate(-242 -2887)" fill="white"/>
<rect id="Rectangle 39593" x="-242" y="-44" width="1441" height="560" fill="#FFF3EE"/>
<g id="Group 1000006108">
<path id="Rectangle 39602" d="M33 91C33 83.268 39.268 77 47 77H910C917.732 77 924 83.268 924 91V381C924 388.732 917.732 395 910 395H47C39.268 395 33 388.732 33 381V91Z" fill="white"/>
</g>
<g id="format_quote">
<mask id="mask0_753_117273" style="mask-type:alpha" maskUnits="userSpaceOnUse" x="0" y="0" width="127" height="127">
<rect id="Bounding box" x="127" y="127" width="127" height="127" transform="rotate(180 127 127)" fill="#D9D9D9"/>
</mask>
<g mask="url(#mask0_753_117273)">
<path id="format_quote_2" d="M92.3422 39.6875L84.6693 52.9167C90.4901 52.9167 95.4731 54.9892 99.6182 59.1344C103.763 63.2795 105.836 68.2625 105.836 74.0833C105.836 79.9042 103.763 84.8872 99.6182 89.0323C95.4731 93.1774 90.4901 95.25 84.6693 95.25C78.8484 95.25 73.8654 93.1774 69.7203 89.0323C65.5752 84.8872 63.5026 79.9042 63.5026 74.0833C63.5026 72.0549 63.7451 70.1807 64.2302 68.4609C64.7153 66.7411 65.4429 65.0875 66.413 63.5L83.2141 34.3958C83.655 33.6021 84.2724 32.9627 85.0661 32.4776C85.8599 31.9925 86.7418 31.75 87.712 31.75C89.7404 31.75 91.2618 32.6319 92.276 34.3958C93.2903 36.1597 93.3123 37.9236 92.3422 39.6875ZM44.7172 39.6875L37.0443 52.9167C42.8651 52.9167 47.8481 54.9892 51.9932 59.1344C56.1384 63.2795 58.2109 68.2625 58.2109 74.0833C58.2109 79.9042 56.1384 84.8872 51.9932 89.0323C47.8481 93.1774 42.8651 95.25 37.0443 95.25C31.2234 95.25 26.2404 93.1774 22.0953 89.0323C17.9502 84.8872 15.8776 79.9042 15.8776 74.0833C15.8776 72.0549 16.1201 70.1807 16.6052 68.4609C17.0903 66.7411 17.8179 65.0875 18.788 63.5L35.5891 34.3958C36.03 33.6021 36.6474 32.9627 37.4411 32.4776C38.2349 31.9925 39.1168 31.75 40.087 31.75C42.1154 31.75 43.6368 32.6319 44.651 34.3958C45.6653 36.1597 45.6873 37.9236 44.7172 39.6875Z" fill="#E95F29"/>
</g>
</g>
</g>
</g>
</g>
<defs>
<clipPath id="clip0_753_117273">
<rect width="1440" height="8058" fill="white" transform="translate(-242 -2887)"/>
</clipPath>
</defs>
</svg>
