<svg width="28" height="28" viewBox="0 0 28 28" fill="none" xmlns="http://www.w3.org/2000/svg">
<g id="solar:calendar-bold">
<path id="Vector" d="M9.04439 2.91675C9.04439 2.68468 8.9522 2.46212 8.78811 2.29803C8.62401 2.13394 8.40145 2.04175 8.16939 2.04175C7.93732 2.04175 7.71476 2.13394 7.55067 2.29803C7.38658 2.46212 7.29439 2.68468 7.29439 2.91675V4.76008C5.61439 4.89425 4.51306 5.22325 3.70339 6.03408C2.89256 6.84375 2.56356 7.94625 2.42822 9.62508H25.5772C25.4419 7.94508 25.1129 6.84375 24.302 6.03408C23.4924 5.22325 22.3899 4.89425 20.7111 4.75891V2.91675C20.7111 2.68468 20.6189 2.46212 20.4548 2.29803C20.2907 2.13394 20.0681 2.04175 19.8361 2.04175C19.604 2.04175 19.3814 2.13394 19.2173 2.29803C19.0532 2.46212 18.9611 2.68468 18.9611 2.91675V4.68191C18.1852 4.66675 17.3149 4.66675 16.3361 4.66675H11.6694C10.6906 4.66675 9.82022 4.66675 9.04439 4.68191V2.91675Z" fill="#E95F29"/>
<path id="Vector_2" fill-rule="evenodd" clip-rule="evenodd" d="M2.3335 14C2.3335 13.0212 2.3335 12.1508 2.34866 11.375H25.6517C25.6668 12.1508 25.6668 13.0212 25.6668 14V16.3333C25.6668 20.7328 25.6668 22.9332 24.2995 24.2993C22.9333 25.6667 20.733 25.6667 16.3335 25.6667H11.6668C7.26733 25.6667 5.067 25.6667 3.70083 24.2993C2.3335 22.9332 2.3335 20.7328 2.3335 16.3333V14ZM19.8335 16.3333C20.1429 16.3333 20.4397 16.2104 20.6585 15.9916C20.8773 15.7728 21.0002 15.4761 21.0002 15.1667C21.0002 14.8572 20.8773 14.5605 20.6585 14.3417C20.4397 14.1229 20.1429 14 19.8335 14C19.5241 14 19.2273 14.1229 19.0085 14.3417C18.7897 14.5605 18.6668 14.8572 18.6668 15.1667C18.6668 15.4761 18.7897 15.7728 19.0085 15.9916C19.2273 16.2104 19.5241 16.3333 19.8335 16.3333ZM19.8335 21C20.1429 21 20.4397 20.8771 20.6585 20.6583C20.8773 20.4395 21.0002 20.1428 21.0002 19.8333C21.0002 19.5239 20.8773 19.2272 20.6585 19.0084C20.4397 18.7896 20.1429 18.6667 19.8335 18.6667C19.5241 18.6667 19.2273 18.7896 19.0085 19.0084C18.7897 19.2272 18.6668 19.5239 18.6668 19.8333C18.6668 20.1428 18.7897 20.4395 19.0085 20.6583C19.2273 20.8771 19.5241 21 19.8335 21ZM15.1668 15.1667C15.1668 15.4761 15.0439 15.7728 14.8251 15.9916C14.6063 16.2104 14.3096 16.3333 14.0002 16.3333C13.6907 16.3333 13.394 16.2104 13.1752 15.9916C12.9564 15.7728 12.8335 15.4761 12.8335 15.1667C12.8335 14.8572 12.9564 14.5605 13.1752 14.3417C13.394 14.1229 13.6907 14 14.0002 14C14.3096 14 14.6063 14.1229 14.8251 14.3417C15.0439 14.5605 15.1668 14.8572 15.1668 15.1667ZM15.1668 19.8333C15.1668 20.1428 15.0439 20.4395 14.8251 20.6583C14.6063 20.8771 14.3096 21 14.0002 21C13.6907 21 13.394 20.8771 13.1752 20.6583C12.9564 20.4395 12.8335 20.1428 12.8335 19.8333C12.8335 19.5239 12.9564 19.2272 13.1752 19.0084C13.394 18.7896 13.6907 18.6667 14.0002 18.6667C14.3096 18.6667 14.6063 18.7896 14.8251 19.0084C15.0439 19.2272 15.1668 19.5239 15.1668 19.8333ZM8.16683 16.3333C8.47625 16.3333 8.773 16.2104 8.99179 15.9916C9.21058 15.7728 9.3335 15.4761 9.3335 15.1667C9.3335 14.8572 9.21058 14.5605 8.99179 14.3417C8.773 14.1229 8.47625 14 8.16683 14C7.85741 14 7.56067 14.1229 7.34187 14.3417C7.12308 14.5605 7.00016 14.8572 7.00016 15.1667C7.00016 15.4761 7.12308 15.7728 7.34187 15.9916C7.56067 16.2104 7.85741 16.3333 8.16683 16.3333ZM8.16683 21C8.47625 21 8.773 20.8771 8.99179 20.6583C9.21058 20.4395 9.3335 20.1428 9.3335 19.8333C9.3335 19.5239 9.21058 19.2272 8.99179 19.0084C8.773 18.7896 8.47625 18.6667 8.16683 18.6667C7.85741 18.6667 7.56067 18.7896 7.34187 19.0084C7.12308 19.2272 7.00016 19.5239 7.00016 19.8333C7.00016 20.1428 7.12308 20.4395 7.34187 20.6583C7.56067 20.8771 7.85741 21 8.16683 21Z" fill="#E95F29"/>
</g>
</svg>
