<svg width="20" height="20" viewBox="0 0 20 20" fill="none" xmlns="http://www.w3.org/2000/svg">
<circle cx="10" cy="10" r="10" fill="#E95F29" fill-opacity="0.2"/>
<mask id="mask0_765_126792" style="mask-type:alpha" maskUnits="userSpaceOnUse" x="4" y="4" width="12" height="12">
<rect x="4" y="4" width="12" height="12" rx="6.00002" fill="#D9D9D9"/>
</mask>
<g mask="url(#mask0_765_126792)">
<mask id="mask1_765_126792" style="mask-type:alpha" maskUnits="userSpaceOnUse" x="1" y="2" width="17" height="17">
<rect x="1.73438" y="2.17969" width="16" height="16" fill="#D9D9D9"/>
</mask>
<g mask="url(#mask1_765_126792)">
<path d="M9.73127 11.3813C9.0646 11.3813 8.49793 11.1479 8.03126 10.6813C7.56459 10.2146 7.33126 9.64793 7.33126 8.98127C7.33126 8.3146 7.56459 7.74793 8.03126 7.28126C8.49793 6.81459 9.0646 6.58126 9.73127 6.58126C10.3979 6.58126 10.9646 6.81459 11.4313 7.28126C11.8979 7.74793 12.1313 8.3146 12.1313 8.98127C12.1313 9.64793 11.8979 10.2146 11.4313 10.6813C10.9646 11.1479 10.3979 11.3813 9.73127 11.3813ZM9.73127 10.1813C10.0646 10.1813 10.3479 10.0646 10.5813 9.83127C10.8146 9.59793 10.9313 9.3146 10.9313 8.98127C10.9313 8.64793 10.8146 8.3646 10.5813 8.13126C10.3479 7.89793 10.0646 7.78126 9.73127 7.78126C9.39793 7.78126 9.1146 7.89793 8.88126 8.13126C8.64793 8.3646 8.53126 8.64793 8.53126 8.98127C8.53126 9.3146 8.64793 9.59793 8.88126 9.83127C9.1146 10.0646 9.39793 10.1813 9.73127 10.1813ZM9.73127 16.5813C8.23126 16.2146 6.98959 15.3646 6.00625 14.0313C5.02292 12.6979 4.53125 11.2202 4.53125 9.59793V5.78126L9.73127 3.78125L14.9313 5.78126V9.59793C14.9313 11.2202 14.4396 12.6979 13.4563 14.0313C12.4729 15.3646 11.2313 16.2146 9.73127 16.5813ZM9.73127 5.06459L5.73125 6.59793V9.59793C5.73125 10.1868 5.81459 10.759 5.98125 11.3146C6.14792 11.8702 6.3757 12.3868 6.66459 12.8646C7.14237 12.6424 7.63959 12.4729 8.15626 12.3563C8.67293 12.2396 9.19793 12.1813 9.73127 12.1813C10.2646 12.1813 10.7896 12.2396 11.3063 12.3563C11.8229 12.4729 12.3202 12.6424 12.7979 12.8646C13.0868 12.3868 13.3146 11.8702 13.4813 11.3146C13.6479 10.759 13.7313 10.1868 13.7313 9.59793V6.59793L9.73127 5.06459ZM9.73127 13.3813C9.33126 13.3813 8.93682 13.4202 8.54793 13.4979C8.15904 13.5757 7.78126 13.6924 7.41459 13.8479C7.73682 14.1924 8.09237 14.4924 8.48126 14.748C8.87015 15.0035 9.28682 15.198 9.73127 15.3313C10.1757 15.198 10.5924 15.0035 10.9813 14.748C11.3702 14.4924 11.7257 14.1924 12.0479 13.8479C11.6813 13.6924 11.3035 13.5757 10.9146 13.4979C10.5257 13.4202 10.1313 13.3813 9.73127 13.3813Z" fill="#1C1B1F"/>
</g>
</g>
</svg>
