<svg width="501" height="203" viewBox="0 0 501 203" fill="none" xmlns="http://www.w3.org/2000/svg">
<g filter="url(#filter0_d_12_7)">
<path d="M25.1065 202.493L476 202.383C489.531 202.379 500.494 191.408 500.487 177.877L500.406 24.9988C500.399 11.4678 489.424 0.501438 475.893 0.504736L24.9997 0.614645C11.4688 0.617944 0.505541 11.5896 0.5127 25.1206L0.593576 177.999C0.600734 191.53 11.5756 202.496 25.1065 202.493Z" fill="url(#paint0_linear_12_7)" shape-rendering="crispEdges"/>
<path d="M25.1065 202.493L476 202.383C489.531 202.379 500.494 191.408 500.487 177.877L500.406 24.9988C500.399 11.4678 489.424 0.501438 475.893 0.504736L24.9997 0.614645C11.4688 0.617944 0.505541 11.5896 0.5127 25.1206L0.593576 177.999C0.600734 191.53 11.5756 202.496 25.1065 202.493Z" stroke="#E95F29" shape-rendering="crispEdges"/>
</g>
<defs>
<filter id="filter0_d_12_7" x="-3.9873" y="0.00473022" width="508.974" height="210.988" filterUnits="userSpaceOnUse" color-interpolation-filters="sRGB">
<feFlood flood-opacity="0" result="BackgroundImageFix"/>
<feColorMatrix in="SourceAlpha" type="matrix" values="0 0 0 0 0 0 0 0 0 0 0 0 0 0 0 0 0 0 127 0" result="hardAlpha"/>
<feOffset dy="4"/>
<feGaussianBlur stdDeviation="2"/>
<feComposite in2="hardAlpha" operator="out"/>
<feColorMatrix type="matrix" values="0 0 0 0 0 0 0 0 0 0 0 0 0 0 0 0 0 0 0.25 0"/>
<feBlend mode="normal" in2="BackgroundImageFix" result="effect1_dropShadow_12_7"/>
<feBlend mode="normal" in="SourceGraphic" in2="effect1_dropShadow_12_7" result="shape"/>
</filter>
<linearGradient id="paint0_linear_12_7" x1="249.558" y1="211.767" x2="249.488" y2="-74.332" gradientUnits="userSpaceOnUse">
<stop stop-color="#EF5B25" stop-opacity="0.6"/>
<stop offset="1" stop-color="#212121" stop-opacity="0"/>
</linearGradient>
</defs>
</svg>
