<svg width="21" height="21" viewBox="0 0 21 21" fill="none" xmlns="http://www.w3.org/2000/svg">
<g id="Frame">
<path id="Vector" d="M6.00781 4.77344C6.00781 5.02066 5.9345 5.26234 5.79715 5.4679C5.6598 5.67346 5.46457 5.83368 5.23617 5.92829C5.00776 6.0229 4.75643 6.04765 4.51395 5.99942C4.27147 5.95119 4.04875 5.83214 3.87393 5.65732C3.69911 5.48251 3.58006 5.25978 3.53183 5.0173C3.4836 4.77482 3.50835 4.52349 3.60296 4.29508C3.69757 4.06668 3.85779 3.87145 4.06335 3.7341C4.26891 3.59675 4.51059 3.52344 4.75781 3.52344C5.08933 3.52344 5.40728 3.65513 5.6417 3.88955C5.87612 4.12398 6.00781 4.44192 6.00781 4.77344ZM10.0703 3.52344C9.82309 3.52344 9.58141 3.59675 9.37585 3.7341C9.17029 3.87145 9.01007 4.06668 8.91546 4.29508C8.82085 4.52349 8.7961 4.77482 8.84433 5.0173C8.89256 5.25978 9.01161 5.48251 9.18643 5.65732C9.36125 5.83214 9.58397 5.95119 9.82645 5.99942C10.0689 6.04765 10.3203 6.0229 10.5487 5.92829C10.7771 5.83368 10.9723 5.67346 11.1097 5.4679C11.247 5.26234 11.3203 5.02066 11.3203 4.77344C11.3203 4.44192 11.1886 4.12398 10.9542 3.88955C10.7198 3.65513 10.4018 3.52344 10.0703 3.52344ZM15.3828 6.02344C15.63 6.02344 15.8717 5.95013 16.0773 5.81278C16.2828 5.67542 16.4431 5.4802 16.5377 5.25179C16.6323 5.02338 16.657 4.77205 16.6088 4.52958C16.5606 4.2871 16.4415 4.06437 16.2667 3.88955C16.0919 3.71474 15.8692 3.59569 15.6267 3.54746C15.3842 3.49922 15.1329 3.52398 14.9045 3.61859C14.6761 3.7132 14.4808 3.87341 14.3435 4.07898C14.2061 4.28454 14.1328 4.52621 14.1328 4.77344C14.1328 5.10496 14.2645 5.4229 14.4989 5.65732C14.7334 5.89174 15.0513 6.02344 15.3828 6.02344ZM4.75781 8.83594C4.51059 8.83594 4.26891 8.90925 4.06335 9.0466C3.85779 9.18395 3.69757 9.37918 3.60296 9.60758C3.50835 9.83599 3.4836 10.0873 3.53183 10.3298C3.58006 10.5723 3.69911 10.795 3.87393 10.9698C4.04875 11.1446 4.27147 11.2637 4.51395 11.3119C4.75643 11.3602 5.00776 11.3354 5.23617 11.2408C5.46457 11.1462 5.6598 10.986 5.79715 10.7804C5.9345 10.5748 6.00781 10.3332 6.00781 10.0859C6.00781 9.75442 5.87612 9.43648 5.6417 9.20205C5.40728 8.96763 5.08933 8.83594 4.75781 8.83594ZM10.0703 8.83594C9.82309 8.83594 9.58141 8.90925 9.37585 9.0466C9.17029 9.18395 9.01007 9.37918 8.91546 9.60758C8.82085 9.83599 8.7961 10.0873 8.84433 10.3298C8.89256 10.5723 9.01161 10.795 9.18643 10.9698C9.36125 11.1446 9.58397 11.2637 9.82645 11.3119C10.0689 11.3602 10.3203 11.3354 10.5487 11.2408C10.7771 11.1462 10.9723 10.986 11.1097 10.7804C11.247 10.5748 11.3203 10.3332 11.3203 10.0859C11.3203 9.75442 11.1886 9.43648 10.9542 9.20205C10.7198 8.96763 10.4018 8.83594 10.0703 8.83594ZM15.3828 8.83594C15.1356 8.83594 14.8939 8.90925 14.6884 9.0466C14.4828 9.18395 14.3226 9.37918 14.228 9.60758C14.1334 9.83599 14.1086 10.0873 14.1568 10.3298C14.2051 10.5723 14.3241 10.795 14.4989 10.9698C14.6737 11.1446 14.8965 11.2637 15.139 11.3119C15.3814 11.3602 15.6328 11.3354 15.8612 11.2408C16.0896 11.1462 16.2848 10.986 16.4222 10.7804C16.5595 10.5748 16.6328 10.3332 16.6328 10.0859C16.6328 9.75442 16.5011 9.43648 16.2667 9.20205C16.0323 8.96763 15.7143 8.83594 15.3828 8.83594ZM4.75781 14.1484C4.51059 14.1484 4.26891 14.2218 4.06335 14.3591C3.85779 14.4965 3.69757 14.6917 3.60296 14.9201C3.50835 15.1485 3.4836 15.3998 3.53183 15.6423C3.58006 15.8848 3.69911 16.1075 3.87393 16.2823C4.04875 16.4571 4.27147 16.5762 4.51395 16.6244C4.75643 16.6727 5.00776 16.6479 5.23617 16.5533C5.46457 16.4587 5.6598 16.2985 5.79715 16.0929C5.9345 15.8873 6.00781 15.6457 6.00781 15.3984C6.00781 15.0669 5.87612 14.749 5.6417 14.5146C5.40728 14.2801 5.08933 14.1484 4.75781 14.1484ZM10.0703 14.1484C9.82309 14.1484 9.58141 14.2218 9.37585 14.3591C9.17029 14.4965 9.01007 14.6917 8.91546 14.9201C8.82085 15.1485 8.7961 15.3998 8.84433 15.6423C8.89256 15.8848 9.01161 16.1075 9.18643 16.2823C9.36125 16.4571 9.58397 16.5762 9.82645 16.6244C10.0689 16.6727 10.3203 16.6479 10.5487 16.5533C10.7771 16.4587 10.9723 16.2985 11.1097 16.0929C11.247 15.8873 11.3203 15.6457 11.3203 15.3984C11.3203 15.0669 11.1886 14.749 10.9542 14.5146C10.7198 14.2801 10.4018 14.1484 10.0703 14.1484ZM15.3828 14.1484C15.1356 14.1484 14.8939 14.2218 14.6884 14.3591C14.4828 14.4965 14.3226 14.6917 14.228 14.9201C14.1334 15.1485 14.1086 15.3998 14.1568 15.6423C14.2051 15.8848 14.3241 16.1075 14.4989 16.2823C14.6737 16.4571 14.8965 16.5762 15.139 16.6244C15.3814 16.6727 15.6328 16.6479 15.8612 16.5533C16.0896 16.4587 16.2848 16.2985 16.4222 16.0929C16.5595 15.8873 16.6328 15.6457 16.6328 15.3984C16.6328 15.0669 16.5011 14.749 16.2667 14.5146C16.0323 14.2801 15.7143 14.1484 15.3828 14.1484Z" fill="#0B0D0F"/>
</g>
</svg>
