<svg width="114" height="24" viewBox="0 0 114 24" fill="none" xmlns="http://www.w3.org/2000/svg">
<path d="M7.61664 4.25753C8.05207 2.91744 9.94793 2.91744 10.3834 4.25753L11.3676 7.28673C11.5623 7.88603 12.1208 8.2918 12.751 8.2918H15.936C17.3451 8.2918 17.931 10.0949 16.791 10.9231L14.2142 12.7952C13.7044 13.1656 13.4911 13.8222 13.6858 14.4215L14.6701 17.4507C15.1055 18.7908 13.5717 19.9051 12.4318 19.0769L9.85496 17.2048C9.34516 16.8344 8.65484 16.8344 8.14504 17.2048L5.56825 19.0769C4.4283 19.9051 2.89451 18.7908 3.32993 17.4507L4.31418 14.4215C4.5089 13.8222 4.29558 13.1656 3.78578 12.7952L1.20899 10.9231C0.069046 10.0949 0.654901 8.2918 2.06395 8.2918H5.24904C5.87919 8.2918 6.43767 7.88604 6.6324 7.28673L7.61664 4.25753Z" fill="#E95F29"/>
<path d="M31.6166 4.25753C32.0521 2.91744 33.9479 2.91744 34.3834 4.25753L35.3676 7.28673C35.5623 7.88603 36.1208 8.2918 36.751 8.2918H39.936C41.3451 8.2918 41.931 10.0949 40.791 10.9231L38.2142 12.7952C37.7044 13.1656 37.4911 13.8222 37.6858 14.4215L38.6701 17.4507C39.1055 18.7908 37.5717 19.9051 36.4318 19.0769L33.855 17.2048C33.3452 16.8344 32.6548 16.8344 32.145 17.2048L29.5682 19.0769C28.4283 19.9051 26.8945 18.7908 27.3299 17.4507L28.3142 14.4215C28.5089 13.8222 28.2956 13.1656 27.7858 12.7952L25.209 10.9231C24.069 10.0949 24.6549 8.2918 26.064 8.2918H29.249C29.8792 8.2918 30.4377 7.88604 30.6324 7.28673L31.6166 4.25753Z" fill="#E95F29"/>
<path d="M55.6166 4.25753C56.0521 2.91744 57.9479 2.91744 58.3834 4.25753L59.3676 7.28673C59.5623 7.88603 60.1208 8.2918 60.751 8.2918H63.936C65.3451 8.2918 65.931 10.0949 64.791 10.9231L62.2142 12.7952C61.7044 13.1656 61.4911 13.8222 61.6858 14.4215L62.6701 17.4507C63.1055 18.7908 61.5717 19.9051 60.4318 19.0769L57.855 17.2048C57.3452 16.8344 56.6548 16.8344 56.145 17.2048L53.5682 19.0769C52.4283 19.9051 50.8945 18.7908 51.3299 17.4507L52.3142 14.4215C52.5089 13.8222 52.2956 13.1656 51.7858 12.7952L49.209 10.9231C48.069 10.0949 48.6549 8.2918 50.064 8.2918H53.249C53.8792 8.2918 54.4377 7.88604 54.6324 7.28673L55.6166 4.25753Z" fill="#E95F29"/>
<path d="M79.6166 4.25753C80.0521 2.91744 81.9479 2.91744 82.3834 4.25753L83.3676 7.28673C83.5623 7.88603 84.1208 8.2918 84.751 8.2918H87.936C89.3451 8.2918 89.931 10.0949 88.791 10.9231L86.2142 12.7952C85.7044 13.1656 85.4911 13.8222 85.6858 14.4215L86.6701 17.4507C87.1055 18.7908 85.5717 19.9051 84.4318 19.0769L81.855 17.2048C81.3452 16.8344 80.6548 16.8344 80.145 17.2048L77.5682 19.0769C76.4283 19.9051 74.8945 18.7908 75.3299 17.4507L76.3142 14.4215C76.5089 13.8222 76.2956 13.1656 75.7858 12.7952L73.209 10.9231C72.069 10.0949 72.6549 8.2918 74.064 8.2918H77.249C77.8792 8.2918 78.4377 7.88604 78.6324 7.28673L79.6166 4.25753Z" fill="#E95F29"/>
<path d="M103.617 4.25753C104.052 2.91744 105.948 2.91744 106.383 4.25753L107.368 7.28673C107.562 7.88603 108.121 8.2918 108.751 8.2918H111.936C113.345 8.2918 113.931 10.0949 112.791 10.9231L110.214 12.7952C109.704 13.1656 109.491 13.8222 109.686 14.4215L110.67 17.4507C111.105 18.7908 109.572 19.9051 108.432 19.0769L105.855 17.2048C105.345 16.8344 104.655 16.8344 104.145 17.2048L101.568 19.0769C100.428 19.9051 98.8945 18.7908 99.3299 17.4507L100.314 14.4215C100.509 13.8222 100.296 13.1656 99.7858 12.7952L97.209 10.9231C96.069 10.0949 96.6549 8.2918 98.064 8.2918H101.249C101.879 8.2918 102.438 7.88604 102.632 7.28673L103.617 4.25753Z" fill="#E95F29"/>
</svg>
