<svg width="21" height="20" viewBox="0 0 21 20" fill="none" xmlns="http://www.w3.org/2000/svg">
<g clip-path="url(#clip0_765_122854)">
<path d="M9.09292 2.92513C9.39292 2.00412 10.6959 2.00412 10.9949 2.92513L12.0649 6.21712C12.1303 6.41761 12.2574 6.5923 12.428 6.71623C12.5986 6.84015 12.804 6.90697 13.0149 6.90712H16.4769C17.4459 6.90712 17.8479 8.14712 17.0649 8.71712L14.2649 10.7511C14.0939 10.8752 13.9666 11.0501 13.9013 11.251C13.8359 11.4518 13.8357 11.6682 13.9009 11.8691L14.9709 15.1611C15.2709 16.0821 14.2159 16.8491 13.4309 16.2791L10.6309 14.2451C10.4601 14.1211 10.2545 14.0543 10.0434 14.0543C9.83236 14.0543 9.62671 14.1211 9.45592 14.2451L6.65592 16.2791C5.87192 16.8491 4.81792 16.0821 5.11692 15.1611L6.18692 11.8691C6.25209 11.6682 6.25198 11.4518 6.18659 11.251C6.1212 11.0501 5.99389 10.8752 5.82292 10.7511L3.02392 8.71813C2.24092 8.14813 2.64392 6.90812 3.61192 6.90812H7.07292C7.28397 6.90818 7.48962 6.84146 7.66044 6.71752C7.83126 6.59358 7.95849 6.41878 8.02392 6.21812L9.09392 2.92612L9.09292 2.92513Z" fill="#FACC15"/>
</g>
<defs>
<clipPath id="clip0_765_122854">
<rect width="20" height="20" fill="white" transform="translate(0.0400391)"/>
</clipPath>
</defs>
</svg>
