<svg width="16" height="16" viewBox="0 0 16 16" fill="none" xmlns="http://www.w3.org/2000/svg">
<g id="Frame">
<path id="Vector" fill-rule="evenodd" clip-rule="evenodd" d="M16 3.5C16 3.10218 15.842 2.72064 15.5607 2.43934C15.2794 2.15804 14.8978 2 14.5 2H1.5C1.10218 2 0.720644 2.15804 0.43934 2.43934C0.158035 2.72064 0 3.10218 0 3.5L0 11C0 11.3978 0.158035 11.7794 0.43934 12.0607C0.720644 12.342 1.10218 12.5 1.5 12.5H3.1965L2.1315 13.662C2.06589 13.7335 2.02251 13.8226 2.00666 13.9184C1.99081 14.0141 2.00318 14.1124 2.04225 14.2013C2.08132 14.2901 2.14541 14.3657 2.22669 14.4187C2.30797 14.4718 2.40294 14.5 2.5 14.5H13.5C13.5971 14.5 13.692 14.4718 13.7733 14.4187C13.8546 14.3657 13.9187 14.2901 13.9578 14.2013C13.9968 14.1124 14.0092 14.0141 13.9933 13.9184C13.9775 13.8226 13.9341 13.7335 13.8685 13.662L12.8035 12.5H14.5C14.8978 12.5 15.2794 12.342 15.5607 12.0607C15.842 11.7794 16 11.3978 16 11V3.5ZM11.4465 12.5H4.5535L3.6365 13.5H12.3635L11.4465 12.5ZM14.5 3C14.6326 3 14.7598 3.05268 14.8536 3.14645C14.9473 3.24021 15 3.36739 15 3.5V11C15 11.1326 14.9473 11.2598 14.8536 11.3536C14.7598 11.4473 14.6326 11.5 14.5 11.5H1.5C1.36739 11.5 1.24021 11.4473 1.14645 11.3536C1.05268 11.2598 1 11.1326 1 11V3.5C1 3.36739 1.05268 3.24021 1.14645 3.14645C1.24021 3.05268 1.36739 3 1.5 3H14.5Z" fill="#262626"/>
</g>
</svg>
