<svg width="26" height="26" viewBox="0 0 26 26" fill="none" xmlns="http://www.w3.org/2000/svg">
<g id="Twitter - Original" clip-path="url(#clip0_765_127574)">
<path id="Vector" d="M8.36338 22.9093C17.8553 22.9093 23.0469 15.0453 23.0469 8.22573C23.0469 8.00237 23.0469 7.78001 23.0319 7.55866C24.0418 6.82812 24.9137 5.92357 25.6066 4.88737C24.6648 5.30492 23.6656 5.57862 22.6425 5.69932C23.7199 5.05444 24.5262 4.04001 24.9113 2.84491C23.8983 3.44608 22.79 3.86973 21.6343 4.09755C20.8562 3.27019 19.8272 2.72233 18.7063 2.53875C17.5855 2.35518 16.4354 2.54612 15.4341 3.08203C14.4327 3.61795 13.6359 4.46895 13.1669 5.50336C12.6979 6.53777 12.5829 7.69791 12.8397 8.80426C10.7879 8.70134 8.78075 8.16812 6.94843 7.23922C5.1161 6.31032 3.49959 5.00649 2.2038 3.41237C1.54387 4.54846 1.34175 5.89337 1.63858 7.17325C1.93542 8.45314 2.70891 9.57177 3.80155 10.3014C2.98024 10.2773 2.17681 10.0558 1.45926 9.65546V9.72085C1.45959 10.9123 1.87204 12.067 2.62667 12.9891C3.38129 13.9111 4.43162 14.5438 5.59952 14.7797C4.83976 14.987 4.0426 15.0172 3.2693 14.8683C3.59921 15.8936 4.24126 16.7902 5.10571 17.4328C5.97016 18.0754 7.0138 18.4317 8.09071 18.4521C7.02073 19.2932 5.79542 19.915 4.48488 20.282C3.17434 20.6491 1.8043 20.7541 0.453125 20.5912C2.81318 22.1056 5.55919 22.909 8.36338 22.9053" fill="#1DA1F2"/>
</g>
<defs>
<clipPath id="clip0_765_127574">
<rect width="25.1534" height="25.1534" fill="white" transform="translate(0.453125 0.113281)"/>
</clipPath>
</defs>
</svg>
