<svg width="20" height="20" viewBox="0 0 20 20" fill="none" xmlns="http://www.w3.org/2000/svg">
<g clip-path="url(#clip0_32_44)">
<path d="M10 20C15.5228 20 20 15.5228 20 10C20 4.47715 15.5228 0 10 0C4.47715 0 0 4.47715 0 10C0 15.5228 4.47715 20 10 20Z" fill="#E95F29" fill-opacity="0.2"/>
<mask id="mask0_32_44" style="mask-type:luminance" maskUnits="userSpaceOnUse" x="5" y="5" width="11" height="11">
<path d="M15.5 5H5V15.5H15.5V5Z" fill="white"/>
</mask>
<g mask="url(#mask0_32_44)">
<path d="M13.2838 5V5.64286H14.0089L12.5943 6.98425C12.0934 6.47176 11.3951 6.15307 10.6236 6.15307C9.58586 6.15307 8.68032 6.72959 8.21012 7.57908C8.16984 7.57732 8.12936 7.57625 8.08863 7.57625C6.56863 7.57625 5.33203 8.81285 5.33203 10.3329C5.33203 11.7441 6.39811 12.9109 7.76719 13.0706V13.9249H6.80482V14.5678H7.76723V15.5H8.41009V14.5678H9.4145V13.9249H8.41009V13.0706C9.31137 12.9655 10.0812 12.4239 10.5022 11.6634C10.5424 11.6652 10.5829 11.6663 10.6236 11.6663C12.1436 11.6663 13.3802 10.4297 13.3802 8.90967C13.3802 8.39314 13.2373 7.90942 12.9891 7.49578L14.5255 6.03895V6.83738H15.1684V5H13.2838ZM8.08867 12.4466C6.92315 12.4466 5.97493 11.4984 5.97493 10.3328C5.97493 9.21271 6.85072 8.29349 7.95346 8.22354C7.89704 8.44297 7.86702 8.67287 7.86702 8.90967C7.86702 10.1497 8.69004 11.2009 9.81848 11.5462C9.43568 12.0903 8.80304 12.4466 8.08867 12.4466ZM10.1076 10.9596C9.1907 10.7286 8.5099 9.89722 8.5099 8.90967C8.5099 8.69155 8.54312 8.48104 8.60475 8.28293C9.52163 8.51385 10.2024 9.3453 10.2024 10.3328C10.2024 10.551 10.1692 10.7615 10.1076 10.9596ZM10.7588 11.0189C10.8153 10.7995 10.8453 10.5696 10.8453 10.3328C10.8453 9.09284 10.0223 8.04157 8.89385 7.69628C9.27665 7.15217 9.90931 6.79589 10.6237 6.79589C11.7892 6.79589 12.7374 7.74411 12.7374 8.90965C12.7374 10.0298 11.8616 10.949 10.7588 11.0189Z" fill="black"/>
<mask id="mask1_32_44" style="mask-type:luminance" maskUnits="userSpaceOnUse" x="5" y="5" width="11" height="11">
<path d="M13.2838 5V5.64286H14.0089L12.5943 6.98425C12.0934 6.47176 11.3951 6.15307 10.6236 6.15307C9.58586 6.15307 8.68032 6.72959 8.21012 7.57908C8.16984 7.57732 8.12936 7.57625 8.08863 7.57625C6.56863 7.57625 5.33203 8.81285 5.33203 10.3329C5.33203 11.7441 6.39811 12.9109 7.76719 13.0706V13.9249H6.80482V14.5678H7.76723V15.5H8.41009V14.5678H9.4145V13.9249H8.41009V13.0706C9.31137 12.9655 10.0812 12.4239 10.5022 11.6634C10.5424 11.6652 10.5829 11.6663 10.6236 11.6663C12.1436 11.6663 13.3802 10.4297 13.3802 8.90967C13.3802 8.39314 13.2373 7.90942 12.9891 7.49578L14.5255 6.03895V6.83738H15.1684V5H13.2838ZM8.08867 12.4466C6.92315 12.4466 5.97493 11.4984 5.97493 10.3328C5.97493 9.21271 6.85072 8.29349 7.95346 8.22354C7.89704 8.44297 7.86702 8.67287 7.86702 8.90967C7.86702 10.1497 8.69004 11.2009 9.81848 11.5462C9.43568 12.0903 8.80304 12.4466 8.08867 12.4466ZM10.1076 10.9596C9.1907 10.7286 8.5099 9.89722 8.5099 8.90967C8.5099 8.69155 8.54312 8.48104 8.60475 8.28293C9.52163 8.51385 10.2024 9.3453 10.2024 10.3328C10.2024 10.551 10.1692 10.7615 10.1076 10.9596ZM10.7588 11.0189C10.8153 10.7995 10.8453 10.5696 10.8453 10.3328C10.8453 9.09284 10.0223 8.04157 8.89385 7.69628C9.27665 7.15217 9.90931 6.79589 10.6237 6.79589C11.7892 6.79589 12.7374 7.74411 12.7374 8.90965C12.7374 10.0298 11.8616 10.949 10.7588 11.0189Z" fill="white"/>
</mask>
<g mask="url(#mask1_32_44)">
<path d="M13.2838 4.99997V-1.00003H7.28374V4.99997H13.2838ZM13.2838 5.64283H7.28374V11.6429H13.2838V5.64283ZM14.0089 5.64283L18.1373 9.99673L29.0568 -0.357173H14.0089V5.64283ZM12.5943 6.98422L8.30301 11.1778L12.4338 15.4048L16.7226 11.3382L12.5943 6.98422ZM8.21009 7.57905L7.94761 13.5733L11.6601 13.7359L13.4596 10.4847L8.21009 7.57905ZM7.76716 13.0706H13.7672V7.72985L8.46239 7.11101L7.76716 13.0706ZM7.76716 13.9249V19.9249H13.7672V13.9249H7.76716ZM6.80479 13.9249V7.92488H0.804795V13.9249H6.80479ZM6.80479 14.5678H0.804795V20.5678H6.80479V14.5678ZM7.7672 14.5678H13.7672V8.56774H7.7672V14.5678ZM7.7672 15.5H1.7672V21.5H7.7672V15.5ZM8.41006 15.5V21.5H14.4101V15.5H8.41006ZM8.41006 14.5678V8.56772H2.41006V14.5678H8.41006ZM9.41447 14.5678V20.5678H15.4145V14.5678H9.41447ZM9.41447 13.9249H15.4145V7.92486H9.41447V13.9249ZM8.41006 13.9249H2.41006V19.9249H8.41006V13.9249ZM8.41006 13.0706L7.71481 7.11099L2.41006 7.72984V13.0706H8.41006ZM10.5022 11.6634L10.7646 5.66915L7.05211 5.50659L5.25258 8.75785L10.5022 11.6634ZM12.9891 7.49575L8.86071 3.14184L5.36715 6.45443L7.84412 10.5828L12.9891 7.49575ZM14.5255 6.03892H20.5255V-7.9187L10.3972 1.685L14.5255 6.03892ZM14.5255 6.83735H8.52551V12.8374H14.5255V6.83735ZM15.1684 6.83735V12.8374H21.1684V6.83735H15.1684ZM15.1684 4.99997H21.1684V-1.00003H15.1684V4.99997ZM7.95343 8.22351L13.7645 9.71754L15.8227 1.71227L7.57359 2.23555L7.95343 8.22351ZM9.81845 11.5462L14.7258 14.9985L19.4874 8.23L11.574 5.80872L9.81845 11.5462ZM10.1076 10.9596L8.6422 16.7779L14.1503 18.1651L15.8369 12.7412L10.1076 10.9596ZM8.60472 8.2829L10.0701 2.46459L4.56254 1.07751L2.87552 6.50068L8.60472 8.2829ZM10.7588 11.0189L4.9478 9.52488L2.88967 17.53L11.1386 17.0069L10.7588 11.0189ZM8.89382 7.69625L3.98657 4.24387L-0.775146 11.0123L7.13821 13.4337L8.89382 7.69625ZM7.28374 4.99997V5.64283H19.2838V4.99997H7.28374ZM13.2838 11.6429H14.0089V-0.357173H13.2838V11.6429ZM9.88051 1.28893L8.46584 2.63032L16.7226 11.3382L18.1373 9.99673L9.88051 1.28893ZM16.8855 2.79072C15.3068 1.17528 13.082 0.153041 10.6236 0.153041V12.1531C9.70813 12.1531 8.88003 11.7682 8.30301 11.1778L16.8855 2.79072ZM10.6236 0.153041C7.30917 0.153041 4.44119 1.99847 2.96059 4.67341L13.4596 10.4847C12.9194 11.4607 11.8625 12.1531 10.6236 12.1531V0.153041ZM8.47256 1.5848C8.36307 1.58 8.23336 1.57622 8.0886 1.57622V13.5763C8.02529 13.5763 7.97655 13.5746 7.94761 13.5733L8.47256 1.5848ZM8.0886 1.57622C3.25486 1.57622 -0.667994 5.49914 -0.667994 10.3329H11.332C11.332 12.1265 9.88234 13.5763 8.0886 13.5763V1.57622ZM-0.667994 10.3329C-0.667994 14.8281 2.71767 18.5222 7.07192 19.0302L8.46239 7.11101C10.0785 7.29954 11.332 8.66019 11.332 10.3329H-0.667994ZM1.76716 13.0706V13.9249H13.7672V13.0706H1.76716ZM7.76716 7.92488H6.80479V19.9249H7.76716V7.92488ZM0.804795 13.9249V14.5678H12.8048V13.9249H0.804795ZM6.80479 20.5678H7.7672V8.56774H6.80479V20.5678ZM1.7672 14.5678V15.5H13.7672V14.5678H1.7672ZM7.7672 21.5H8.41006V9.49997H7.7672V21.5ZM14.4101 15.5V14.5678H2.41006V15.5H14.4101ZM8.41006 20.5678H9.41447V8.56772H8.41006V20.5678ZM15.4145 14.5678V13.9249H3.41447V14.5678H15.4145ZM9.41447 7.92486H8.41006V19.9249H9.41447V7.92486ZM14.4101 13.9249V13.0706H2.41006V13.9249H14.4101ZM9.10531 19.0302C11.9912 18.6935 14.4249 16.9661 15.7517 14.569L5.25258 8.75785C5.73749 7.88173 6.63152 7.23736 7.71481 7.11099L9.10531 19.0302ZM10.2397 17.6577C10.3491 17.6625 10.4788 17.6663 10.6236 17.6663V5.66624C10.687 5.66624 10.7358 5.66789 10.7646 5.66915L10.2397 17.6577ZM10.6236 17.6663C15.4573 17.6663 19.3802 13.7434 19.3802 8.90964H7.38019C7.38019 7.1159 8.82991 5.66624 10.6236 5.66624V17.6663ZM19.3802 8.90964C19.3802 7.27175 18.924 5.7254 18.1341 4.40877L7.84412 10.5828C7.55052 10.0934 7.38019 9.51447 7.38019 8.90964H19.3802ZM17.1175 11.8497L18.6539 10.3929L10.3972 1.685L8.86071 3.14184L17.1175 11.8497ZM8.52551 6.03892V6.83735H20.5255V6.03892H8.52551ZM14.5255 12.8374H15.1684V0.837345H14.5255V12.8374ZM21.1684 6.83735V4.99997H9.16836V6.83735H21.1684ZM15.1684 -1.00003H13.2838V11H15.1684V-1.00003ZM8.08864 6.44656C10.2369 6.44656 11.9749 8.18467 11.9749 10.3328H-0.0250952C-0.0250952 14.812 3.60938 18.4466 8.08864 18.4466V6.44656ZM11.9749 10.3328C11.9749 12.4017 10.3677 14.0825 8.33328 14.2115L7.57359 2.23555C3.33369 2.5045 -0.0250952 6.02374 -0.0250952 10.3328H11.9749ZM2.14242 6.72948C1.96179 7.43202 1.86699 8.16374 1.86699 8.90964H13.867C13.867 9.18193 13.8323 9.45386 13.7645 9.71754L2.14242 6.72948ZM1.86699 8.90964C1.86699 12.867 4.48956 16.1903 8.06297 17.2836L11.574 5.80872C12.8905 6.21154 13.867 7.43231 13.867 8.90964H1.86699ZM4.91115 8.09387C5.59966 7.11518 6.76083 6.44656 8.08864 6.44656V18.4466C10.8452 18.4466 13.2717 17.0654 14.7258 14.9985L4.91115 8.09387ZM11.5729 5.14123C13.2524 5.56421 14.5099 7.07668 14.5099 8.90964H2.50987C2.50987 12.7177 5.12894 15.8931 8.6422 16.7779L11.5729 5.14123ZM14.5099 8.90964C14.5099 9.30387 14.4494 9.6939 14.3339 10.0651L2.87552 6.50068C2.63679 7.26811 2.50987 8.07916 2.50987 8.90964H14.5099ZM7.13937 14.1012C5.4598 13.6782 4.2024 12.1657 4.2024 10.3328H16.2024C16.2024 6.52482 13.5834 3.34942 10.0701 2.46459L7.13937 14.1012ZM4.2024 10.3328C4.2024 9.93815 4.26299 9.5483 4.37819 9.17786L15.8369 12.7412C16.0754 11.9746 16.2024 11.1638 16.2024 10.3328H4.2024ZM16.5699 12.513C16.7505 11.8104 16.8453 11.0788 16.8453 10.3328H4.84526C4.84526 10.0605 4.88002 9.78853 4.9478 9.52488L16.5699 12.513ZM16.8453 10.3328C16.8453 6.37551 14.2227 3.05225 10.6495 1.95885L7.13821 13.4337C5.82176 13.0309 4.84526 11.8101 4.84526 10.3328H16.8453ZM13.8011 11.1487C13.1126 12.1272 11.9516 12.7959 10.6237 12.7959V0.795858C7.86703 0.795858 5.44062 2.17707 3.98657 4.24387L13.8011 11.1487ZM10.6237 12.7959C8.47546 12.7959 6.73739 11.0578 6.73739 8.90962L18.7374 8.90984C18.7374 4.43059 15.1029 0.795858 10.6237 0.795858V12.7959ZM6.73739 8.90962C6.73747 6.84109 8.34446 5.15996 10.3791 5.03094L11.1386 17.0069C15.3787 16.738 18.7373 13.2186 18.7374 8.90984L6.73739 8.90962Z" fill="black"/>
</g>
</g>
</g>
<defs>
<clipPath id="clip0_32_44">
<rect width="20" height="20" fill="white"/>
</clipPath>
</defs>
</svg>
