<svg width="575" height="43" viewBox="0 0 575 43" fill="none" xmlns="http://www.w3.org/2000/svg">
<path d="M554.517 1L595.094 41.58" stroke="#E95F29" stroke-opacity="0.3" stroke-width="2" stroke-miterlimit="10"/>
<path d="M534.743 1L575.32 41.58" stroke="#E95F29" stroke-opacity="0.3" stroke-width="2" stroke-miterlimit="10"/>
<path d="M514.967 1L555.547 41.58" stroke="#E95F29" stroke-opacity="0.3" stroke-width="2" stroke-miterlimit="10"/>
<path d="M495.22 1L535.797 41.58" stroke="#E95F29" stroke-opacity="0.3" stroke-width="2" stroke-miterlimit="10"/>
<path d="M475.443 1L516.023 41.58" stroke="#E95F29" stroke-opacity="0.3" stroke-width="2" stroke-miterlimit="10"/>
<path d="M455.673 1L496.25 41.58" stroke="#E95F29" stroke-opacity="0.3" stroke-width="2" stroke-miterlimit="10"/>
<path d="M435.9 1L476.477 41.58" stroke="#E95F29" stroke-opacity="0.3" stroke-width="2" stroke-miterlimit="10"/>
<path d="M416.123 1L456.703 41.58" stroke="#E95F29" stroke-opacity="0.3" stroke-width="2" stroke-miterlimit="10"/>
<path d="M396.376 1L436.953 41.58" stroke="#E95F29" stroke-opacity="0.3" stroke-width="2" stroke-miterlimit="10"/>
<path d="M376.6 1L417.18 41.58" stroke="#E95F29" stroke-opacity="0.3" stroke-width="2" stroke-miterlimit="10"/>
<path d="M356.829 1L397.406 41.58" stroke="#E95F29" stroke-opacity="0.3" stroke-width="2" stroke-miterlimit="10"/>
<path d="M337.056 1L377.633 41.58" stroke="#E95F29" stroke-opacity="0.3" stroke-width="2" stroke-miterlimit="10"/>
<path d="M317.279 1L357.859 41.58" stroke="#E95F29" stroke-opacity="0.3" stroke-width="2" stroke-miterlimit="10"/>
<path d="M297.532 1L338.109 41.58" stroke="#E95F29" stroke-opacity="0.3" stroke-width="2" stroke-miterlimit="10"/>
<path d="M277.756 1L318.336 41.58" stroke="#E95F29" stroke-opacity="0.3" stroke-width="2" stroke-miterlimit="10"/>
<path d="M257.985 1L298.562 41.58" stroke="#E95F29" stroke-opacity="0.3" stroke-width="2" stroke-miterlimit="10"/>
<path d="M238.212 1L278.789 41.58" stroke="#E95F29" stroke-opacity="0.3" stroke-width="2" stroke-miterlimit="10"/>
<path d="M218.436 1L259.016 41.58" stroke="#E95F29" stroke-opacity="0.3" stroke-width="2" stroke-miterlimit="10"/>
<path d="M198.689 1L239.266 41.58" stroke="#E95F29" stroke-opacity="0.3" stroke-width="2" stroke-miterlimit="10"/>
<path d="M178.912 1L219.492 41.58" stroke="#E95F29" stroke-opacity="0.3" stroke-width="2" stroke-miterlimit="10"/>
<path d="M159.142 1L199.719 41.58" stroke="#E95F29" stroke-opacity="0.3" stroke-width="2" stroke-miterlimit="10"/>
<path d="M139.36 1L179.938 41.58" stroke="#E95F29" stroke-opacity="0.3" stroke-width="2" stroke-miterlimit="10"/>
<path d="M119.584 1L160.164 41.58" stroke="#E95F29" stroke-opacity="0.3" stroke-width="2" stroke-miterlimit="10"/>
<path d="M99.8371 1L140.414 41.58" stroke="#E95F29" stroke-opacity="0.3" stroke-width="2" stroke-miterlimit="10"/>
<path d="M80.0606 1L120.641 41.58" stroke="#E95F29" stroke-opacity="0.3" stroke-width="2" stroke-miterlimit="10"/>
<path d="M60.2901 1L100.867 41.58" stroke="#E95F29" stroke-opacity="0.3" stroke-width="2" stroke-miterlimit="10"/>
<path d="M40.5167 1L81.0938 41.58" stroke="#E95F29" stroke-opacity="0.3" stroke-width="2" stroke-miterlimit="10"/>
<path d="M20.7638 1L61.3438 41.58" stroke="#E95F29" stroke-opacity="0.3" stroke-width="2" stroke-miterlimit="10"/>
<path d="M0.993335 1L41.5703 41.58" stroke="#E95F29" stroke-opacity="0.3" stroke-width="2" stroke-miterlimit="10"/>
</svg>
