<svg width="16" height="16" viewBox="0 0 16 16" fill="none" xmlns="http://www.w3.org/2000/svg">
<g id="Frame">
<path id="Vector" fill-rule="evenodd" clip-rule="evenodd" d="M7.99856 4.00025C7.39265 3.99392 6.7915 4.1078 6.22988 4.33529C5.66827 4.56278 5.15733 4.89937 4.72663 5.3256C4.29594 5.75182 3.95402 6.25921 3.72068 6.81842C3.48734 7.37763 3.36719 7.97756 3.36719 8.5835C3.36719 9.18944 3.48734 9.78937 3.72068 10.3486C3.95402 10.9078 4.29594 11.4152 4.72663 11.8414C5.15733 12.2676 5.66827 12.6042 6.22988 12.8317C6.7915 13.0592 7.39265 13.1731 7.99856 13.1667C9.20582 13.1541 10.3594 12.6657 11.2086 11.8076C12.0578 10.9494 12.5342 9.79083 12.5342 8.5835C12.5342 7.37617 12.0578 6.2176 11.2086 5.35945C10.3594 4.50129 9.20582 4.01286 7.99856 4.00025ZM4.41506 8.58375C4.41533 8.1004 4.51339 7.62209 4.70333 7.17762C4.89327 6.73315 5.17117 6.3317 5.52029 5.99742C5.86942 5.66314 6.28257 5.40295 6.73487 5.2325C7.18717 5.06205 7.66929 4.98487 8.1522 5.00559C8.63511 5.02631 9.10883 5.14452 9.54487 5.35309C9.98091 5.56166 10.3702 5.85629 10.6895 6.21925C11.0087 6.5822 11.2511 7.00599 11.4023 7.46509C11.5535 7.9242 11.6102 8.40915 11.5691 8.89075C11.0351 9.43325 10.5926 9.83375 9.71306 9.83375C9.28506 9.83375 8.82706 9.61175 8.22606 9.30475L8.17606 9.27975C7.64256 9.00675 6.97756 8.66675 6.28406 8.66675C5.49206 8.66675 4.92406 8.91175 4.47406 9.23225C4.43486 9.01831 4.41512 8.80125 4.41506 8.58375ZM4.81756 10.2352C5.12005 10.8176 5.57668 11.3058 6.13763 11.6464C6.69858 11.987 7.3423 12.167 7.99856 12.1667C8.58616 12.1671 9.16483 12.0229 9.68349 11.7467C10.2022 11.4706 10.6449 11.071 10.9726 10.5833C10.6241 10.7358 10.2131 10.8333 9.71256 10.8333C9.01956 10.8333 8.35456 10.4937 7.82156 10.2212L7.77156 10.1958C7.17006 9.88875 6.71156 9.66675 6.28406 9.66675C5.62356 9.66675 5.20906 9.89275 4.81756 10.2352Z" fill="#262626"/>
<path id="Vector_2" d="M10.4141 2.83594H12.5811V3.83594H10.4141V2.83594Z" fill="#262626"/>
<path id="Vector_3" fill-rule="evenodd" clip-rule="evenodd" d="M2.278 0.5C1.93905 0.5 1.61399 0.634646 1.37432 0.874318C1.13465 1.11399 1 1.43905 1 1.778V14.222C1 14.5609 1.13465 14.886 1.37432 15.1257C1.61399 15.3654 1.93905 15.5 2.278 15.5H13.722C14.0609 15.5 14.386 15.3654 14.6257 15.1257C14.8654 14.886 15 14.5609 15 14.222V1.778C15 1.43905 14.8654 1.11399 14.6257 0.874318C14.386 0.634646 14.0609 0.5 13.722 0.5H2.278ZM2 1.778C2 1.6245 2.1245 1.5 2.278 1.5H13.722C13.8755 1.5 14 1.6245 14 1.778V14.222C14 14.2585 13.9928 14.2947 13.9788 14.3284C13.9649 14.3621 13.9444 14.3928 13.9186 14.4186C13.8928 14.4444 13.8621 14.4649 13.8284 14.4788C13.7947 14.4928 13.7585 14.5 13.722 14.5H2.278C2.20427 14.5 2.13356 14.4707 2.08142 14.4186C2.02929 14.3664 2 14.2957 2 14.222V1.778Z" fill="#262626"/>
</g>
</svg>
