<svg width="30" height="30" viewBox="0 0 30 30" fill="none" xmlns="http://www.w3.org/2000/svg">
<mask id="mask0_765_123124" style="mask-type:luminance" maskUnits="userSpaceOnUse" x="0" y="0" width="30" height="30">
<path d="M0 0H30V30H0V0Z" fill="white"/>
</mask>
<g mask="url(#mask0_765_123124)">
<path d="M7.93372 25.6954L8.42372 25.9374C10.4677 27.1494 12.7557 27.7154 15.0447 27.7154C22.2387 27.7154 28.1247 21.8974 28.1247 14.7874C28.1247 11.3944 26.7347 8.08141 24.2827 5.65741C21.8281 3.21756 18.5056 1.85157 15.0447 1.85941C7.85172 1.85941 1.96572 7.67741 2.04772 14.8684C2.04772 17.2924 2.78372 19.6354 4.00972 21.6554L4.33672 22.1404L3.02872 26.9074L7.93372 25.6954Z" fill="#00C766"/>
<path d="M25.668 4.363C22.888 1.535 19.047 0 15.123 0C6.785 0 0.082 6.706 0.163 14.867C0.163 17.452 0.899 19.957 2.125 22.219L0 29.895L7.93 27.875C10.136 29.087 12.589 29.653 15.041 29.653C23.297 29.653 30.001 22.947 30.001 14.786C30.001 10.827 28.447 7.11 25.668 4.363ZM15.123 27.148C12.916 27.148 10.709 26.583 8.828 25.452L8.338 25.209L3.597 26.421L4.823 21.816L4.496 21.331C0.899 15.594 2.616 7.999 8.501 4.444C14.387 0.889 21.99 2.586 25.586 8.403C29.183 14.22 27.466 21.735 21.581 25.29C19.701 26.502 17.411 27.148 15.123 27.148ZM22.316 18.18L21.417 17.776C21.417 17.776 20.109 17.21 19.292 16.806C19.21 16.806 19.128 16.726 19.047 16.726C18.801 16.726 18.637 16.806 18.474 16.887C18.474 16.887 18.393 16.967 17.248 18.26C17.2093 18.3347 17.1505 18.397 17.0782 18.44C17.0059 18.4829 16.9231 18.5048 16.839 18.503H16.758C16.676 18.503 16.513 18.423 16.431 18.341L16.022 18.18C15.122 17.776 14.305 17.29 13.652 16.645C13.488 16.483 13.242 16.321 13.079 16.16C12.507 15.594 11.935 14.948 11.526 14.22L11.444 14.059C11.363 13.979 11.363 13.897 11.281 13.736C11.281 13.574 11.281 13.413 11.363 13.332C11.363 13.332 11.69 12.928 11.935 12.685C12.098 12.524 12.18 12.281 12.344 12.12C12.507 11.878 12.589 11.554 12.507 11.312C12.425 10.908 11.444 8.726 11.199 8.242C11.036 7.999 10.872 7.918 10.627 7.838H9.727C9.564 7.838 9.401 7.918 9.237 7.918L9.155 8C8.992 8.081 8.828 8.243 8.665 8.323C8.501 8.485 8.42 8.646 8.256 8.808C7.684 9.535 7.357 10.424 7.357 11.313C7.357 11.959 7.521 12.606 7.766 13.171L7.848 13.414C8.58374 14.9678 9.61023 16.3663 10.872 17.534L11.199 17.857C11.444 18.1 11.689 18.261 11.853 18.504C13.57 19.958 15.532 21.009 17.739 21.574C17.984 21.655 18.311 21.655 18.556 21.736H19.374C19.782 21.736 20.273 21.574 20.6 21.413C20.845 21.251 21.008 21.251 21.172 21.09L21.335 20.928C21.499 20.766 21.663 20.686 21.825 20.524C21.989 20.362 22.153 20.201 22.235 20.039C22.398 19.716 22.48 19.312 22.562 18.908V18.342C22.562 18.342 22.48 18.261 22.316 18.18Z" fill="white"/>
</g>
</svg>
