<svg width="16" height="16" viewBox="0 0 16 16" fill="none" xmlns="http://www.w3.org/2000/svg">
<path fill-rule="evenodd" clip-rule="evenodd" d="M10.5327 0C9.97381 0 9.43782 0.222013 9.04264 0.617199C8.64745 1.01239 8.42544 1.54837 8.42544 2.10725C8.42544 2.66613 8.64745 3.20211 9.04264 3.5973C9.43782 3.99249 9.97381 4.2145 10.5327 4.2145C11.0916 4.2145 11.6276 3.99249 12.0227 3.5973C12.4179 3.20211 12.6399 2.66613 12.6399 2.10725C12.6399 1.54837 12.4179 1.01239 12.0227 0.617199C11.6276 0.222013 11.0916 0 10.5327 0ZM9.42569 2.107C9.42569 1.81334 9.54234 1.53171 9.74999 1.32406C9.95764 1.11641 10.2393 0.99975 10.5329 0.99975C10.8266 0.99975 11.1082 1.11641 11.3159 1.32406C11.5235 1.53171 11.6402 1.81334 11.6402 2.107C11.6402 2.40066 11.5235 2.68229 11.3159 2.88994C11.1082 3.09759 10.8266 3.21425 10.5329 3.21425C10.2393 3.21425 9.95764 3.09759 9.74999 2.88994C9.54234 2.68229 9.42569 2.40066 9.42569 2.107ZM6.18119 3.93C6.07588 3.8838 5.95908 3.87044 5.84606 3.89167C5.73304 3.9129 5.62905 3.96773 5.54769 4.049L3.38719 6.2105L2.67969 5.5035L4.84119 3.342C5.06469 3.11851 5.35039 2.96762 5.66098 2.90901C5.97157 2.85041 6.29261 2.88682 6.58219 3.0135L9.24469 4.1785C9.61915 4.3424 9.91502 4.64575 10.0695 5.02418C10.224 5.40262 10.225 5.82637 10.0722 6.2055L9.40219 7.867C9.48619 7.9325 9.56719 8.0015 9.64619 8.073L12.1607 7.872C12.3901 7.85366 12.6206 7.88591 12.8362 7.96648C13.0517 8.04704 13.2469 8.17395 13.408 8.33825C13.5691 8.50254 13.6922 8.70021 13.7685 8.91728C13.8448 9.13435 13.8725 9.36554 13.8497 9.5945L13.4417 13.6745L12.4467 13.5755L12.8547 9.4955C12.8897 9.1405 12.5957 8.8405 12.2402 8.8685L10.4202 9.014C10.8224 9.67726 11.0344 10.4383 11.0332 11.214C11.0347 12.1688 10.7133 13.096 10.1212 13.845L9.40769 13.1315C9.86575 12.5055 10.0848 11.7362 10.0252 10.9628C9.96567 10.1894 9.63143 9.46278 9.08292 8.91427C8.53441 8.36575 7.80779 8.03152 7.03437 7.97196C6.26094 7.9124 5.49172 8.13144 4.86569 8.5895L4.15219 7.877C4.65453 7.47992 5.24039 7.20194 5.86569 7.064L6.94269 4.2635L6.18119 3.93ZM7.85969 4.664L6.97369 6.9685C7.52869 6.993 8.05619 7.1235 8.53569 7.3415L9.14419 5.8315C9.1997 5.69363 9.19931 5.53956 9.14312 5.40197C9.08693 5.26438 8.97934 5.15409 8.84319 5.0945L7.85969 4.6645V4.664Z" fill="#262626"/>
<path d="M9.4136 14.5549L8.7001 13.8409C8.07407 14.299 7.30485 14.518 6.53143 14.4585C5.758 14.3989 5.03139 14.0647 4.48287 13.5162C3.93436 12.9677 3.60013 12.241 3.54056 11.4676C3.481 10.6942 3.70004 9.92497 4.1581 9.29894L3.4446 8.58594C2.79988 9.40317 2.47749 10.4286 2.53858 11.4677C2.59967 12.5069 3.04 13.4874 3.77605 14.2235C4.5121 14.9595 5.49268 15.3999 6.53182 15.461C7.57095 15.5221 8.59638 15.1997 9.4136 14.5549Z" fill="#262626"/>
</svg>
