<svg width="35" height="35" viewBox="0 0 35 35" fill="none" xmlns="http://www.w3.org/2000/svg">
<mask id="mask0_765_127595" style="mask-type:alpha" maskUnits="userSpaceOnUse" x="0" y="0" width="35" height="35">
<rect width="35" height="35" fill="#D9D9D9"/>
</mask>
<g mask="url(#mask0_765_127595)">
<path d="M17.4998 30.2042C16.6754 30.2042 15.9784 29.9195 15.4091 29.3502C14.8398 28.7809 14.5552 28.084 14.5552 27.2595C14.5552 26.435 14.8398 25.7381 15.4091 25.1688C15.9784 24.5995 16.6754 24.3149 17.4998 24.3149C18.3243 24.3149 19.0212 24.5995 19.5905 25.1688C20.1599 25.7381 20.4445 26.435 20.4445 27.2595C20.4445 28.084 20.1599 28.7809 19.5905 29.3502C19.0212 29.9195 18.3243 30.2042 17.4998 30.2042ZM9.26026 22.3853L6.98307 20.0632C8.33295 18.7134 9.9047 17.6495 11.6983 16.8717C13.4919 16.094 15.4266 15.7051 17.5022 15.7051C19.5778 15.7051 21.5116 16.0977 23.3037 16.883C25.0958 17.6682 26.6667 18.7433 28.0166 20.1081L25.7394 22.3853C24.67 21.3159 23.4304 20.4773 22.0207 19.8697C20.611 19.262 19.104 18.9582 17.4998 18.9582C15.8957 18.9582 14.3887 19.262 12.979 19.8697C11.5693 20.4773 10.3297 21.3159 9.26026 22.3853ZM3.06234 16.1874L0.785156 13.9102C2.91843 11.747 5.40974 10.047 8.25908 8.81026C11.1084 7.57347 14.1887 6.95508 17.4998 6.95508C20.811 6.95508 23.8912 7.57347 26.7406 8.81026C29.59 10.047 32.0813 11.747 34.2145 13.9102L31.9373 16.1874C30.0658 14.3159 27.8965 12.8514 25.4295 11.7942C22.9625 10.7369 20.3193 10.2082 17.4998 10.2082C14.6804 10.2082 12.0372 10.7369 9.57016 11.7942C7.10314 12.8514 4.93387 14.3159 3.06234 16.1874Z" fill="white"/>
</g>
</svg>
