<svg width="20" height="20" viewBox="0 0 20 20" fill="none" xmlns="http://www.w3.org/2000/svg">
<circle cx="10" cy="10" r="10" fill="#E95F29" fill-opacity="0.2"/>
<mask id="mask0_765_126778" style="mask-type:alpha" maskUnits="userSpaceOnUse" x="4" y="4" width="12" height="12">
<rect x="4" y="4" width="12" height="12" rx="6.00002" fill="#D9D9D9"/>
</mask>
<g mask="url(#mask0_765_126778)">
<path d="M6.79063 11.2375C6.6323 11.0792 6.5573 10.8917 6.56563 10.675C6.57397 10.4583 6.66147 10.2917 6.82813 10.175C7.27813 9.85835 7.7698 9.60834 8.30314 9.42501C8.83647 9.24168 9.40314 9.15001 10.0031 9.15001C10.6031 9.15001 11.1698 9.24168 11.7031 9.42501C12.2365 9.60834 12.7282 9.85835 13.1782 10.175C13.3448 10.2917 13.4344 10.4563 13.4469 10.6688C13.4594 10.8813 13.3823 11.0708 13.2157 11.2375C13.074 11.3792 12.8927 11.4563 12.6719 11.4688C12.4511 11.4813 12.2448 11.425 12.0531 11.3C11.7615 11.1083 11.4427 10.9646 11.0969 10.8688C10.7511 10.7729 10.3865 10.725 10.0031 10.725C9.61981 10.725 9.25522 10.7729 8.90939 10.8688C8.56355 10.9646 8.2448 11.1083 7.95314 11.3C7.76147 11.425 7.55522 11.4813 7.33438 11.4688C7.11355 11.4563 6.9323 11.3792 6.79063 11.2375ZM4.55313 9.02501C4.40313 8.87501 4.32812 8.69167 4.32812 8.47501C4.32812 8.25834 4.40729 8.08334 4.56563 7.95001C5.29896 7.33334 6.12605 6.85417 7.04688 6.5125C7.96772 6.17083 8.95314 6 10.0031 6C11.0531 6 12.0386 6.17083 12.9594 6.5125C13.8802 6.85417 14.7073 7.33334 15.4407 7.95001C15.599 8.08334 15.6802 8.25626 15.6844 8.46876C15.6886 8.68126 15.6115 8.86668 15.4532 9.02501C15.3115 9.16668 15.1302 9.24376 14.9094 9.25626C14.6886 9.26876 14.4948 9.20418 14.3282 9.06251C13.7365 8.58751 13.0761 8.22084 12.3469 7.96251C11.6177 7.70417 10.8365 7.575 10.0031 7.575C9.16981 7.575 8.38855 7.70417 7.65939 7.96251C6.93022 8.22084 6.2698 8.58751 5.67813 9.06251C5.51146 9.20418 5.31771 9.26876 5.09688 9.25626C4.87604 9.24376 4.69479 9.16668 4.55313 9.02501ZM10.0031 14.5C9.64481 14.5 9.34272 14.3771 9.09689 14.1313C8.85106 13.8854 8.72814 13.5834 8.72814 13.225C8.72814 12.8667 8.85106 12.5646 9.09689 12.3188C9.34272 12.0729 9.64481 11.95 10.0031 11.95C10.3615 11.95 10.6636 12.0729 10.9094 12.3188C11.1552 12.5646 11.2781 12.8667 11.2781 13.225C11.2781 13.5834 11.1552 13.8854 10.9094 14.1313C10.6636 14.3771 10.3615 14.5 10.0031 14.5Z" fill="#1C1B1F"/>
</g>
</svg>
